solid ascii
  facet normal -0.000000e+00 1.000000e+00 -0.000000e+00
    outer loop
      vertex   1.770000e+01 1.300000e+01 -2.200000e+01
      vertex   1.700000e+01 1.300000e+01 -2.130000e+01
      vertex   2.000000e+01 1.300000e+01 -2.200000e+01
    endloop
  endfacet
  facet normal 0.000000e+00 1.000000e+00 -0.000000e+00
    outer loop
      vertex   2.000000e+01 1.300000e+01 -2.200000e+01
      vertex   1.700000e+01 1.300000e+01 -2.130000e+01
      vertex   1.700000e+01 1.300000e+01 -1.950000e+01
    endloop
  endfacet
  facet normal 0.000000e+00 1.000000e+00 0.000000e+00
    outer loop
      vertex   1.750000e+01 1.300000e+01 -1.900000e+01
      vertex   2.000000e+01 1.300000e+01 -2.200000e+01
      vertex   1.700000e+01 1.300000e+01 -1.950000e+01
    endloop
  endfacet
  facet normal -0.000000e+00 1.000000e+00 0.000000e+00
    outer loop
      vertex   1.750000e+01 1.300000e+01 -1.900000e+01
      vertex   2.404817e+01 1.300000e+01 -1.900000e+01
      vertex   2.000000e+01 1.300000e+01 -2.200000e+01
    endloop
  endfacet
  facet normal -0.000000e+00 1.000000e+00 0.000000e+00
    outer loop
      vertex   2.000000e+01 1.300000e+01 -2.200000e+01
      vertex   2.404817e+01 1.300000e+01 -1.900000e+01
      vertex   2.504817e+01 1.300000e+01 -2.000000e+01
    endloop
  endfacet
  facet normal -0.000000e+00 1.000000e+00 0.000000e+00
    outer loop
      vertex   2.000000e+01 1.300000e+01 -2.400000e+01
      vertex   2.504817e+01 1.300000e+01 -2.000000e+01
      vertex   2.504817e+01 1.300000e+01 -2.600000e+01
    endloop
  endfacet
  facet normal -0.000000e+00 1.000000e+00 -0.000000e+00
    outer loop
      vertex   2.304817e+01 1.300000e+01 -2.800000e+01
      vertex   2.000000e+01 1.300000e+01 -2.400000e+01
      vertex   2.504817e+01 1.300000e+01 -2.600000e+01
    endloop
  endfacet
  facet normal 0.000000e+00 1.000000e+00 -0.000000e+00
    outer loop
      vertex   2.304817e+01 1.300000e+01 -2.800000e+01
      vertex   1.900000e+01 1.300000e+01 -2.500000e+01
      vertex   2.000000e+01 1.300000e+01 -2.400000e+01
    endloop
  endfacet
  facet normal 0.000000e+00 1.000000e+00 -0.000000e+00
    outer loop
      vertex   2.304817e+01 1.300000e+01 -2.800000e+01
      vertex   1.383854e+01 1.300000e+01 -2.800000e+01
      vertex   1.900000e+01 1.300000e+01 -2.500000e+01
    endloop
  endfacet
  facet normal 0.000000e+00 1.000000e+00 0.000000e+00
    outer loop
      vertex   1.900000e+01 1.300000e+01 -2.500000e+01
      vertex   1.383854e+01 1.300000e+01 -2.800000e+01
      vertex   1.250000e+01 1.300000e+01 -2.500000e+01
    endloop
  endfacet
  facet normal 0.000000e+00 1.000000e+00 0.000000e+00
    outer loop
      vertex   1.250000e+01 1.300000e+01 -2.500000e+01
      vertex   1.383854e+01 1.300000e+01 -2.800000e+01
      vertex   6.000000e+00 1.300000e+01 -2.500000e+01
    endloop
  endfacet
  facet normal 0.000000e+00 1.000000e+00 0.000000e+00
    outer loop
      vertex   6.000000e+00 1.300000e+01 -2.500000e+01
      vertex   1.383854e+01 1.300000e+01 -2.800000e+01
      vertex   4.628904e+00 1.300000e+01 -2.800000e+01
    endloop
  endfacet
  facet normal 0.000000e+00 1.000000e+00 0.000000e+00
    outer loop
      vertex   5.000000e+00 1.300000e+01 -2.400000e+01
      vertex   4.628904e+00 1.300000e+01 -2.800000e+01
      vertex   -4.580731e+00 1.300000e+01 -2.800000e+01
    endloop
  endfacet
  facet normal 0.000000e+00 1.000000e+00 0.000000e+00
    outer loop
      vertex   -5.000000e+00 1.300000e+01 -2.400000e+01
      vertex   -4.580731e+00 1.300000e+01 -2.800000e+01
      vertex   -6.000000e+00 1.300000e+01 -2.500000e+01
    endloop
  endfacet
  facet normal -0.000000e+00 1.000000e+00 0.000000e+00
    outer loop
      vertex   -5.000000e+00 1.300000e+01 -2.400000e+01
      vertex   5.000000e+00 1.300000e+01 -2.400000e+01
      vertex   -4.580731e+00 1.300000e+01 -2.800000e+01
    endloop
  endfacet
  facet normal -0.000000e+00 1.000000e+00 0.000000e+00
    outer loop
      vertex   -5.000000e+00 1.300000e+01 -2.400000e+01
      vertex   0.000000e+00 1.300000e+01 -1.900000e+01
      vertex   5.000000e+00 1.300000e+01 -2.400000e+01
    endloop
  endfacet
  facet normal 0.000000e+00 1.000000e+00 0.000000e+00
    outer loop
      vertex   -5.000000e+00 1.300000e+01 -2.400000e+01
      vertex   -5.000000e+00 1.300000e+01 -2.200000e+01
      vertex   0.000000e+00 1.300000e+01 -1.900000e+01
    endloop
  endfacet
  facet normal 0.000000e+00 1.000000e+00 0.000000e+00
    outer loop
      vertex   0.000000e+00 1.300000e+01 -1.900000e+01
      vertex   -5.000000e+00 1.300000e+01 -2.200000e+01
      vertex   -7.500000e+00 1.300000e+01 -1.900000e+01
    endloop
  endfacet
  facet normal 0.000000e+00 1.000000e+00 0.000000e+00
    outer loop
      vertex   -7.500000e+00 1.300000e+01 -1.900000e+01
      vertex   -5.000000e+00 1.300000e+01 -2.200000e+01
      vertex   -7.300000e+00 1.300000e+01 -2.200000e+01
    endloop
  endfacet
  facet normal 0.000000e+00 1.000000e+00 0.000000e+00
    outer loop
      vertex   -8.000000e+00 1.300000e+01 -1.950000e+01
      vertex   -7.300000e+00 1.300000e+01 -2.200000e+01
      vertex   -8.000000e+00 1.300000e+01 -2.130000e+01
    endloop
  endfacet
  facet normal -0.000000e+00 1.000000e+00 0.000000e+00
    outer loop
      vertex   -8.000000e+00 1.300000e+01 -1.950000e+01
      vertex   -7.500000e+00 1.300000e+01 -1.900000e+01
      vertex   -7.300000e+00 1.300000e+01 -2.200000e+01
    endloop
  endfacet
  facet normal -0.000000e+00 1.000000e+00 0.000000e+00
    outer loop
      vertex   2.000000e+01 1.300000e+01 -2.200000e+01
      vertex   2.504817e+01 1.300000e+01 -2.000000e+01
      vertex   2.000000e+01 1.300000e+01 -2.400000e+01
    endloop
  endfacet
  facet normal 0.000000e+00 1.000000e+00 -0.000000e+00
    outer loop
      vertex   6.000000e+00 1.300000e+01 -2.500000e+01
      vertex   4.628904e+00 1.300000e+01 -2.800000e+01
      vertex   5.000000e+00 1.300000e+01 -2.400000e+01
    endloop
  endfacet
  facet normal 0.000000e+00 1.000000e+00 -0.000000e+00
    outer loop
      vertex   -4.580731e+00 1.300000e+01 -2.800000e+01
      vertex   -1.379037e+01 1.300000e+01 -2.800000e+01
      vertex   -6.000000e+00 1.300000e+01 -2.500000e+01
    endloop
  endfacet
  facet normal 0.000000e+00 1.000000e+00 -0.000000e+00
    outer loop
      vertex   -6.000000e+00 1.300000e+01 -2.500000e+01
      vertex   -1.379037e+01 1.300000e+01 -2.800000e+01
      vertex   -1.250000e+01 1.300000e+01 -2.500000e+01
    endloop
  endfacet
  facet normal 0.000000e+00 1.000000e+00 0.000000e+00
    outer loop
      vertex   -1.250000e+01 1.300000e+01 -2.500000e+01
      vertex   -1.379037e+01 1.300000e+01 -2.800000e+01
      vertex   -1.900000e+01 1.300000e+01 -2.500000e+01
    endloop
  endfacet
  facet normal 0.000000e+00 1.000000e+00 0.000000e+00
    outer loop
      vertex   -1.900000e+01 1.300000e+01 -2.500000e+01
      vertex   -1.379037e+01 1.300000e+01 -2.800000e+01
      vertex   -2.300000e+01 1.300000e+01 -2.800000e+01
    endloop
  endfacet
  facet normal 0.000000e+00 1.000000e+00 0.000000e+00
    outer loop
      vertex   -2.000000e+01 1.300000e+01 -2.400000e+01
      vertex   -2.300000e+01 1.300000e+01 -2.800000e+01
      vertex   -2.500000e+01 1.300000e+01 -2.600000e+01
    endloop
  endfacet
  facet normal 0.000000e+00 1.000000e+00 0.000000e+00
    outer loop
      vertex   -2.500000e+01 1.300000e+01 -2.000000e+01
      vertex   -2.000000e+01 1.300000e+01 -2.400000e+01
      vertex   -2.500000e+01 1.300000e+01 -2.600000e+01
    endloop
  endfacet
  facet normal 0.000000e+00 1.000000e+00 0.000000e+00
    outer loop
      vertex   -2.500000e+01 1.300000e+01 -2.000000e+01
      vertex   -2.000000e+01 1.300000e+01 -2.200000e+01
      vertex   -2.000000e+01 1.300000e+01 -2.400000e+01
    endloop
  endfacet
  facet normal -0.000000e+00 1.000000e+00 0.000000e+00
    outer loop
      vertex   -2.500000e+01 1.300000e+01 -2.000000e+01
      vertex   -2.400000e+01 1.300000e+01 -1.900000e+01
      vertex   -2.000000e+01 1.300000e+01 -2.200000e+01
    endloop
  endfacet
  facet normal 0.000000e+00 1.000000e+00 -0.000000e+00
    outer loop
      vertex   -2.000000e+01 1.300000e+01 -2.200000e+01
      vertex   -2.400000e+01 1.300000e+01 -1.900000e+01
      vertex   -1.750000e+01 1.300000e+01 -1.900000e+01
    endloop
  endfacet
  facet normal 0.000000e+00 1.000000e+00 -0.000000e+00
    outer loop
      vertex   -1.700000e+01 1.300000e+01 -1.950000e+01
      vertex   -2.000000e+01 1.300000e+01 -2.200000e+01
      vertex   -1.750000e+01 1.300000e+01 -1.900000e+01
    endloop
  endfacet
  facet normal 0.000000e+00 1.000000e+00 0.000000e+00
    outer loop
      vertex   -1.700000e+01 1.300000e+01 -1.950000e+01
      vertex   -1.700000e+01 1.300000e+01 -2.130000e+01
      vertex   -2.000000e+01 1.300000e+01 -2.200000e+01
    endloop
  endfacet
  facet normal -0.000000e+00 1.000000e+00 0.000000e+00
    outer loop
      vertex   -2.000000e+01 1.300000e+01 -2.200000e+01
      vertex   -1.700000e+01 1.300000e+01 -2.130000e+01
      vertex   -1.770000e+01 1.300000e+01 -2.200000e+01
    endloop
  endfacet
  facet normal 0.000000e+00 1.000000e+00 -0.000000e+00
    outer loop
      vertex   -1.900000e+01 1.300000e+01 -2.500000e+01
      vertex   -2.300000e+01 1.300000e+01 -2.800000e+01
      vertex   -2.000000e+01 1.300000e+01 -2.400000e+01
    endloop
  endfacet
  facet normal -0.000000e+00 1.000000e+00 -0.000000e+00
    outer loop
      vertex   5.000000e+00 1.300000e+01 -2.400000e+01
      vertex   0.000000e+00 1.300000e+01 -1.900000e+01
      vertex   5.000000e+00 1.300000e+01 -2.200000e+01
    endloop
  endfacet
  facet normal 0.000000e+00 1.000000e+00 -0.000000e+00
    outer loop
      vertex   5.000000e+00 1.300000e+01 -2.200000e+01
      vertex   0.000000e+00 1.300000e+01 -1.900000e+01
      vertex   7.500000e+00 1.300000e+01 -1.900000e+01
    endloop
  endfacet
  facet normal -0.000000e+00 1.000000e+00 0.000000e+00
    outer loop
      vertex   7.300000e+00 1.300000e+01 -2.200000e+01
      vertex   7.500000e+00 1.300000e+01 -1.900000e+01
      vertex   8.000000e+00 1.300000e+01 -1.950000e+01
    endloop
  endfacet
  facet normal 0.000000e+00 1.000000e+00 -0.000000e+00
    outer loop
      vertex   8.000000e+00 1.300000e+01 -2.130000e+01
      vertex   7.300000e+00 1.300000e+01 -2.200000e+01
      vertex   8.000000e+00 1.300000e+01 -1.950000e+01
    endloop
  endfacet
  facet normal -0.000000e+00 1.000000e+00 0.000000e+00
    outer loop
      vertex   5.000000e+00 1.300000e+01 -2.200000e+01
      vertex   7.500000e+00 1.300000e+01 -1.900000e+01
      vertex   7.300000e+00 1.300000e+01 -2.200000e+01
    endloop
  endfacet
  facet normal 7.071068e-01 0.000000e+00 7.071068e-01
    outer loop
      vertex   -1.900000e+01 1.300000e+01 -2.500000e+01
      vertex   -2.000000e+01 1.300000e+01 -2.400000e+01
      vertex   -1.900000e+01 6.500000e+00 -2.500000e+01
    endloop
  endfacet
  facet normal 7.071068e-01 0.000000e+00 7.071068e-01
    outer loop
      vertex   -1.900000e+01 6.500000e+00 -2.500000e+01
      vertex   -2.000000e+01 1.300000e+01 -2.400000e+01
      vertex   -2.000000e+01 6.500000e+00 -2.400000e+01
    endloop
  endfacet
  facet normal 7.071068e-01 0.000000e+00 7.071068e-01
    outer loop
      vertex   -1.900000e+01 0.000000e+00 -2.500000e+01
      vertex   -2.000000e+01 6.500000e+00 -2.400000e+01
      vertex   -2.000000e+01 0.000000e+00 -2.400000e+01
    endloop
  endfacet
  facet normal 7.071068e-01 -0.000000e+00 7.071068e-01
    outer loop
      vertex   -1.900000e+01 0.000000e+00 -2.500000e+01
      vertex   -1.900000e+01 6.500000e+00 -2.500000e+01
      vertex   -2.000000e+01 6.500000e+00 -2.400000e+01
    endloop
  endfacet
  facet normal 1.000000e+00 0.000000e+00 -0.000000e+00
    outer loop
      vertex   -2.000000e+01 1.300000e+01 -2.400000e+01
      vertex   -2.000000e+01 1.300000e+01 -2.200000e+01
      vertex   -2.000000e+01 6.500000e+00 -2.400000e+01
    endloop
  endfacet
  facet normal 1.000000e+00 0.000000e+00 -0.000000e+00
    outer loop
      vertex   -2.000000e+01 6.500000e+00 -2.400000e+01
      vertex   -2.000000e+01 1.300000e+01 -2.200000e+01
      vertex   -2.000000e+01 6.500000e+00 -2.200000e+01
    endloop
  endfacet
  facet normal 1.000000e+00 0.000000e+00 -0.000000e+00
    outer loop
      vertex   -2.000000e+01 0.000000e+00 -2.400000e+01
      vertex   -2.000000e+01 6.500000e+00 -2.200000e+01
      vertex   -2.000000e+01 0.000000e+00 -2.200000e+01
    endloop
  endfacet
  facet normal 1.000000e+00 0.000000e+00 0.000000e+00
    outer loop
      vertex   -2.000000e+01 0.000000e+00 -2.400000e+01
      vertex   -2.000000e+01 6.500000e+00 -2.400000e+01
      vertex   -2.000000e+01 6.500000e+00 -2.200000e+01
    endloop
  endfacet
  facet normal 0.000000e+00 -0.000000e+00 -1.000000e+00
    outer loop
      vertex   -2.000000e+01 1.300000e+01 -2.200000e+01
      vertex   -1.770000e+01 1.300000e+01 -2.200000e+01
      vertex   -2.000000e+01 6.500000e+00 -2.200000e+01
    endloop
  endfacet
  facet normal 0.000000e+00 -0.000000e+00 -1.000000e+00
    outer loop
      vertex   -2.000000e+01 6.500000e+00 -2.200000e+01
      vertex   -1.770000e+01 1.300000e+01 -2.200000e+01
      vertex   -1.770000e+01 6.500000e+00 -2.200000e+01
    endloop
  endfacet
  facet normal 0.000000e+00 0.000000e+00 -1.000000e+00
    outer loop
      vertex   -2.000000e+01 0.000000e+00 -2.200000e+01
      vertex   -1.770000e+01 6.500000e+00 -2.200000e+01
      vertex   -1.770000e+01 0.000000e+00 -2.200000e+01
    endloop
  endfacet
  facet normal 0.000000e+00 0.000000e+00 -1.000000e+00
    outer loop
      vertex   -2.000000e+01 0.000000e+00 -2.200000e+01
      vertex   -2.000000e+01 6.500000e+00 -2.200000e+01
      vertex   -1.770000e+01 6.500000e+00 -2.200000e+01
    endloop
  endfacet
  facet normal 7.071068e-01 -3.795828e-16 -7.071068e-01
    outer loop
      vertex   -1.770000e+01 1.300000e+01 -2.200000e+01
      vertex   -1.700000e+01 1.300000e+01 -2.130000e+01
      vertex   -1.770000e+01 6.500000e+00 -2.200000e+01
    endloop
  endfacet
  facet normal 7.071068e-01 0.000000e+00 -7.071068e-01
    outer loop
      vertex   -1.770000e+01 6.500000e+00 -2.200000e+01
      vertex   -1.700000e+01 1.300000e+01 -2.130000e+01
      vertex   -1.700000e+01 6.500000e+00 -2.130000e+01
    endloop
  endfacet
  facet normal 7.071068e-01 0.000000e+00 -7.071068e-01
    outer loop
      vertex   -1.770000e+01 0.000000e+00 -2.200000e+01
      vertex   -1.700000e+01 6.500000e+00 -2.130000e+01
      vertex   -1.700000e+01 0.000000e+00 -2.130000e+01
    endloop
  endfacet
  facet normal 7.071068e-01 3.864843e-16 -7.071068e-01
    outer loop
      vertex   -1.770000e+01 0.000000e+00 -2.200000e+01
      vertex   -1.770000e+01 6.500000e+00 -2.200000e+01
      vertex   -1.700000e+01 6.500000e+00 -2.130000e+01
    endloop
  endfacet
  facet normal 1.000000e+00 0.000000e+00 -0.000000e+00
    outer loop
      vertex   -1.700000e+01 1.300000e+01 -2.130000e+01
      vertex   -1.700000e+01 1.300000e+01 -1.950000e+01
      vertex   -1.700000e+01 6.500000e+00 -2.130000e+01
    endloop
  endfacet
  facet normal 1.000000e+00 0.000000e+00 -0.000000e+00
    outer loop
      vertex   -1.700000e+01 6.500000e+00 -2.130000e+01
      vertex   -1.700000e+01 1.300000e+01 -1.950000e+01
      vertex   -1.700000e+01 6.500000e+00 -1.950000e+01
    endloop
  endfacet
  facet normal 1.000000e+00 0.000000e+00 -0.000000e+00
    outer loop
      vertex   -1.700000e+01 0.000000e+00 -2.130000e+01
      vertex   -1.700000e+01 6.500000e+00 -1.950000e+01
      vertex   -1.700000e+01 0.000000e+00 -1.950000e+01
    endloop
  endfacet
  facet normal 1.000000e+00 0.000000e+00 0.000000e+00
    outer loop
      vertex   -1.700000e+01 0.000000e+00 -2.130000e+01
      vertex   -1.700000e+01 6.500000e+00 -2.130000e+01
      vertex   -1.700000e+01 6.500000e+00 -1.950000e+01
    endloop
  endfacet
  facet normal 7.071068e-01 0.000000e+00 7.071068e-01
    outer loop
      vertex   -1.700000e+01 1.300000e+01 -1.950000e+01
      vertex   -1.750000e+01 1.300000e+01 -1.900000e+01
      vertex   -1.700000e+01 6.500000e+00 -1.950000e+01
    endloop
  endfacet
  facet normal 7.071068e-01 0.000000e+00 7.071068e-01
    outer loop
      vertex   -1.700000e+01 6.500000e+00 -1.950000e+01
      vertex   -1.750000e+01 1.300000e+01 -1.900000e+01
      vertex   -1.750000e+01 6.500000e+00 -1.900000e+01
    endloop
  endfacet
  facet normal 7.071068e-01 0.000000e+00 7.071068e-01
    outer loop
      vertex   -1.700000e+01 0.000000e+00 -1.950000e+01
      vertex   -1.750000e+01 6.500000e+00 -1.900000e+01
      vertex   -1.750000e+01 0.000000e+00 -1.900000e+01
    endloop
  endfacet
  facet normal 7.071068e-01 -0.000000e+00 7.071068e-01
    outer loop
      vertex   -1.700000e+01 0.000000e+00 -1.950000e+01
      vertex   -1.700000e+01 6.500000e+00 -1.950000e+01
      vertex   -1.750000e+01 6.500000e+00 -1.900000e+01
    endloop
  endfacet
  facet normal 0.000000e+00 0.000000e+00 1.000000e+00
    outer loop
      vertex   -1.750000e+01 1.300000e+01 -1.900000e+01
      vertex   -2.400000e+01 1.300000e+01 -1.900000e+01
      vertex   -1.750000e+01 6.500000e+00 -1.900000e+01
    endloop
  endfacet
  facet normal 0.000000e+00 0.000000e+00 1.000000e+00
    outer loop
      vertex   -1.750000e+01 6.500000e+00 -1.900000e+01
      vertex   -2.400000e+01 1.300000e+01 -1.900000e+01
      vertex   -2.400000e+01 6.500000e+00 -1.900000e+01
    endloop
  endfacet
  facet normal 0.000000e+00 0.000000e+00 1.000000e+00
    outer loop
      vertex   -1.750000e+01 0.000000e+00 -1.900000e+01
      vertex   -2.400000e+01 6.500000e+00 -1.900000e+01
      vertex   -2.400000e+01 0.000000e+00 -1.900000e+01
    endloop
  endfacet
  facet normal 0.000000e+00 -0.000000e+00 1.000000e+00
    outer loop
      vertex   -1.750000e+01 0.000000e+00 -1.900000e+01
      vertex   -1.750000e+01 6.500000e+00 -1.900000e+01
      vertex   -2.400000e+01 6.500000e+00 -1.900000e+01
    endloop
  endfacet
  facet normal -7.071068e-01 0.000000e+00 7.071068e-01
    outer loop
      vertex   -2.400000e+01 1.300000e+01 -1.900000e+01
      vertex   -2.500000e+01 1.300000e+01 -2.000000e+01
      vertex   -2.400000e+01 6.500000e+00 -1.900000e+01
    endloop
  endfacet
  facet normal -7.071068e-01 0.000000e+00 7.071068e-01
    outer loop
      vertex   -2.400000e+01 6.500000e+00 -1.900000e+01
      vertex   -2.500000e+01 1.300000e+01 -2.000000e+01
      vertex   -2.500000e+01 6.500000e+00 -2.000000e+01
    endloop
  endfacet
  facet normal -7.071068e-01 0.000000e+00 7.071068e-01
    outer loop
      vertex   -2.400000e+01 0.000000e+00 -1.900000e+01
      vertex   -2.500000e+01 6.500000e+00 -2.000000e+01
      vertex   -2.500000e+01 0.000000e+00 -2.000000e+01
    endloop
  endfacet
  facet normal -7.071068e-01 0.000000e+00 7.071068e-01
    outer loop
      vertex   -2.400000e+01 0.000000e+00 -1.900000e+01
      vertex   -2.400000e+01 6.500000e+00 -1.900000e+01
      vertex   -2.500000e+01 6.500000e+00 -2.000000e+01
    endloop
  endfacet
  facet normal -1.000000e+00 -0.000000e+00 -0.000000e+00
    outer loop
      vertex   -2.500000e+01 1.300000e+01 -2.000000e+01
      vertex   -2.500000e+01 1.300000e+01 -2.600000e+01
      vertex   -2.500000e+01 6.500000e+00 -2.000000e+01
    endloop
  endfacet
  facet normal -1.000000e+00 -0.000000e+00 -0.000000e+00
    outer loop
      vertex   -2.500000e+01 6.500000e+00 -2.000000e+01
      vertex   -2.500000e+01 1.300000e+01 -2.600000e+01
      vertex   -2.500000e+01 6.500000e+00 -2.600000e+01
    endloop
  endfacet
  facet normal -1.000000e+00 -0.000000e+00 -0.000000e+00
    outer loop
      vertex   -2.500000e+01 0.000000e+00 -2.000000e+01
      vertex   -2.500000e+01 6.500000e+00 -2.600000e+01
      vertex   -2.500000e+01 0.000000e+00 -2.600000e+01
    endloop
  endfacet
  facet normal -1.000000e+00 0.000000e+00 0.000000e+00
    outer loop
      vertex   -2.500000e+01 0.000000e+00 -2.000000e+01
      vertex   -2.500000e+01 6.500000e+00 -2.000000e+01
      vertex   -2.500000e+01 6.500000e+00 -2.600000e+01
    endloop
  endfacet
  facet normal -7.071068e-01 0.000000e+00 -7.071068e-01
    outer loop
      vertex   -2.500000e+01 1.300000e+01 -2.600000e+01
      vertex   -2.300000e+01 1.300000e+01 -2.800000e+01
      vertex   -2.500000e+01 6.500000e+00 -2.600000e+01
    endloop
  endfacet
  facet normal -7.071068e-01 -0.000000e+00 -7.071068e-01
    outer loop
      vertex   -2.500000e+01 6.500000e+00 -2.600000e+01
      vertex   -2.300000e+01 1.300000e+01 -2.800000e+01
      vertex   -2.300000e+01 6.500000e+00 -2.800000e+01
    endloop
  endfacet
  facet normal -7.071068e-01 -0.000000e+00 -7.071068e-01
    outer loop
      vertex   -2.500000e+01 0.000000e+00 -2.600000e+01
      vertex   -2.300000e+01 6.500000e+00 -2.800000e+01
      vertex   -2.300000e+01 0.000000e+00 -2.800000e+01
    endloop
  endfacet
  facet normal -7.071068e-01 0.000000e+00 -7.071068e-01
    outer loop
      vertex   -2.500000e+01 0.000000e+00 -2.600000e+01
      vertex   -2.500000e+01 6.500000e+00 -2.600000e+01
      vertex   -2.300000e+01 6.500000e+00 -2.800000e+01
    endloop
  endfacet
  facet normal 0.000000e+00 -0.000000e+00 -1.000000e+00
    outer loop
      vertex   -2.300000e+01 1.300000e+01 -2.800000e+01
      vertex   -1.379037e+01 1.300000e+01 -2.800000e+01
      vertex   -2.300000e+01 6.500000e+00 -2.800000e+01
    endloop
  endfacet
  facet normal 0.000000e+00 0.000000e+00 -1.000000e+00
    outer loop
      vertex   -2.300000e+01 6.500000e+00 -2.800000e+01
      vertex   -1.379037e+01 1.300000e+01 -2.800000e+01
      vertex   -1.148796e+01 6.500000e+00 -2.800000e+01
    endloop
  endfacet
  facet normal 0.000000e+00 0.000000e+00 -1.000000e+00
    outer loop
      vertex   -1.379037e+01 0.000000e+00 -2.800000e+01
      vertex   -1.148796e+01 6.500000e+00 -2.800000e+01
      vertex   -4.580731e+00 0.000000e+00 -2.800000e+01
    endloop
  endfacet
  facet normal 0.000000e+00 0.000000e+00 -1.000000e+00
    outer loop
      vertex   -1.379037e+01 0.000000e+00 -2.800000e+01
      vertex   -2.300000e+01 6.500000e+00 -2.800000e+01
      vertex   -1.148796e+01 6.500000e+00 -2.800000e+01
    endloop
  endfacet
  facet normal 0.000000e+00 0.000000e+00 -1.000000e+00
    outer loop
      vertex   -1.379037e+01 0.000000e+00 -2.800000e+01
      vertex   -2.300000e+01 0.000000e+00 -2.800000e+01
      vertex   -2.300000e+01 6.500000e+00 -2.800000e+01
    endloop
  endfacet
  facet normal 0.000000e+00 -0.000000e+00 -1.000000e+00
    outer loop
      vertex   -1.379037e+01 1.300000e+01 -2.800000e+01
      vertex   -4.580731e+00 1.300000e+01 -2.800000e+01
      vertex   -1.148796e+01 6.500000e+00 -2.800000e+01
    endloop
  endfacet
  facet normal 0.000000e+00 0.000000e+00 -1.000000e+00
    outer loop
      vertex   -1.148796e+01 6.500000e+00 -2.800000e+01
      vertex   -4.580731e+00 1.300000e+01 -2.800000e+01
      vertex   2.408652e-02 6.500000e+00 -2.800000e+01
    endloop
  endfacet
  facet normal 0.000000e+00 0.000000e+00 -1.000000e+00
    outer loop
      vertex   -4.580731e+00 0.000000e+00 -2.800000e+01
      vertex   2.408652e-02 6.500000e+00 -2.800000e+01
      vertex   4.628904e+00 0.000000e+00 -2.800000e+01
    endloop
  endfacet
  facet normal 0.000000e+00 0.000000e+00 -1.000000e+00
    outer loop
      vertex   -4.580731e+00 0.000000e+00 -2.800000e+01
      vertex   -1.148796e+01 6.500000e+00 -2.800000e+01
      vertex   2.408652e-02 6.500000e+00 -2.800000e+01
    endloop
  endfacet
  facet normal 0.000000e+00 -0.000000e+00 -1.000000e+00
    outer loop
      vertex   -4.580731e+00 1.300000e+01 -2.800000e+01
      vertex   4.628904e+00 1.300000e+01 -2.800000e+01
      vertex   2.408652e-02 6.500000e+00 -2.800000e+01
    endloop
  endfacet
  facet normal 0.000000e+00 0.000000e+00 -1.000000e+00
    outer loop
      vertex   2.408652e-02 6.500000e+00 -2.800000e+01
      vertex   4.628904e+00 1.300000e+01 -2.800000e+01
      vertex   1.153613e+01 6.500000e+00 -2.800000e+01
    endloop
  endfacet
  facet normal 0.000000e+00 0.000000e+00 -1.000000e+00
    outer loop
      vertex   4.628904e+00 0.000000e+00 -2.800000e+01
      vertex   1.153613e+01 6.500000e+00 -2.800000e+01
      vertex   1.383854e+01 0.000000e+00 -2.800000e+01
    endloop
  endfacet
  facet normal 0.000000e+00 0.000000e+00 -1.000000e+00
    outer loop
      vertex   4.628904e+00 0.000000e+00 -2.800000e+01
      vertex   2.408652e-02 6.500000e+00 -2.800000e+01
      vertex   1.153613e+01 6.500000e+00 -2.800000e+01
    endloop
  endfacet
  facet normal 0.000000e+00 -0.000000e+00 -1.000000e+00
    outer loop
      vertex   4.628904e+00 1.300000e+01 -2.800000e+01
      vertex   1.383854e+01 1.300000e+01 -2.800000e+01
      vertex   1.153613e+01 6.500000e+00 -2.800000e+01
    endloop
  endfacet
  facet normal 0.000000e+00 0.000000e+00 -1.000000e+00
    outer loop
      vertex   1.153613e+01 6.500000e+00 -2.800000e+01
      vertex   1.383854e+01 1.300000e+01 -2.800000e+01
      vertex   2.304817e+01 6.500000e+00 -2.800000e+01
    endloop
  endfacet
  facet normal 0.000000e+00 0.000000e+00 -1.000000e+00
    outer loop
      vertex   1.383854e+01 0.000000e+00 -2.800000e+01
      vertex   2.304817e+01 6.500000e+00 -2.800000e+01
      vertex   2.304817e+01 0.000000e+00 -2.800000e+01
    endloop
  endfacet
  facet normal 0.000000e+00 0.000000e+00 -1.000000e+00
    outer loop
      vertex   1.383854e+01 0.000000e+00 -2.800000e+01
      vertex   1.153613e+01 6.500000e+00 -2.800000e+01
      vertex   2.304817e+01 6.500000e+00 -2.800000e+01
    endloop
  endfacet
  facet normal 0.000000e+00 0.000000e+00 -1.000000e+00
    outer loop
      vertex   1.383854e+01 1.300000e+01 -2.800000e+01
      vertex   2.304817e+01 1.300000e+01 -2.800000e+01
      vertex   2.304817e+01 6.500000e+00 -2.800000e+01
    endloop
  endfacet
  facet normal 7.071068e-01 0.000000e+00 -7.071068e-01
    outer loop
      vertex   2.304817e+01 1.300000e+01 -2.800000e+01
      vertex   2.504817e+01 1.300000e+01 -2.600000e+01
      vertex   2.304817e+01 6.500000e+00 -2.800000e+01
    endloop
  endfacet
  facet normal 7.071068e-01 0.000000e+00 -7.071068e-01
    outer loop
      vertex   2.304817e+01 6.500000e+00 -2.800000e+01
      vertex   2.504817e+01 1.300000e+01 -2.600000e+01
      vertex   2.504817e+01 6.500000e+00 -2.600000e+01
    endloop
  endfacet
  facet normal 7.071068e-01 0.000000e+00 -7.071068e-01
    outer loop
      vertex   2.304817e+01 0.000000e+00 -2.800000e+01
      vertex   2.504817e+01 6.500000e+00 -2.600000e+01
      vertex   2.504817e+01 0.000000e+00 -2.600000e+01
    endloop
  endfacet
  facet normal 7.071068e-01 0.000000e+00 -7.071068e-01
    outer loop
      vertex   2.304817e+01 0.000000e+00 -2.800000e+01
      vertex   2.304817e+01 6.500000e+00 -2.800000e+01
      vertex   2.504817e+01 6.500000e+00 -2.600000e+01
    endloop
  endfacet
  facet normal 1.000000e+00 0.000000e+00 -0.000000e+00
    outer loop
      vertex   2.504817e+01 1.300000e+01 -2.600000e+01
      vertex   2.504817e+01 1.300000e+01 -2.000000e+01
      vertex   2.504817e+01 6.500000e+00 -2.600000e+01
    endloop
  endfacet
  facet normal 1.000000e+00 0.000000e+00 -0.000000e+00
    outer loop
      vertex   2.504817e+01 6.500000e+00 -2.600000e+01
      vertex   2.504817e+01 1.300000e+01 -2.000000e+01
      vertex   2.504817e+01 6.500000e+00 -2.000000e+01
    endloop
  endfacet
  facet normal 1.000000e+00 0.000000e+00 -0.000000e+00
    outer loop
      vertex   2.504817e+01 0.000000e+00 -2.600000e+01
      vertex   2.504817e+01 6.500000e+00 -2.000000e+01
      vertex   2.504817e+01 0.000000e+00 -2.000000e+01
    endloop
  endfacet
  facet normal 1.000000e+00 0.000000e+00 0.000000e+00
    outer loop
      vertex   2.504817e+01 0.000000e+00 -2.600000e+01
      vertex   2.504817e+01 6.500000e+00 -2.600000e+01
      vertex   2.504817e+01 6.500000e+00 -2.000000e+01
    endloop
  endfacet
  facet normal 7.071068e-01 0.000000e+00 7.071068e-01
    outer loop
      vertex   2.504817e+01 1.300000e+01 -2.000000e+01
      vertex   2.404817e+01 1.300000e+01 -1.900000e+01
      vertex   2.504817e+01 6.500000e+00 -2.000000e+01
    endloop
  endfacet
  facet normal 7.071068e-01 -3.864843e-16 7.071068e-01
    outer loop
      vertex   2.504817e+01 6.500000e+00 -2.000000e+01
      vertex   2.404817e+01 1.300000e+01 -1.900000e+01
      vertex   2.404817e+01 6.500000e+00 -1.900000e+01
    endloop
  endfacet
  facet normal 7.071068e-01 3.864843e-16 7.071068e-01
    outer loop
      vertex   2.504817e+01 0.000000e+00 -2.000000e+01
      vertex   2.404817e+01 6.500000e+00 -1.900000e+01
      vertex   2.404817e+01 0.000000e+00 -1.900000e+01
    endloop
  endfacet
  facet normal 7.071068e-01 -0.000000e+00 7.071068e-01
    outer loop
      vertex   2.504817e+01 0.000000e+00 -2.000000e+01
      vertex   2.504817e+01 6.500000e+00 -2.000000e+01
      vertex   2.404817e+01 6.500000e+00 -1.900000e+01
    endloop
  endfacet
  facet normal 0.000000e+00 0.000000e+00 1.000000e+00
    outer loop
      vertex   2.404817e+01 1.300000e+01 -1.900000e+01
      vertex   1.750000e+01 1.300000e+01 -1.900000e+01
      vertex   2.404817e+01 6.500000e+00 -1.900000e+01
    endloop
  endfacet
  facet normal 0.000000e+00 0.000000e+00 1.000000e+00
    outer loop
      vertex   2.404817e+01 6.500000e+00 -1.900000e+01
      vertex   1.750000e+01 1.300000e+01 -1.900000e+01
      vertex   1.750000e+01 6.500000e+00 -1.900000e+01
    endloop
  endfacet
  facet normal 0.000000e+00 0.000000e+00 1.000000e+00
    outer loop
      vertex   2.404817e+01 0.000000e+00 -1.900000e+01
      vertex   1.750000e+01 6.500000e+00 -1.900000e+01
      vertex   1.750000e+01 0.000000e+00 -1.900000e+01
    endloop
  endfacet
  facet normal 0.000000e+00 0.000000e+00 1.000000e+00
    outer loop
      vertex   2.404817e+01 0.000000e+00 -1.900000e+01
      vertex   2.404817e+01 6.500000e+00 -1.900000e+01
      vertex   1.750000e+01 6.500000e+00 -1.900000e+01
    endloop
  endfacet
  facet normal -7.071068e-01 0.000000e+00 7.071068e-01
    outer loop
      vertex   1.750000e+01 1.300000e+01 -1.900000e+01
      vertex   1.700000e+01 1.300000e+01 -1.950000e+01
      vertex   1.750000e+01 6.500000e+00 -1.900000e+01
    endloop
  endfacet
  facet normal -7.071068e-01 0.000000e+00 7.071068e-01
    outer loop
      vertex   1.750000e+01 6.500000e+00 -1.900000e+01
      vertex   1.700000e+01 1.300000e+01 -1.950000e+01
      vertex   1.700000e+01 6.500000e+00 -1.950000e+01
    endloop
  endfacet
  facet normal -7.071068e-01 0.000000e+00 7.071068e-01
    outer loop
      vertex   1.750000e+01 0.000000e+00 -1.900000e+01
      vertex   1.700000e+01 6.500000e+00 -1.950000e+01
      vertex   1.700000e+01 0.000000e+00 -1.950000e+01
    endloop
  endfacet
  facet normal -7.071068e-01 0.000000e+00 7.071068e-01
    outer loop
      vertex   1.750000e+01 0.000000e+00 -1.900000e+01
      vertex   1.750000e+01 6.500000e+00 -1.900000e+01
      vertex   1.700000e+01 6.500000e+00 -1.950000e+01
    endloop
  endfacet
  facet normal -1.000000e+00 -0.000000e+00 -0.000000e+00
    outer loop
      vertex   1.700000e+01 1.300000e+01 -1.950000e+01
      vertex   1.700000e+01 1.300000e+01 -2.130000e+01
      vertex   1.700000e+01 6.500000e+00 -1.950000e+01
    endloop
  endfacet
  facet normal -1.000000e+00 -0.000000e+00 -0.000000e+00
    outer loop
      vertex   1.700000e+01 6.500000e+00 -1.950000e+01
      vertex   1.700000e+01 1.300000e+01 -2.130000e+01
      vertex   1.700000e+01 6.500000e+00 -2.130000e+01
    endloop
  endfacet
  facet normal -1.000000e+00 -0.000000e+00 -0.000000e+00
    outer loop
      vertex   1.700000e+01 0.000000e+00 -1.950000e+01
      vertex   1.700000e+01 6.500000e+00 -2.130000e+01
      vertex   1.700000e+01 0.000000e+00 -2.130000e+01
    endloop
  endfacet
  facet normal -1.000000e+00 0.000000e+00 0.000000e+00
    outer loop
      vertex   1.700000e+01 0.000000e+00 -1.950000e+01
      vertex   1.700000e+01 6.500000e+00 -1.950000e+01
      vertex   1.700000e+01 6.500000e+00 -2.130000e+01
    endloop
  endfacet
  facet normal -7.071068e-01 0.000000e+00 -7.071068e-01
    outer loop
      vertex   1.700000e+01 1.300000e+01 -2.130000e+01
      vertex   1.770000e+01 1.300000e+01 -2.200000e+01
      vertex   1.700000e+01 6.500000e+00 -2.130000e+01
    endloop
  endfacet
  facet normal -7.071068e-01 -0.000000e+00 -7.071068e-01
    outer loop
      vertex   1.700000e+01 6.500000e+00 -2.130000e+01
      vertex   1.770000e+01 1.300000e+01 -2.200000e+01
      vertex   1.770000e+01 6.500000e+00 -2.200000e+01
    endloop
  endfacet
  facet normal -7.071068e-01 -0.000000e+00 -7.071068e-01
    outer loop
      vertex   1.700000e+01 0.000000e+00 -2.130000e+01
      vertex   1.770000e+01 6.500000e+00 -2.200000e+01
      vertex   1.770000e+01 0.000000e+00 -2.200000e+01
    endloop
  endfacet
  facet normal -7.071068e-01 0.000000e+00 -7.071068e-01
    outer loop
      vertex   1.700000e+01 0.000000e+00 -2.130000e+01
      vertex   1.700000e+01 6.500000e+00 -2.130000e+01
      vertex   1.770000e+01 6.500000e+00 -2.200000e+01
    endloop
  endfacet
  facet normal 0.000000e+00 -0.000000e+00 -1.000000e+00
    outer loop
      vertex   1.770000e+01 1.300000e+01 -2.200000e+01
      vertex   2.000000e+01 1.300000e+01 -2.200000e+01
      vertex   1.770000e+01 6.500000e+00 -2.200000e+01
    endloop
  endfacet
  facet normal 0.000000e+00 0.000000e+00 -1.000000e+00
    outer loop
      vertex   1.770000e+01 6.500000e+00 -2.200000e+01
      vertex   2.000000e+01 1.300000e+01 -2.200000e+01
      vertex   2.000000e+01 6.500000e+00 -2.200000e+01
    endloop
  endfacet
  facet normal 0.000000e+00 0.000000e+00 -1.000000e+00
    outer loop
      vertex   1.770000e+01 0.000000e+00 -2.200000e+01
      vertex   2.000000e+01 6.500000e+00 -2.200000e+01
      vertex   2.000000e+01 0.000000e+00 -2.200000e+01
    endloop
  endfacet
  facet normal 0.000000e+00 0.000000e+00 -1.000000e+00
    outer loop
      vertex   1.770000e+01 0.000000e+00 -2.200000e+01
      vertex   1.770000e+01 6.500000e+00 -2.200000e+01
      vertex   2.000000e+01 6.500000e+00 -2.200000e+01
    endloop
  endfacet
  facet normal 7.071068e-01 0.000000e+00 -7.071068e-01
    outer loop
      vertex   7.300000e+00 1.300000e+01 -2.200000e+01
      vertex   8.000000e+00 1.300000e+01 -2.130000e+01
      vertex   7.300000e+00 6.500000e+00 -2.200000e+01
    endloop
  endfacet
  facet normal 7.071068e-01 0.000000e+00 -7.071068e-01
    outer loop
      vertex   7.300000e+00 6.500000e+00 -2.200000e+01
      vertex   8.000000e+00 1.300000e+01 -2.130000e+01
      vertex   8.000000e+00 6.500000e+00 -2.130000e+01
    endloop
  endfacet
  facet normal 7.071068e-01 0.000000e+00 -7.071068e-01
    outer loop
      vertex   7.300000e+00 0.000000e+00 -2.200000e+01
      vertex   8.000000e+00 6.500000e+00 -2.130000e+01
      vertex   8.000000e+00 0.000000e+00 -2.130000e+01
    endloop
  endfacet
  facet normal 7.071068e-01 0.000000e+00 -7.071068e-01
    outer loop
      vertex   7.300000e+00 0.000000e+00 -2.200000e+01
      vertex   7.300000e+00 6.500000e+00 -2.200000e+01
      vertex   8.000000e+00 6.500000e+00 -2.130000e+01
    endloop
  endfacet
  facet normal 0.000000e+00 -0.000000e+00 -1.000000e+00
    outer loop
      vertex   5.000000e+00 1.300000e+01 -2.200000e+01
      vertex   7.300000e+00 1.300000e+01 -2.200000e+01
      vertex   5.000000e+00 6.500000e+00 -2.200000e+01
    endloop
  endfacet
  facet normal 0.000000e+00 0.000000e+00 -1.000000e+00
    outer loop
      vertex   5.000000e+00 6.500000e+00 -2.200000e+01
      vertex   7.300000e+00 1.300000e+01 -2.200000e+01
      vertex   7.300000e+00 6.500000e+00 -2.200000e+01
    endloop
  endfacet
  facet normal 0.000000e+00 0.000000e+00 -1.000000e+00
    outer loop
      vertex   5.000000e+00 0.000000e+00 -2.200000e+01
      vertex   7.300000e+00 6.500000e+00 -2.200000e+01
      vertex   7.300000e+00 0.000000e+00 -2.200000e+01
    endloop
  endfacet
  facet normal 0.000000e+00 0.000000e+00 -1.000000e+00
    outer loop
      vertex   5.000000e+00 0.000000e+00 -2.200000e+01
      vertex   5.000000e+00 6.500000e+00 -2.200000e+01
      vertex   7.300000e+00 6.500000e+00 -2.200000e+01
    endloop
  endfacet
  facet normal 0.000000e+00 -1.000000e+00 0.000000e+00
    outer loop
      vertex   1.770000e+01 0.000000e+00 -2.200000e+01
      vertex   2.000000e+01 0.000000e+00 -2.200000e+01
      vertex   1.700000e+01 0.000000e+00 -2.130000e+01
    endloop
  endfacet
  facet normal 0.000000e+00 -1.000000e+00 0.000000e+00
    outer loop
      vertex   1.700000e+01 0.000000e+00 -2.130000e+01
      vertex   2.000000e+01 0.000000e+00 -2.200000e+01
      vertex   1.700000e+01 0.000000e+00 -1.950000e+01
    endloop
  endfacet
  facet normal 0.000000e+00 -1.000000e+00 0.000000e+00
    outer loop
      vertex   1.700000e+01 0.000000e+00 -1.950000e+01
      vertex   2.000000e+01 0.000000e+00 -2.200000e+01
      vertex   1.750000e+01 0.000000e+00 -1.900000e+01
    endloop
  endfacet
  facet normal 0.000000e+00 -1.000000e+00 0.000000e+00
    outer loop
      vertex   1.750000e+01 0.000000e+00 -1.900000e+01
      vertex   2.000000e+01 0.000000e+00 -2.200000e+01
      vertex   2.404817e+01 0.000000e+00 -1.900000e+01
    endloop
  endfacet
  facet normal 0.000000e+00 -1.000000e+00 -0.000000e+00
    outer loop
      vertex   2.404817e+01 0.000000e+00 -1.900000e+01
      vertex   2.000000e+01 0.000000e+00 -2.200000e+01
      vertex   2.504817e+01 0.000000e+00 -2.000000e+01
    endloop
  endfacet
  facet normal 0.000000e+00 -1.000000e+00 -0.000000e+00
    outer loop
      vertex   2.504817e+01 0.000000e+00 -2.000000e+01
      vertex   2.000000e+01 0.000000e+00 -2.200000e+01
      vertex   2.000000e+01 0.000000e+00 -2.400000e+01
    endloop
  endfacet
  facet normal -0.000000e+00 -1.000000e+00 -0.000000e+00
    outer loop
      vertex   2.504817e+01 0.000000e+00 -2.600000e+01
      vertex   2.000000e+01 0.000000e+00 -2.400000e+01
      vertex   2.304817e+01 0.000000e+00 -2.800000e+01
    endloop
  endfacet
  facet normal -0.000000e+00 -1.000000e+00 0.000000e+00
    outer loop
      vertex   2.504817e+01 0.000000e+00 -2.600000e+01
      vertex   2.504817e+01 0.000000e+00 -2.000000e+01
      vertex   2.000000e+01 0.000000e+00 -2.400000e+01
    endloop
  endfacet
  facet normal 0.000000e+00 -1.000000e+00 -0.000000e+00
    outer loop
      vertex   2.000000e+01 0.000000e+00 -2.400000e+01
      vertex   1.900000e+01 0.000000e+00 -2.500000e+01
      vertex   2.304817e+01 0.000000e+00 -2.800000e+01
    endloop
  endfacet
  facet normal -0.000000e+00 -1.000000e+00 0.000000e+00
    outer loop
      vertex   2.304817e+01 0.000000e+00 -2.800000e+01
      vertex   1.900000e+01 0.000000e+00 -2.500000e+01
      vertex   1.383854e+01 0.000000e+00 -2.800000e+01
    endloop
  endfacet
  facet normal 0.000000e+00 -1.000000e+00 0.000000e+00
    outer loop
      vertex   1.383854e+01 0.000000e+00 -2.800000e+01
      vertex   1.900000e+01 0.000000e+00 -2.500000e+01
      vertex   1.250000e+01 0.000000e+00 -2.500000e+01
    endloop
  endfacet
  facet normal 0.000000e+00 -1.000000e+00 0.000000e+00
    outer loop
      vertex   6.000000e+00 0.000000e+00 -2.500000e+01
      vertex   1.383854e+01 0.000000e+00 -2.800000e+01
      vertex   1.250000e+01 0.000000e+00 -2.500000e+01
    endloop
  endfacet
  facet normal 0.000000e+00 -1.000000e+00 -0.000000e+00
    outer loop
      vertex   6.000000e+00 0.000000e+00 -2.500000e+01
      vertex   4.628904e+00 0.000000e+00 -2.800000e+01
      vertex   1.383854e+01 0.000000e+00 -2.800000e+01
    endloop
  endfacet
  facet normal -0.000000e+00 -1.000000e+00 0.000000e+00
    outer loop
      vertex   6.000000e+00 0.000000e+00 -2.500000e+01
      vertex   5.000000e+00 0.000000e+00 -2.400000e+01
      vertex   4.628904e+00 0.000000e+00 -2.800000e+01
    endloop
  endfacet
  facet normal -0.000000e+00 -1.000000e+00 0.000000e+00
    outer loop
      vertex   4.628904e+00 0.000000e+00 -2.800000e+01
      vertex   5.000000e+00 0.000000e+00 -2.400000e+01
      vertex   -4.580731e+00 0.000000e+00 -2.800000e+01
    endloop
  endfacet
  facet normal -0.000000e+00 -1.000000e+00 0.000000e+00
    outer loop
      vertex   -4.580731e+00 0.000000e+00 -2.800000e+01
      vertex   5.000000e+00 0.000000e+00 -2.400000e+01
      vertex   -5.000000e+00 0.000000e+00 -2.400000e+01
    endloop
  endfacet
  facet normal 0.000000e+00 -1.000000e+00 0.000000e+00
    outer loop
      vertex   -6.000000e+00 0.000000e+00 -2.500000e+01
      vertex   -4.580731e+00 0.000000e+00 -2.800000e+01
      vertex   -5.000000e+00 0.000000e+00 -2.400000e+01
    endloop
  endfacet
  facet normal 0.000000e+00 -1.000000e+00 -0.000000e+00
    outer loop
      vertex   -6.000000e+00 0.000000e+00 -2.500000e+01
      vertex   -1.379037e+01 0.000000e+00 -2.800000e+01
      vertex   -4.580731e+00 0.000000e+00 -2.800000e+01
    endloop
  endfacet
  facet normal -0.000000e+00 -1.000000e+00 0.000000e+00
    outer loop
      vertex   -6.000000e+00 0.000000e+00 -2.500000e+01
      vertex   -1.250000e+01 0.000000e+00 -2.500000e+01
      vertex   -1.379037e+01 0.000000e+00 -2.800000e+01
    endloop
  endfacet
  facet normal 0.000000e+00 -1.000000e+00 0.000000e+00
    outer loop
      vertex   -1.379037e+01 0.000000e+00 -2.800000e+01
      vertex   -1.250000e+01 0.000000e+00 -2.500000e+01
      vertex   -1.900000e+01 0.000000e+00 -2.500000e+01
    endloop
  endfacet
  facet normal 0.000000e+00 -1.000000e+00 0.000000e+00
    outer loop
      vertex   -2.300000e+01 0.000000e+00 -2.800000e+01
      vertex   -1.900000e+01 0.000000e+00 -2.500000e+01
      vertex   -2.000000e+01 0.000000e+00 -2.400000e+01
    endloop
  endfacet
  facet normal 0.000000e+00 -1.000000e+00 0.000000e+00
    outer loop
      vertex   -2.500000e+01 0.000000e+00 -2.600000e+01
      vertex   -2.000000e+01 0.000000e+00 -2.400000e+01
      vertex   -2.500000e+01 0.000000e+00 -2.000000e+01
    endloop
  endfacet
  facet normal 0.000000e+00 -1.000000e+00 0.000000e+00
    outer loop
      vertex   -2.500000e+01 0.000000e+00 -2.600000e+01
      vertex   -2.300000e+01 0.000000e+00 -2.800000e+01
      vertex   -2.000000e+01 0.000000e+00 -2.400000e+01
    endloop
  endfacet
  facet normal 0.000000e+00 -1.000000e+00 0.000000e+00
    outer loop
      vertex   -5.000000e+00 0.000000e+00 -2.400000e+01
      vertex   5.000000e+00 0.000000e+00 -2.400000e+01
      vertex   0.000000e+00 0.000000e+00 -1.900000e+01
    endloop
  endfacet
  facet normal 0.000000e+00 -1.000000e+00 0.000000e+00
    outer loop
      vertex   -5.000000e+00 0.000000e+00 -2.200000e+01
      vertex   0.000000e+00 0.000000e+00 -1.900000e+01
      vertex   -7.500000e+00 0.000000e+00 -1.900000e+01
    endloop
  endfacet
  facet normal -0.000000e+00 -1.000000e+00 0.000000e+00
    outer loop
      vertex   -7.300000e+00 0.000000e+00 -2.200000e+01
      vertex   -7.500000e+00 0.000000e+00 -1.900000e+01
      vertex   -8.000000e+00 0.000000e+00 -1.950000e+01
    endloop
  endfacet
  facet normal 0.000000e+00 -1.000000e+00 0.000000e+00
    outer loop
      vertex   -8.000000e+00 0.000000e+00 -2.130000e+01
      vertex   -7.300000e+00 0.000000e+00 -2.200000e+01
      vertex   -8.000000e+00 0.000000e+00 -1.950000e+01
    endloop
  endfacet
  facet normal -0.000000e+00 -1.000000e+00 0.000000e+00
    outer loop
      vertex   7.300000e+00 0.000000e+00 -2.200000e+01
      vertex   7.500000e+00 0.000000e+00 -1.900000e+01
      vertex   5.000000e+00 0.000000e+00 -2.200000e+01
    endloop
  endfacet
  facet normal 0.000000e+00 -1.000000e+00 0.000000e+00
    outer loop
      vertex   7.300000e+00 0.000000e+00 -2.200000e+01
      vertex   8.000000e+00 0.000000e+00 -1.950000e+01
      vertex   7.500000e+00 0.000000e+00 -1.900000e+01
    endloop
  endfacet
  facet normal 0.000000e+00 -1.000000e+00 0.000000e+00
    outer loop
      vertex   7.300000e+00 0.000000e+00 -2.200000e+01
      vertex   8.000000e+00 0.000000e+00 -2.130000e+01
      vertex   8.000000e+00 0.000000e+00 -1.950000e+01
    endloop
  endfacet
  facet normal -0.000000e+00 -1.000000e+00 -0.000000e+00
    outer loop
      vertex   7.500000e+00 0.000000e+00 -1.900000e+01
      vertex   0.000000e+00 0.000000e+00 -1.900000e+01
      vertex   5.000000e+00 0.000000e+00 -2.200000e+01
    endloop
  endfacet
  facet normal -0.000000e+00 -1.000000e+00 -0.000000e+00
    outer loop
      vertex   5.000000e+00 0.000000e+00 -2.200000e+01
      vertex   0.000000e+00 0.000000e+00 -1.900000e+01
      vertex   5.000000e+00 0.000000e+00 -2.400000e+01
    endloop
  endfacet
  facet normal -0.000000e+00 -1.000000e+00 0.000000e+00
    outer loop
      vertex   -5.000000e+00 0.000000e+00 -2.400000e+01
      vertex   0.000000e+00 0.000000e+00 -1.900000e+01
      vertex   -5.000000e+00 0.000000e+00 -2.200000e+01
    endloop
  endfacet
  facet normal -0.000000e+00 -1.000000e+00 -0.000000e+00
    outer loop
      vertex   -5.000000e+00 0.000000e+00 -2.200000e+01
      vertex   -7.500000e+00 0.000000e+00 -1.900000e+01
      vertex   -7.300000e+00 0.000000e+00 -2.200000e+01
    endloop
  endfacet
  facet normal -0.000000e+00 -1.000000e+00 0.000000e+00
    outer loop
      vertex   -1.379037e+01 0.000000e+00 -2.800000e+01
      vertex   -1.900000e+01 0.000000e+00 -2.500000e+01
      vertex   -2.300000e+01 0.000000e+00 -2.800000e+01
    endloop
  endfacet
  facet normal 0.000000e+00 -1.000000e+00 0.000000e+00
    outer loop
      vertex   -2.000000e+01 0.000000e+00 -2.400000e+01
      vertex   -2.000000e+01 0.000000e+00 -2.200000e+01
      vertex   -2.500000e+01 0.000000e+00 -2.000000e+01
    endloop
  endfacet
  facet normal 0.000000e+00 -1.000000e+00 0.000000e+00
    outer loop
      vertex   -2.500000e+01 0.000000e+00 -2.000000e+01
      vertex   -2.000000e+01 0.000000e+00 -2.200000e+01
      vertex   -2.400000e+01 0.000000e+00 -1.900000e+01
    endloop
  endfacet
  facet normal 0.000000e+00 -1.000000e+00 0.000000e+00
    outer loop
      vertex   -2.400000e+01 0.000000e+00 -1.900000e+01
      vertex   -2.000000e+01 0.000000e+00 -2.200000e+01
      vertex   -1.750000e+01 0.000000e+00 -1.900000e+01
    endloop
  endfacet
  facet normal 0.000000e+00 -1.000000e+00 -0.000000e+00
    outer loop
      vertex   -1.750000e+01 0.000000e+00 -1.900000e+01
      vertex   -2.000000e+01 0.000000e+00 -2.200000e+01
      vertex   -1.700000e+01 0.000000e+00 -1.950000e+01
    endloop
  endfacet
  facet normal 0.000000e+00 -1.000000e+00 -0.000000e+00
    outer loop
      vertex   -1.700000e+01 0.000000e+00 -1.950000e+01
      vertex   -2.000000e+01 0.000000e+00 -2.200000e+01
      vertex   -1.700000e+01 0.000000e+00 -2.130000e+01
    endloop
  endfacet
  facet normal 0.000000e+00 -1.000000e+00 -0.000000e+00
    outer loop
      vertex   -1.700000e+01 0.000000e+00 -2.130000e+01
      vertex   -2.000000e+01 0.000000e+00 -2.200000e+01
      vertex   -1.770000e+01 0.000000e+00 -2.200000e+01
    endloop
  endfacet
  facet normal -7.071068e-01 9.489570e-17 -7.071068e-01
    outer loop
      vertex   -8.000000e+00 1.300000e+01 -2.130000e+01
      vertex   -7.300000e+00 1.300000e+01 -2.200000e+01
      vertex   -8.000000e+00 6.500000e+00 -2.130000e+01
    endloop
  endfacet
  facet normal -7.071068e-01 -0.000000e+00 -7.071068e-01
    outer loop
      vertex   -8.000000e+00 6.500000e+00 -2.130000e+01
      vertex   -7.300000e+00 1.300000e+01 -2.200000e+01
      vertex   -7.300000e+00 6.500000e+00 -2.200000e+01
    endloop
  endfacet
  facet normal -7.071068e-01 -0.000000e+00 -7.071068e-01
    outer loop
      vertex   -8.000000e+00 0.000000e+00 -2.130000e+01
      vertex   -7.300000e+00 6.500000e+00 -2.200000e+01
      vertex   -7.300000e+00 0.000000e+00 -2.200000e+01
    endloop
  endfacet
  facet normal -7.071068e-01 0.000000e+00 -7.071068e-01
    outer loop
      vertex   -8.000000e+00 0.000000e+00 -2.130000e+01
      vertex   -8.000000e+00 6.500000e+00 -2.130000e+01
      vertex   -7.300000e+00 6.500000e+00 -2.200000e+01
    endloop
  endfacet
  facet normal 0.000000e+00 -0.000000e+00 -1.000000e+00
    outer loop
      vertex   -7.300000e+00 1.300000e+01 -2.200000e+01
      vertex   -5.000000e+00 1.300000e+01 -2.200000e+01
      vertex   -7.300000e+00 6.500000e+00 -2.200000e+01
    endloop
  endfacet
  facet normal 0.000000e+00 0.000000e+00 -1.000000e+00
    outer loop
      vertex   -7.300000e+00 6.500000e+00 -2.200000e+01
      vertex   -5.000000e+00 1.300000e+01 -2.200000e+01
      vertex   -5.000000e+00 6.500000e+00 -2.200000e+01
    endloop
  endfacet
  facet normal 0.000000e+00 0.000000e+00 -1.000000e+00
    outer loop
      vertex   -7.300000e+00 0.000000e+00 -2.200000e+01
      vertex   -5.000000e+00 6.500000e+00 -2.200000e+01
      vertex   -5.000000e+00 0.000000e+00 -2.200000e+01
    endloop
  endfacet
  facet normal 0.000000e+00 0.000000e+00 -1.000000e+00
    outer loop
      vertex   -7.300000e+00 0.000000e+00 -2.200000e+01
      vertex   -7.300000e+00 6.500000e+00 -2.200000e+01
      vertex   -5.000000e+00 6.500000e+00 -2.200000e+01
    endloop
  endfacet
  facet normal -7.071068e-01 0.000000e+00 7.071068e-01
    outer loop
      vertex   2.000000e+01 1.300000e+01 -2.400000e+01
      vertex   1.900000e+01 1.300000e+01 -2.500000e+01
      vertex   2.000000e+01 6.500000e+00 -2.400000e+01
    endloop
  endfacet
  facet normal -7.071068e-01 3.864843e-16 7.071068e-01
    outer loop
      vertex   2.000000e+01 6.500000e+00 -2.400000e+01
      vertex   1.900000e+01 1.300000e+01 -2.500000e+01
      vertex   1.900000e+01 6.500000e+00 -2.500000e+01
    endloop
  endfacet
  facet normal -7.071068e-01 -3.864843e-16 7.071068e-01
    outer loop
      vertex   2.000000e+01 0.000000e+00 -2.400000e+01
      vertex   1.900000e+01 6.500000e+00 -2.500000e+01
      vertex   1.900000e+01 0.000000e+00 -2.500000e+01
    endloop
  endfacet
  facet normal -7.071068e-01 0.000000e+00 7.071068e-01
    outer loop
      vertex   2.000000e+01 0.000000e+00 -2.400000e+01
      vertex   2.000000e+01 6.500000e+00 -2.400000e+01
      vertex   1.900000e+01 6.500000e+00 -2.500000e+01
    endloop
  endfacet
  facet normal -1.000000e+00 -0.000000e+00 -0.000000e+00
    outer loop
      vertex   2.000000e+01 1.300000e+01 -2.200000e+01
      vertex   2.000000e+01 1.300000e+01 -2.400000e+01
      vertex   2.000000e+01 6.500000e+00 -2.200000e+01
    endloop
  endfacet
  facet normal -1.000000e+00 -0.000000e+00 -0.000000e+00
    outer loop
      vertex   2.000000e+01 6.500000e+00 -2.200000e+01
      vertex   2.000000e+01 1.300000e+01 -2.400000e+01
      vertex   2.000000e+01 6.500000e+00 -2.400000e+01
    endloop
  endfacet
  facet normal -1.000000e+00 -0.000000e+00 -0.000000e+00
    outer loop
      vertex   2.000000e+01 0.000000e+00 -2.200000e+01
      vertex   2.000000e+01 6.500000e+00 -2.400000e+01
      vertex   2.000000e+01 0.000000e+00 -2.400000e+01
    endloop
  endfacet
  facet normal -1.000000e+00 0.000000e+00 0.000000e+00
    outer loop
      vertex   2.000000e+01 0.000000e+00 -2.200000e+01
      vertex   2.000000e+01 6.500000e+00 -2.200000e+01
      vertex   2.000000e+01 6.500000e+00 -2.400000e+01
    endloop
  endfacet
  facet normal -7.071068e-01 -9.662107e-17 7.071068e-01
    outer loop
      vertex   -5.000000e+00 1.300000e+01 -2.400000e+01
      vertex   -6.000000e+00 1.300000e+01 -2.500000e+01
      vertex   -5.000000e+00 6.500000e+00 -2.400000e+01
    endloop
  endfacet
  facet normal -7.071068e-01 1.932421e-16 7.071068e-01
    outer loop
      vertex   -5.000000e+00 6.500000e+00 -2.400000e+01
      vertex   -6.000000e+00 1.300000e+01 -2.500000e+01
      vertex   -6.000000e+00 6.500000e+00 -2.500000e+01
    endloop
  endfacet
  facet normal -7.071068e-01 0.000000e+00 7.071068e-01
    outer loop
      vertex   -5.000000e+00 0.000000e+00 -2.400000e+01
      vertex   -6.000000e+00 6.500000e+00 -2.500000e+01
      vertex   -6.000000e+00 0.000000e+00 -2.500000e+01
    endloop
  endfacet
  facet normal -7.071068e-01 0.000000e+00 7.071068e-01
    outer loop
      vertex   -5.000000e+00 0.000000e+00 -2.400000e+01
      vertex   -5.000000e+00 6.500000e+00 -2.400000e+01
      vertex   -6.000000e+00 6.500000e+00 -2.500000e+01
    endloop
  endfacet
  facet normal -1.000000e+00 -1.366428e-16 -0.000000e+00
    outer loop
      vertex   -5.000000e+00 1.300000e+01 -2.200000e+01
      vertex   -5.000000e+00 1.300000e+01 -2.400000e+01
      vertex   -5.000000e+00 6.500000e+00 -2.200000e+01
    endloop
  endfacet
  facet normal -1.000000e+00 -1.366428e-16 0.000000e+00
    outer loop
      vertex   -5.000000e+00 6.500000e+00 -2.200000e+01
      vertex   -5.000000e+00 1.300000e+01 -2.400000e+01
      vertex   -5.000000e+00 6.500000e+00 -2.400000e+01
    endloop
  endfacet
  facet normal -1.000000e+00 -0.000000e+00 -0.000000e+00
    outer loop
      vertex   -5.000000e+00 0.000000e+00 -2.200000e+01
      vertex   -5.000000e+00 6.500000e+00 -2.400000e+01
      vertex   -5.000000e+00 0.000000e+00 -2.400000e+01
    endloop
  endfacet
  facet normal -1.000000e+00 0.000000e+00 0.000000e+00
    outer loop
      vertex   -5.000000e+00 0.000000e+00 -2.200000e+01
      vertex   -5.000000e+00 6.500000e+00 -2.200000e+01
      vertex   -5.000000e+00 6.500000e+00 -2.400000e+01
    endloop
  endfacet
  facet normal 7.071068e-01 0.000000e+00 7.071068e-01
    outer loop
      vertex   6.000000e+00 1.300000e+01 -2.500000e+01
      vertex   5.000000e+00 1.300000e+01 -2.400000e+01
      vertex   6.000000e+00 6.500000e+00 -2.500000e+01
    endloop
  endfacet
  facet normal 7.071068e-01 0.000000e+00 7.071068e-01
    outer loop
      vertex   6.000000e+00 6.500000e+00 -2.500000e+01
      vertex   5.000000e+00 1.300000e+01 -2.400000e+01
      vertex   5.000000e+00 6.500000e+00 -2.400000e+01
    endloop
  endfacet
  facet normal 7.071068e-01 0.000000e+00 7.071068e-01
    outer loop
      vertex   6.000000e+00 0.000000e+00 -2.500000e+01
      vertex   5.000000e+00 6.500000e+00 -2.400000e+01
      vertex   5.000000e+00 0.000000e+00 -2.400000e+01
    endloop
  endfacet
  facet normal 7.071068e-01 -0.000000e+00 7.071068e-01
    outer loop
      vertex   6.000000e+00 0.000000e+00 -2.500000e+01
      vertex   6.000000e+00 6.500000e+00 -2.500000e+01
      vertex   5.000000e+00 6.500000e+00 -2.400000e+01
    endloop
  endfacet
  facet normal 0.000000e+00 0.000000e+00 1.000000e+00
    outer loop
      vertex   1.900000e+01 1.300000e+01 -2.500000e+01
      vertex   1.250000e+01 1.300000e+01 -2.500000e+01
      vertex   1.900000e+01 6.500000e+00 -2.500000e+01
    endloop
  endfacet
  facet normal 0.000000e+00 0.000000e+00 1.000000e+00
    outer loop
      vertex   1.900000e+01 6.500000e+00 -2.500000e+01
      vertex   1.250000e+01 1.300000e+01 -2.500000e+01
      vertex   1.250000e+01 6.500000e+00 -2.500000e+01
    endloop
  endfacet
  facet normal 0.000000e+00 0.000000e+00 1.000000e+00
    outer loop
      vertex   1.900000e+01 0.000000e+00 -2.500000e+01
      vertex   1.250000e+01 6.500000e+00 -2.500000e+01
      vertex   1.250000e+01 0.000000e+00 -2.500000e+01
    endloop
  endfacet
  facet normal 0.000000e+00 0.000000e+00 1.000000e+00
    outer loop
      vertex   1.900000e+01 0.000000e+00 -2.500000e+01
      vertex   1.900000e+01 6.500000e+00 -2.500000e+01
      vertex   1.250000e+01 6.500000e+00 -2.500000e+01
    endloop
  endfacet
  facet normal 0.000000e+00 0.000000e+00 1.000000e+00
    outer loop
      vertex   1.250000e+01 1.300000e+01 -2.500000e+01
      vertex   6.000000e+00 1.300000e+01 -2.500000e+01
      vertex   1.250000e+01 6.500000e+00 -2.500000e+01
    endloop
  endfacet
  facet normal 0.000000e+00 0.000000e+00 1.000000e+00
    outer loop
      vertex   1.250000e+01 6.500000e+00 -2.500000e+01
      vertex   6.000000e+00 1.300000e+01 -2.500000e+01
      vertex   6.000000e+00 6.500000e+00 -2.500000e+01
    endloop
  endfacet
  facet normal 0.000000e+00 0.000000e+00 1.000000e+00
    outer loop
      vertex   1.250000e+01 0.000000e+00 -2.500000e+01
      vertex   6.000000e+00 6.500000e+00 -2.500000e+01
      vertex   6.000000e+00 0.000000e+00 -2.500000e+01
    endloop
  endfacet
  facet normal 0.000000e+00 -0.000000e+00 1.000000e+00
    outer loop
      vertex   1.250000e+01 0.000000e+00 -2.500000e+01
      vertex   1.250000e+01 6.500000e+00 -2.500000e+01
      vertex   6.000000e+00 6.500000e+00 -2.500000e+01
    endloop
  endfacet
  facet normal 7.071068e-01 0.000000e+00 7.071068e-01
    outer loop
      vertex   8.000000e+00 1.300000e+01 -1.950000e+01
      vertex   7.500000e+00 1.300000e+01 -1.900000e+01
      vertex   8.000000e+00 6.500000e+00 -1.950000e+01
    endloop
  endfacet
  facet normal 7.071068e-01 0.000000e+00 7.071068e-01
    outer loop
      vertex   8.000000e+00 6.500000e+00 -1.950000e+01
      vertex   7.500000e+00 1.300000e+01 -1.900000e+01
      vertex   7.500000e+00 6.500000e+00 -1.900000e+01
    endloop
  endfacet
  facet normal 7.071068e-01 0.000000e+00 7.071068e-01
    outer loop
      vertex   8.000000e+00 0.000000e+00 -1.950000e+01
      vertex   7.500000e+00 6.500000e+00 -1.900000e+01
      vertex   7.500000e+00 0.000000e+00 -1.900000e+01
    endloop
  endfacet
  facet normal 7.071068e-01 -0.000000e+00 7.071068e-01
    outer loop
      vertex   8.000000e+00 0.000000e+00 -1.950000e+01
      vertex   8.000000e+00 6.500000e+00 -1.950000e+01
      vertex   7.500000e+00 6.500000e+00 -1.900000e+01
    endloop
  endfacet
  facet normal 1.000000e+00 0.000000e+00 -0.000000e+00
    outer loop
      vertex   8.000000e+00 1.300000e+01 -2.130000e+01
      vertex   8.000000e+00 1.300000e+01 -1.950000e+01
      vertex   8.000000e+00 6.500000e+00 -2.130000e+01
    endloop
  endfacet
  facet normal 1.000000e+00 0.000000e+00 -0.000000e+00
    outer loop
      vertex   8.000000e+00 6.500000e+00 -2.130000e+01
      vertex   8.000000e+00 1.300000e+01 -1.950000e+01
      vertex   8.000000e+00 6.500000e+00 -1.950000e+01
    endloop
  endfacet
  facet normal 1.000000e+00 0.000000e+00 -0.000000e+00
    outer loop
      vertex   8.000000e+00 0.000000e+00 -2.130000e+01
      vertex   8.000000e+00 6.500000e+00 -1.950000e+01
      vertex   8.000000e+00 0.000000e+00 -1.950000e+01
    endloop
  endfacet
  facet normal 1.000000e+00 0.000000e+00 0.000000e+00
    outer loop
      vertex   8.000000e+00 0.000000e+00 -2.130000e+01
      vertex   8.000000e+00 6.500000e+00 -2.130000e+01
      vertex   8.000000e+00 6.500000e+00 -1.950000e+01
    endloop
  endfacet
  facet normal -7.071068e-01 0.000000e+00 7.071068e-01
    outer loop
      vertex   -7.500000e+00 1.300000e+01 -1.900000e+01
      vertex   -8.000000e+00 1.300000e+01 -1.950000e+01
      vertex   -7.500000e+00 6.500000e+00 -1.900000e+01
    endloop
  endfacet
  facet normal -7.071068e-01 9.662107e-17 7.071068e-01
    outer loop
      vertex   -7.500000e+00 6.500000e+00 -1.900000e+01
      vertex   -8.000000e+00 1.300000e+01 -1.950000e+01
      vertex   -8.000000e+00 6.500000e+00 -1.950000e+01
    endloop
  endfacet
  facet normal -7.071068e-01 0.000000e+00 7.071068e-01
    outer loop
      vertex   -7.500000e+00 0.000000e+00 -1.900000e+01
      vertex   -8.000000e+00 6.500000e+00 -1.950000e+01
      vertex   -8.000000e+00 0.000000e+00 -1.950000e+01
    endloop
  endfacet
  facet normal -7.071068e-01 0.000000e+00 7.071068e-01
    outer loop
      vertex   -7.500000e+00 0.000000e+00 -1.900000e+01
      vertex   -7.500000e+00 6.500000e+00 -1.900000e+01
      vertex   -8.000000e+00 6.500000e+00 -1.950000e+01
    endloop
  endfacet
  facet normal -1.000000e+00 1.366428e-16 0.000000e+00
    outer loop
      vertex   -8.000000e+00 1.300000e+01 -1.950000e+01
      vertex   -8.000000e+00 1.300000e+01 -2.130000e+01
      vertex   -8.000000e+00 6.500000e+00 -1.950000e+01
    endloop
  endfacet
  facet normal -1.000000e+00 1.366428e-16 0.000000e+00
    outer loop
      vertex   -8.000000e+00 6.500000e+00 -1.950000e+01
      vertex   -8.000000e+00 1.300000e+01 -2.130000e+01
      vertex   -8.000000e+00 6.500000e+00 -2.130000e+01
    endloop
  endfacet
  facet normal -1.000000e+00 -0.000000e+00 -0.000000e+00
    outer loop
      vertex   -8.000000e+00 0.000000e+00 -1.950000e+01
      vertex   -8.000000e+00 6.500000e+00 -2.130000e+01
      vertex   -8.000000e+00 0.000000e+00 -2.130000e+01
    endloop
  endfacet
  facet normal -1.000000e+00 0.000000e+00 0.000000e+00
    outer loop
      vertex   -8.000000e+00 0.000000e+00 -1.950000e+01
      vertex   -8.000000e+00 6.500000e+00 -1.950000e+01
      vertex   -8.000000e+00 6.500000e+00 -2.130000e+01
    endloop
  endfacet
  facet normal 0.000000e+00 0.000000e+00 1.000000e+00
    outer loop
      vertex   -6.000000e+00 1.300000e+01 -2.500000e+01
      vertex   -1.250000e+01 1.300000e+01 -2.500000e+01
      vertex   -6.000000e+00 6.500000e+00 -2.500000e+01
    endloop
  endfacet
  facet normal 0.000000e+00 0.000000e+00 1.000000e+00
    outer loop
      vertex   -6.000000e+00 6.500000e+00 -2.500000e+01
      vertex   -1.250000e+01 1.300000e+01 -2.500000e+01
      vertex   -1.250000e+01 6.500000e+00 -2.500000e+01
    endloop
  endfacet
  facet normal 0.000000e+00 0.000000e+00 1.000000e+00
    outer loop
      vertex   -6.000000e+00 0.000000e+00 -2.500000e+01
      vertex   -1.250000e+01 6.500000e+00 -2.500000e+01
      vertex   -1.250000e+01 0.000000e+00 -2.500000e+01
    endloop
  endfacet
  facet normal 0.000000e+00 -0.000000e+00 1.000000e+00
    outer loop
      vertex   -6.000000e+00 0.000000e+00 -2.500000e+01
      vertex   -6.000000e+00 6.500000e+00 -2.500000e+01
      vertex   -1.250000e+01 6.500000e+00 -2.500000e+01
    endloop
  endfacet
  facet normal 0.000000e+00 0.000000e+00 1.000000e+00
    outer loop
      vertex   -1.250000e+01 1.300000e+01 -2.500000e+01
      vertex   -1.900000e+01 1.300000e+01 -2.500000e+01
      vertex   -1.250000e+01 6.500000e+00 -2.500000e+01
    endloop
  endfacet
  facet normal 0.000000e+00 0.000000e+00 1.000000e+00
    outer loop
      vertex   -1.250000e+01 6.500000e+00 -2.500000e+01
      vertex   -1.900000e+01 1.300000e+01 -2.500000e+01
      vertex   -1.900000e+01 6.500000e+00 -2.500000e+01
    endloop
  endfacet
  facet normal 0.000000e+00 0.000000e+00 1.000000e+00
    outer loop
      vertex   -1.250000e+01 0.000000e+00 -2.500000e+01
      vertex   -1.900000e+01 6.500000e+00 -2.500000e+01
      vertex   -1.900000e+01 0.000000e+00 -2.500000e+01
    endloop
  endfacet
  facet normal 0.000000e+00 -0.000000e+00 1.000000e+00
    outer loop
      vertex   -1.250000e+01 0.000000e+00 -2.500000e+01
      vertex   -1.250000e+01 6.500000e+00 -2.500000e+01
      vertex   -1.900000e+01 6.500000e+00 -2.500000e+01
    endloop
  endfacet
  facet normal 0.000000e+00 0.000000e+00 1.000000e+00
    outer loop
      vertex   7.500000e+00 1.300000e+01 -1.900000e+01
      vertex   0.000000e+00 1.300000e+01 -1.900000e+01
      vertex   7.500000e+00 6.500000e+00 -1.900000e+01
    endloop
  endfacet
  facet normal 0.000000e+00 0.000000e+00 1.000000e+00
    outer loop
      vertex   7.500000e+00 6.500000e+00 -1.900000e+01
      vertex   0.000000e+00 1.300000e+01 -1.900000e+01
      vertex   0.000000e+00 6.500000e+00 -1.900000e+01
    endloop
  endfacet
  facet normal 0.000000e+00 0.000000e+00 1.000000e+00
    outer loop
      vertex   7.500000e+00 0.000000e+00 -1.900000e+01
      vertex   0.000000e+00 6.500000e+00 -1.900000e+01
      vertex   0.000000e+00 0.000000e+00 -1.900000e+01
    endloop
  endfacet
  facet normal 0.000000e+00 -0.000000e+00 1.000000e+00
    outer loop
      vertex   7.500000e+00 0.000000e+00 -1.900000e+01
      vertex   7.500000e+00 6.500000e+00 -1.900000e+01
      vertex   0.000000e+00 6.500000e+00 -1.900000e+01
    endloop
  endfacet
  facet normal 0.000000e+00 0.000000e+00 1.000000e+00
    outer loop
      vertex   0.000000e+00 1.300000e+01 -1.900000e+01
      vertex   -7.500000e+00 1.300000e+01 -1.900000e+01
      vertex   0.000000e+00 6.500000e+00 -1.900000e+01
    endloop
  endfacet
  facet normal 0.000000e+00 0.000000e+00 1.000000e+00
    outer loop
      vertex   0.000000e+00 6.500000e+00 -1.900000e+01
      vertex   -7.500000e+00 1.300000e+01 -1.900000e+01
      vertex   -7.500000e+00 6.500000e+00 -1.900000e+01
    endloop
  endfacet
  facet normal 0.000000e+00 0.000000e+00 1.000000e+00
    outer loop
      vertex   0.000000e+00 0.000000e+00 -1.900000e+01
      vertex   -7.500000e+00 6.500000e+00 -1.900000e+01
      vertex   -7.500000e+00 0.000000e+00 -1.900000e+01
    endloop
  endfacet
  facet normal 0.000000e+00 -0.000000e+00 1.000000e+00
    outer loop
      vertex   0.000000e+00 0.000000e+00 -1.900000e+01
      vertex   0.000000e+00 6.500000e+00 -1.900000e+01
      vertex   -7.500000e+00 6.500000e+00 -1.900000e+01
    endloop
  endfacet
  facet normal 1.000000e+00 0.000000e+00 -0.000000e+00
    outer loop
      vertex   5.000000e+00 1.300000e+01 -2.400000e+01
      vertex   5.000000e+00 1.300000e+01 -2.200000e+01
      vertex   5.000000e+00 6.500000e+00 -2.400000e+01
    endloop
  endfacet
  facet normal 1.000000e+00 0.000000e+00 -0.000000e+00
    outer loop
      vertex   5.000000e+00 6.500000e+00 -2.400000e+01
      vertex   5.000000e+00 1.300000e+01 -2.200000e+01
      vertex   5.000000e+00 6.500000e+00 -2.200000e+01
    endloop
  endfacet
  facet normal 1.000000e+00 0.000000e+00 -0.000000e+00
    outer loop
      vertex   5.000000e+00 0.000000e+00 -2.400000e+01
      vertex   5.000000e+00 6.500000e+00 -2.200000e+01
      vertex   5.000000e+00 0.000000e+00 -2.200000e+01
    endloop
  endfacet
  facet normal 1.000000e+00 0.000000e+00 0.000000e+00
    outer loop
      vertex   5.000000e+00 0.000000e+00 -2.400000e+01
      vertex   5.000000e+00 6.500000e+00 -2.400000e+01
      vertex   5.000000e+00 6.500000e+00 -2.200000e+01
    endloop
  endfacet
endsolid
