solid ascii
  facet normal -0.000000e+00 1.000000e+00 -0.000000e+00
    outer loop
      vertex   -1.900000e+01 9.999992e+00 -1.900000e+01
      vertex   -2.000000e+01 9.999992e+00 -1.800000e+01
      vertex   -1.650000e+01 9.999992e+00 -1.900000e+01
    endloop
  endfacet
  facet normal 0.000000e+00 1.000000e+00 -0.000000e+00
    outer loop
      vertex   -1.650000e+01 9.999992e+00 -1.900000e+01
      vertex   -2.000000e+01 9.999992e+00 -1.800000e+01
      vertex   -2.000000e+01 9.999992e+00 -1.450000e+01
    endloop
  endfacet
  facet normal 0.000000e+00 1.000000e+00 0.000000e+00
    outer loop
      vertex   -1.000000e+01 9.999992e+00 -1.450000e+01
      vertex   -1.650000e+01 9.999992e+00 -1.900000e+01
      vertex   -2.000000e+01 9.999992e+00 -1.450000e+01
    endloop
  endfacet
  facet normal 0.000000e+00 1.000000e+00 0.000000e+00
    outer loop
      vertex   -1.000000e+01 9.999992e+00 -1.450000e+01
      vertex   -8.500000e+00 9.999992e+00 -1.900000e+01
      vertex   -1.650000e+01 9.999992e+00 -1.900000e+01
    endloop
  endfacet
  facet normal 0.000000e+00 1.000000e+00 0.000000e+00
    outer loop
      vertex   -1.000000e+01 9.999992e+00 -1.450000e+01
      vertex   -5.000000e+00 9.999992e+00 -1.750000e+01
      vertex   -8.500000e+00 9.999992e+00 -1.900000e+01
    endloop
  endfacet
  facet normal -0.000000e+00 1.000000e+00 0.000000e+00
    outer loop
      vertex   -1.000000e+01 9.999992e+00 -1.450000e+01
      vertex   0.000000e+00 9.999992e+00 -1.450000e+01
      vertex   -5.000000e+00 9.999992e+00 -1.750000e+01
    endloop
  endfacet
  facet normal -0.000000e+00 1.000000e+00 0.000000e+00
    outer loop
      vertex   -5.000000e+00 9.999992e+00 -1.750000e+01
      vertex   0.000000e+00 9.999992e+00 -1.450000e+01
      vertex   5.000000e+00 9.999992e+00 -1.750000e+01
    endloop
  endfacet
  facet normal 0.000000e+00 1.000000e+00 -0.000000e+00
    outer loop
      vertex   5.000000e+00 9.999992e+00 -1.750000e+01
      vertex   0.000000e+00 9.999992e+00 -1.450000e+01
      vertex   1.000000e+01 9.999992e+00 -1.450000e+01
    endloop
  endfacet
  facet normal -0.000000e+00 1.000000e+00 0.000000e+00
    outer loop
      vertex   8.500000e+00 9.999992e+00 -1.900000e+01
      vertex   1.000000e+01 9.999992e+00 -1.450000e+01
      vertex   1.650000e+01 9.999992e+00 -1.900000e+01
    endloop
  endfacet
  facet normal -0.000000e+00 1.000000e+00 0.000000e+00
    outer loop
      vertex   8.500000e+00 9.999992e+00 -2.100000e+01
      vertex   1.650000e+01 9.999992e+00 -1.900000e+01
      vertex   1.650000e+01 9.999992e+00 -2.100000e+01
    endloop
  endfacet
  facet normal -0.000000e+00 1.000000e+00 -0.000000e+00
    outer loop
      vertex   1.800000e+01 9.999992e+00 -2.400000e+01
      vertex   1.650000e+01 9.999992e+00 -2.100000e+01
      vertex   1.850000e+01 9.999992e+00 -2.300000e+01
    endloop
  endfacet
  facet normal 0.000000e+00 1.000000e+00 -0.000000e+00
    outer loop
      vertex   1.850000e+01 9.999992e+00 -2.350000e+01
      vertex   1.800000e+01 9.999992e+00 -2.400000e+01
      vertex   1.850000e+01 9.999992e+00 -2.300000e+01
    endloop
  endfacet
  facet normal 0.000000e+00 1.000000e+00 0.000000e+00
    outer loop
      vertex   1.000000e+01 9.999992e+00 -1.450000e+01
      vertex   2.000000e+01 9.999992e+00 -1.450000e+01
      vertex   1.650000e+01 9.999992e+00 -1.900000e+01
    endloop
  endfacet
  facet normal -0.000000e+00 1.000000e+00 0.000000e+00
    outer loop
      vertex   1.650000e+01 9.999992e+00 -1.900000e+01
      vertex   2.000000e+01 9.999992e+00 -1.450000e+01
      vertex   2.000000e+01 9.999992e+00 -1.800000e+01
    endloop
  endfacet
  facet normal 0.000000e+00 1.000000e+00 -0.000000e+00
    outer loop
      vertex   1.900000e+01 9.999992e+00 -1.900000e+01
      vertex   1.650000e+01 9.999992e+00 -1.900000e+01
      vertex   2.000000e+01 9.999992e+00 -1.800000e+01
    endloop
  endfacet
  facet normal -0.000000e+00 1.000000e+00 0.000000e+00
    outer loop
      vertex   8.500000e+00 9.999992e+00 -1.900000e+01
      vertex   1.650000e+01 9.999992e+00 -1.900000e+01
      vertex   8.500000e+00 9.999992e+00 -2.100000e+01
    endloop
  endfacet
  facet normal 0.000000e+00 1.000000e+00 0.000000e+00
    outer loop
      vertex   8.500000e+00 9.999992e+00 -2.100000e+01
      vertex   1.650000e+01 9.999992e+00 -2.100000e+01
      vertex   1.800000e+01 9.999992e+00 -2.400000e+01
    endloop
  endfacet
  facet normal -0.000000e+00 1.000000e+00 0.000000e+00
    outer loop
      vertex   7.000000e+00 9.999992e+00 -2.400000e+01
      vertex   8.500000e+00 9.999992e+00 -2.100000e+01
      vertex   1.800000e+01 9.999992e+00 -2.400000e+01
    endloop
  endfacet
  facet normal 0.000000e+00 1.000000e+00 -0.000000e+00
    outer loop
      vertex   7.000000e+00 9.999992e+00 -2.400000e+01
      vertex   6.500001e+00 9.999992e+00 -2.300000e+01
      vertex   8.500000e+00 9.999992e+00 -2.100000e+01
    endloop
  endfacet
  facet normal 0.000000e+00 1.000000e+00 -0.000000e+00
    outer loop
      vertex   7.000000e+00 9.999992e+00 -2.400000e+01
      vertex   6.500001e+00 9.999992e+00 -2.350000e+01
      vertex   6.500001e+00 9.999992e+00 -2.300000e+01
    endloop
  endfacet
  facet normal 0.000000e+00 1.000000e+00 0.000000e+00
    outer loop
      vertex   1.000000e+01 9.999992e+00 -1.450000e+01
      vertex   8.500000e+00 9.999992e+00 -1.900000e+01
      vertex   5.000000e+00 9.999992e+00 -1.750000e+01
    endloop
  endfacet
  facet normal 0.000000e+00 1.000000e+00 0.000000e+00
    outer loop
      vertex   5.000000e+00 9.999992e+00 -1.750000e+01
      vertex   8.500000e+00 9.999992e+00 -1.900000e+01
      vertex   6.000000e+00 9.999992e+00 -1.900000e+01
    endloop
  endfacet
  facet normal -0.000000e+00 1.000000e+00 0.000000e+00
    outer loop
      vertex   5.000000e+00 9.999992e+00 -1.800000e+01
      vertex   5.000000e+00 9.999992e+00 -1.750000e+01
      vertex   6.000000e+00 9.999992e+00 -1.900000e+01
    endloop
  endfacet
  facet normal 0.000000e+00 1.000000e+00 -0.000000e+00
    outer loop
      vertex   -5.000000e+00 9.999992e+00 -1.800000e+01
      vertex   -6.000000e+00 9.999992e+00 -1.900000e+01
      vertex   -5.000000e+00 9.999992e+00 -1.750000e+01
    endloop
  endfacet
  facet normal 0.000000e+00 1.000000e+00 0.000000e+00
    outer loop
      vertex   -5.000000e+00 9.999992e+00 -1.750000e+01
      vertex   -6.000000e+00 9.999992e+00 -1.900000e+01
      vertex   -8.500000e+00 9.999992e+00 -1.900000e+01
    endloop
  endfacet
  facet normal -0.000000e+00 1.000000e+00 0.000000e+00
    outer loop
      vertex   -1.650000e+01 9.999992e+00 -1.900000e+01
      vertex   -8.500000e+00 9.999992e+00 -1.900000e+01
      vertex   -1.650000e+01 9.999992e+00 -2.100000e+01
    endloop
  endfacet
  facet normal -0.000000e+00 1.000000e+00 0.000000e+00
    outer loop
      vertex   -1.650000e+01 9.999992e+00 -2.100000e+01
      vertex   -8.500000e+00 9.999992e+00 -1.900000e+01
      vertex   -8.500000e+00 9.999992e+00 -2.100000e+01
    endloop
  endfacet
  facet normal -0.000000e+00 1.000000e+00 0.000000e+00
    outer loop
      vertex   -1.800000e+01 9.999992e+00 -2.400000e+01
      vertex   -8.500000e+00 9.999992e+00 -2.100000e+01
      vertex   -7.000000e+00 9.999992e+00 -2.400000e+01
    endloop
  endfacet
  facet normal -0.000000e+00 1.000000e+00 0.000000e+00
    outer loop
      vertex   -1.800000e+01 9.999992e+00 -2.400000e+01
      vertex   -1.650000e+01 9.999992e+00 -2.100000e+01
      vertex   -8.500000e+00 9.999992e+00 -2.100000e+01
    endloop
  endfacet
  facet normal 0.000000e+00 1.000000e+00 -0.000000e+00
    outer loop
      vertex   -1.800000e+01 9.999992e+00 -2.400000e+01
      vertex   -1.850000e+01 9.999992e+00 -2.300000e+01
      vertex   -1.650000e+01 9.999992e+00 -2.100000e+01
    endloop
  endfacet
  facet normal 0.000000e+00 1.000000e+00 -0.000000e+00
    outer loop
      vertex   -1.800000e+01 9.999992e+00 -2.400000e+01
      vertex   -1.850000e+01 9.999992e+00 -2.350000e+01
      vertex   -1.850000e+01 9.999992e+00 -2.300000e+01
    endloop
  endfacet
  facet normal 0.000000e+00 1.000000e+00 0.000000e+00
    outer loop
      vertex   -8.500000e+00 9.999992e+00 -2.100000e+01
      vertex   -6.500000e+00 9.999992e+00 -2.300000e+01
      vertex   -7.000000e+00 9.999992e+00 -2.400000e+01
    endloop
  endfacet
  facet normal -0.000000e+00 1.000000e+00 0.000000e+00
    outer loop
      vertex   -7.000000e+00 9.999992e+00 -2.400000e+01
      vertex   -6.500000e+00 9.999992e+00 -2.300000e+01
      vertex   -6.500000e+00 9.999992e+00 -2.350000e+01
    endloop
  endfacet
  facet normal 1.000000e+00 0.000000e+00 -0.000000e+00
    outer loop
      vertex   -8.500000e+00 9.999992e+00 -2.100000e+01
      vertex   -8.500000e+00 9.999992e+00 -1.900000e+01
      vertex   -8.500000e+00 4.999971e-01 -2.100000e+01
    endloop
  endfacet
  facet normal 1.000000e+00 0.000000e+00 -0.000000e+00
    outer loop
      vertex   -8.500000e+00 4.999971e-01 -2.100000e+01
      vertex   -8.500000e+00 9.999992e+00 -1.900000e+01
      vertex   -8.500000e+00 4.999971e-01 -1.900000e+01
    endloop
  endfacet
  facet normal 0.000000e+00 -0.000000e+00 -1.000000e+00
    outer loop
      vertex   -8.500000e+00 9.999992e+00 -1.900000e+01
      vertex   -6.000000e+00 9.999992e+00 -1.900000e+01
      vertex   -8.500000e+00 4.999971e-01 -1.900000e+01
    endloop
  endfacet
  facet normal 0.000000e+00 -0.000000e+00 -1.000000e+00
    outer loop
      vertex   -8.500000e+00 4.999971e-01 -1.900000e+01
      vertex   -6.000000e+00 9.999992e+00 -1.900000e+01
      vertex   -6.000000e+00 -2.861023e-06 -1.900000e+01
    endloop
  endfacet
  facet normal 0.000000e+00 0.000000e+00 -1.000000e+00
    outer loop
      vertex   -9.000000e+00 -2.861023e-06 -1.900000e+01
      vertex   -8.500000e+00 4.999971e-01 -1.900000e+01
      vertex   -6.000000e+00 -2.861023e-06 -1.900000e+01
    endloop
  endfacet
  facet normal 7.071068e-01 -6.280373e-17 -7.071068e-01
    outer loop
      vertex   -6.000000e+00 9.999992e+00 -1.900000e+01
      vertex   -5.000000e+00 9.999992e+00 -1.800000e+01
      vertex   -6.000000e+00 -2.861023e-06 -1.900000e+01
    endloop
  endfacet
  facet normal 7.071068e-01 0.000000e+00 -7.071068e-01
    outer loop
      vertex   -6.000000e+00 -2.861023e-06 -1.900000e+01
      vertex   -5.000000e+00 9.999992e+00 -1.800000e+01
      vertex   -5.000000e+00 -2.861023e-06 -1.800000e+01
    endloop
  endfacet
  facet normal 1.000000e+00 0.000000e+00 -0.000000e+00
    outer loop
      vertex   -5.000000e+00 9.999992e+00 -1.800000e+01
      vertex   -5.000000e+00 9.999992e+00 -1.750000e+01
      vertex   -5.000000e+00 -2.861023e-06 -1.800000e+01
    endloop
  endfacet
  facet normal 1.000000e+00 0.000000e+00 -0.000000e+00
    outer loop
      vertex   -5.000000e+00 -2.861023e-06 -1.800000e+01
      vertex   -5.000000e+00 9.999992e+00 -1.750000e+01
      vertex   -5.000000e+00 -2.861023e-06 -1.750000e+01
    endloop
  endfacet
  facet normal 0.000000e+00 -0.000000e+00 -1.000000e+00
    outer loop
      vertex   -5.000000e+00 9.999992e+00 -1.750000e+01
      vertex   5.000000e+00 9.999992e+00 -1.750000e+01
      vertex   -5.000000e+00 -2.861023e-06 -1.750000e+01
    endloop
  endfacet
  facet normal 0.000000e+00 0.000000e+00 -1.000000e+00
    outer loop
      vertex   -5.000000e+00 -2.861023e-06 -1.750000e+01
      vertex   5.000000e+00 9.999992e+00 -1.750000e+01
      vertex   5.000000e+00 -2.861023e-06 -1.750000e+01
    endloop
  endfacet
  facet normal -1.000000e+00 -0.000000e+00 -0.000000e+00
    outer loop
      vertex   5.000000e+00 9.999992e+00 -1.750000e+01
      vertex   5.000000e+00 9.999992e+00 -1.800000e+01
      vertex   5.000000e+00 -2.861023e-06 -1.750000e+01
    endloop
  endfacet
  facet normal -1.000000e+00 -0.000000e+00 -0.000000e+00
    outer loop
      vertex   5.000000e+00 -2.861023e-06 -1.750000e+01
      vertex   5.000000e+00 9.999992e+00 -1.800000e+01
      vertex   5.000000e+00 -2.861023e-06 -1.800000e+01
    endloop
  endfacet
  facet normal -7.071068e-01 0.000000e+00 -7.071068e-01
    outer loop
      vertex   5.000000e+00 9.999992e+00 -1.800000e+01
      vertex   6.000000e+00 9.999992e+00 -1.900000e+01
      vertex   5.000000e+00 -2.861023e-06 -1.800000e+01
    endloop
  endfacet
  facet normal -7.071068e-01 -0.000000e+00 -7.071068e-01
    outer loop
      vertex   5.000000e+00 -2.861023e-06 -1.800000e+01
      vertex   6.000000e+00 9.999992e+00 -1.900000e+01
      vertex   6.000000e+00 -2.861023e-06 -1.900000e+01
    endloop
  endfacet
  facet normal -0.000000e+00 -0.000000e+00 -1.000000e+00
    outer loop
      vertex   8.500000e+00 9.999992e+00 -1.900000e+01
      vertex   8.500000e+00 4.999971e-01 -1.900000e+01
      vertex   6.000000e+00 9.999992e+00 -1.900000e+01
    endloop
  endfacet
  facet normal 0.000000e+00 -0.000000e+00 -1.000000e+00
    outer loop
      vertex   6.000000e+00 9.999992e+00 -1.900000e+01
      vertex   8.500000e+00 4.999971e-01 -1.900000e+01
      vertex   6.000000e+00 -2.861023e-06 -1.900000e+01
    endloop
  endfacet
  facet normal 0.000000e+00 0.000000e+00 -1.000000e+00
    outer loop
      vertex   6.000000e+00 -2.861023e-06 -1.900000e+01
      vertex   8.500000e+00 4.999971e-01 -1.900000e+01
      vertex   9.000000e+00 -2.861023e-06 -1.900000e+01
    endloop
  endfacet
  facet normal -1.000000e+00 -0.000000e+00 -0.000000e+00
    outer loop
      vertex   8.500000e+00 9.999992e+00 -1.900000e+01
      vertex   8.500000e+00 9.999992e+00 -2.100000e+01
      vertex   8.500000e+00 4.999971e-01 -1.900000e+01
    endloop
  endfacet
  facet normal -1.000000e+00 -0.000000e+00 -0.000000e+00
    outer loop
      vertex   8.500000e+00 4.999971e-01 -1.900000e+01
      vertex   8.500000e+00 9.999992e+00 -2.100000e+01
      vertex   8.500000e+00 4.999971e-01 -2.100000e+01
    endloop
  endfacet
  facet normal -7.071070e-01 0.000000e+00 7.071066e-01
    outer loop
      vertex   8.500000e+00 9.999992e+00 -2.100000e+01
      vertex   6.500001e+00 9.999992e+00 -2.300000e+01
      vertex   8.500000e+00 4.999971e-01 -2.100000e+01
    endloop
  endfacet
  facet normal -7.071070e-01 0.000000e+00 7.071066e-01
    outer loop
      vertex   8.500000e+00 4.999971e-01 -2.100000e+01
      vertex   6.500001e+00 9.999992e+00 -2.300000e+01
      vertex   6.500001e+00 4.999971e-01 -2.300000e+01
    endloop
  endfacet
  facet normal -1.000000e+00 0.000000e+00 1.102686e-06
    outer loop
      vertex   6.500001e+00 9.999992e+00 -2.300000e+01
      vertex   6.500001e+00 9.999992e+00 -2.350000e+01
      vertex   6.500001e+00 4.999971e-01 -2.300000e+01
    endloop
  endfacet
  facet normal -1.000000e+00 0.000000e+00 1.102686e-06
    outer loop
      vertex   6.500001e+00 4.999971e-01 -2.300000e+01
      vertex   6.500001e+00 9.999992e+00 -2.350000e+01
      vertex   6.500001e+00 4.999971e-01 -2.350000e+01
    endloop
  endfacet
  facet normal -7.071072e-01 0.000000e+00 -7.071064e-01
    outer loop
      vertex   6.500001e+00 9.999992e+00 -2.350000e+01
      vertex   7.000000e+00 9.999992e+00 -2.400000e+01
      vertex   6.500001e+00 4.999971e-01 -2.350000e+01
    endloop
  endfacet
  facet normal -7.071072e-01 -0.000000e+00 -7.071064e-01
    outer loop
      vertex   6.500001e+00 4.999971e-01 -2.350000e+01
      vertex   7.000000e+00 9.999992e+00 -2.400000e+01
      vertex   7.000000e+00 4.999971e-01 -2.400000e+01
    endloop
  endfacet
  facet normal 0.000000e+00 -0.000000e+00 -1.000000e+00
    outer loop
      vertex   7.000000e+00 9.999992e+00 -2.400000e+01
      vertex   1.800000e+01 9.999992e+00 -2.400000e+01
      vertex   7.000000e+00 4.999971e-01 -2.400000e+01
    endloop
  endfacet
  facet normal 0.000000e+00 0.000000e+00 -1.000000e+00
    outer loop
      vertex   7.000000e+00 4.999971e-01 -2.400000e+01
      vertex   1.800000e+01 9.999992e+00 -2.400000e+01
      vertex   1.800000e+01 4.999971e-01 -2.400000e+01
    endloop
  endfacet
  facet normal 7.071068e-01 0.000000e+00 -7.071068e-01
    outer loop
      vertex   1.800000e+01 9.999992e+00 -2.400000e+01
      vertex   1.850000e+01 9.999992e+00 -2.350000e+01
      vertex   1.800000e+01 4.999971e-01 -2.400000e+01
    endloop
  endfacet
  facet normal 7.071068e-01 0.000000e+00 -7.071068e-01
    outer loop
      vertex   1.800000e+01 4.999971e-01 -2.400000e+01
      vertex   1.850000e+01 9.999992e+00 -2.350000e+01
      vertex   1.850000e+01 4.999971e-01 -2.350000e+01
    endloop
  endfacet
  facet normal 1.000000e+00 0.000000e+00 -0.000000e+00
    outer loop
      vertex   1.850000e+01 9.999992e+00 -2.350000e+01
      vertex   1.850000e+01 9.999992e+00 -2.300000e+01
      vertex   1.850000e+01 4.999971e-01 -2.350000e+01
    endloop
  endfacet
  facet normal 1.000000e+00 0.000000e+00 -0.000000e+00
    outer loop
      vertex   1.850000e+01 4.999971e-01 -2.350000e+01
      vertex   1.850000e+01 9.999992e+00 -2.300000e+01
      vertex   1.850000e+01 4.999971e-01 -2.300000e+01
    endloop
  endfacet
  facet normal 7.071068e-01 0.000000e+00 7.071068e-01
    outer loop
      vertex   1.850000e+01 9.999992e+00 -2.300000e+01
      vertex   1.650000e+01 9.999992e+00 -2.100000e+01
      vertex   1.850000e+01 4.999971e-01 -2.300000e+01
    endloop
  endfacet
  facet normal 7.071068e-01 0.000000e+00 7.071068e-01
    outer loop
      vertex   1.850000e+01 4.999971e-01 -2.300000e+01
      vertex   1.650000e+01 9.999992e+00 -2.100000e+01
      vertex   1.650000e+01 4.999971e-01 -2.100000e+01
    endloop
  endfacet
  facet normal 7.071068e-01 -7.071068e-01 0.000000e+00
    outer loop
      vertex   -8.500000e+00 4.999971e-01 -1.900000e+01
      vertex   -9.000000e+00 -2.861023e-06 -1.900000e+01
      vertex   -8.500000e+00 4.999971e-01 -2.100000e+01
    endloop
  endfacet
  facet normal 7.071068e-01 -7.071068e-01 0.000000e+00
    outer loop
      vertex   -8.500000e+00 4.999971e-01 -2.100000e+01
      vertex   -9.000000e+00 -2.861023e-06 -1.900000e+01
      vertex   -9.000000e+00 -2.861023e-06 -2.120711e+01
    endloop
  endfacet
  facet normal 5.000000e-01 -7.071068e-01 5.000000e-01
    outer loop
      vertex   -9.000000e+00 -2.861023e-06 -2.120711e+01
      vertex   -7.000000e+00 -2.861023e-06 -2.320711e+01
      vertex   -8.500000e+00 4.999971e-01 -2.100000e+01
    endloop
  endfacet
  facet normal 5.000000e-01 -7.071068e-01 5.000000e-01
    outer loop
      vertex   -8.500000e+00 4.999971e-01 -2.100000e+01
      vertex   -7.000000e+00 -2.861023e-06 -2.320711e+01
      vertex   -6.500000e+00 4.999971e-01 -2.300000e+01
    endloop
  endfacet
  facet normal 7.071068e-01 -7.071068e-01 0.000000e+00
    outer loop
      vertex   -7.000000e+00 -2.861023e-06 -2.320711e+01
      vertex   -7.000000e+00 -2.861023e-06 -2.329289e+01
      vertex   -6.500000e+00 4.999971e-01 -2.300000e+01
    endloop
  endfacet
  facet normal 7.071068e-01 -7.071068e-01 0.000000e+00
    outer loop
      vertex   -6.500000e+00 4.999971e-01 -2.300000e+01
      vertex   -7.000000e+00 -2.861023e-06 -2.329289e+01
      vertex   -6.500000e+00 4.999971e-01 -2.350000e+01
    endloop
  endfacet
  facet normal 5.000000e-01 -7.071068e-01 -5.000000e-01
    outer loop
      vertex   -7.000000e+00 4.999971e-01 -2.400000e+01
      vertex   -6.500000e+00 4.999971e-01 -2.350000e+01
      vertex   -7.207107e+00 -2.861023e-06 -2.350000e+01
    endloop
  endfacet
  facet normal 5.000000e-01 -7.071068e-01 -5.000000e-01
    outer loop
      vertex   -7.207107e+00 -2.861023e-06 -2.350000e+01
      vertex   -6.500000e+00 4.999971e-01 -2.350000e+01
      vertex   -7.000000e+00 -2.861023e-06 -2.329289e+01
    endloop
  endfacet
  facet normal -5.709427e-16 -7.071068e-01 -7.071068e-01
    outer loop
      vertex   -1.800000e+01 4.999971e-01 -2.400000e+01
      vertex   -7.000000e+00 4.999971e-01 -2.400000e+01
      vertex   -1.779289e+01 -2.861023e-06 -2.350000e+01
    endloop
  endfacet
  facet normal 0.000000e+00 -7.071068e-01 -7.071068e-01
    outer loop
      vertex   -1.779289e+01 -2.861023e-06 -2.350000e+01
      vertex   -7.000000e+00 4.999971e-01 -2.400000e+01
      vertex   -7.207107e+00 -2.861023e-06 -2.350000e+01
    endloop
  endfacet
  facet normal -5.000003e-01 -7.071068e-01 -4.999997e-01
    outer loop
      vertex   -1.850000e+01 4.999971e-01 -2.350000e+01
      vertex   -1.800000e+01 4.999971e-01 -2.400000e+01
      vertex   -1.800000e+01 -2.861023e-06 -2.329289e+01
    endloop
  endfacet
  facet normal -5.000003e-01 -7.071068e-01 -4.999997e-01
    outer loop
      vertex   -1.800000e+01 -2.861023e-06 -2.329289e+01
      vertex   -1.800000e+01 4.999971e-01 -2.400000e+01
      vertex   -1.779289e+01 -2.861023e-06 -2.350000e+01
    endloop
  endfacet
  facet normal -7.071068e-01 -7.071068e-01 7.797167e-07
    outer loop
      vertex   -1.850000e+01 4.999971e-01 -2.350000e+01
      vertex   -1.800000e+01 -2.861023e-06 -2.329289e+01
      vertex   -1.850000e+01 4.999971e-01 -2.300000e+01
    endloop
  endfacet
  facet normal -7.071068e-01 -7.071068e-01 7.797168e-07
    outer loop
      vertex   -1.850000e+01 4.999971e-01 -2.300000e+01
      vertex   -1.800000e+01 -2.861023e-06 -2.329289e+01
      vertex   -1.800000e+01 -2.861023e-06 -2.320711e+01
    endloop
  endfacet
  facet normal -5.000001e-01 -7.071068e-01 4.999999e-01
    outer loop
      vertex   -1.850000e+01 4.999971e-01 -2.300000e+01
      vertex   -1.800000e+01 -2.861023e-06 -2.320711e+01
      vertex   -1.650000e+01 4.999971e-01 -2.100000e+01
    endloop
  endfacet
  facet normal -5.000001e-01 -7.071068e-01 4.999999e-01
    outer loop
      vertex   -1.650000e+01 4.999971e-01 -2.100000e+01
      vertex   -1.800000e+01 -2.861023e-06 -2.320711e+01
      vertex   -1.600000e+01 -2.861023e-06 -2.120711e+01
    endloop
  endfacet
  facet normal -7.071068e-01 -7.071068e-01 0.000000e+00
    outer loop
      vertex   -1.600000e+01 -2.861023e-06 -2.120711e+01
      vertex   -1.600000e+01 -2.861023e-06 -1.900000e+01
      vertex   -1.650000e+01 4.999971e-01 -2.100000e+01
    endloop
  endfacet
  facet normal -7.071068e-01 -7.071068e-01 0.000000e+00
    outer loop
      vertex   -1.650000e+01 4.999971e-01 -2.100000e+01
      vertex   -1.600000e+01 -2.861023e-06 -1.900000e+01
      vertex   -1.650000e+01 4.999971e-01 -1.900000e+01
    endloop
  endfacet
  facet normal 7.071068e-01 0.000000e+00 7.071068e-01
    outer loop
      vertex   -6.500000e+00 9.999992e+00 -2.300000e+01
      vertex   -8.500000e+00 9.999992e+00 -2.100000e+01
      vertex   -6.500000e+00 4.999971e-01 -2.300000e+01
    endloop
  endfacet
  facet normal 7.071068e-01 0.000000e+00 7.071068e-01
    outer loop
      vertex   -6.500000e+00 4.999971e-01 -2.300000e+01
      vertex   -8.500000e+00 9.999992e+00 -2.100000e+01
      vertex   -8.500000e+00 4.999971e-01 -2.100000e+01
    endloop
  endfacet
  facet normal 1.000000e+00 0.000000e+00 -0.000000e+00
    outer loop
      vertex   -6.500000e+00 9.999992e+00 -2.350000e+01
      vertex   -6.500000e+00 9.999992e+00 -2.300000e+01
      vertex   -6.500000e+00 4.999971e-01 -2.350000e+01
    endloop
  endfacet
  facet normal 1.000000e+00 0.000000e+00 -0.000000e+00
    outer loop
      vertex   -6.500000e+00 4.999971e-01 -2.350000e+01
      vertex   -6.500000e+00 9.999992e+00 -2.300000e+01
      vertex   -6.500000e+00 4.999971e-01 -2.300000e+01
    endloop
  endfacet
  facet normal 7.071068e-01 0.000000e+00 -7.071068e-01
    outer loop
      vertex   -7.000000e+00 9.999992e+00 -2.400000e+01
      vertex   -6.500000e+00 9.999992e+00 -2.350000e+01
      vertex   -7.000000e+00 4.999971e-01 -2.400000e+01
    endloop
  endfacet
  facet normal 7.071068e-01 0.000000e+00 -7.071068e-01
    outer loop
      vertex   -7.000000e+00 4.999971e-01 -2.400000e+01
      vertex   -6.500000e+00 9.999992e+00 -2.350000e+01
      vertex   -6.500000e+00 4.999971e-01 -2.350000e+01
    endloop
  endfacet
  facet normal 0.000000e+00 -0.000000e+00 -1.000000e+00
    outer loop
      vertex   -1.800000e+01 9.999992e+00 -2.400000e+01
      vertex   -7.000000e+00 9.999992e+00 -2.400000e+01
      vertex   -1.800000e+01 4.999971e-01 -2.400000e+01
    endloop
  endfacet
  facet normal 0.000000e+00 0.000000e+00 -1.000000e+00
    outer loop
      vertex   -1.800000e+01 4.999971e-01 -2.400000e+01
      vertex   -7.000000e+00 9.999992e+00 -2.400000e+01
      vertex   -7.000000e+00 4.999971e-01 -2.400000e+01
    endloop
  endfacet
  facet normal -7.071072e-01 0.000000e+00 -7.071064e-01
    outer loop
      vertex   -1.850000e+01 9.999992e+00 -2.350000e+01
      vertex   -1.800000e+01 9.999992e+00 -2.400000e+01
      vertex   -1.850000e+01 4.999971e-01 -2.350000e+01
    endloop
  endfacet
  facet normal -7.071072e-01 -0.000000e+00 -7.071064e-01
    outer loop
      vertex   -1.850000e+01 4.999971e-01 -2.350000e+01
      vertex   -1.800000e+01 9.999992e+00 -2.400000e+01
      vertex   -1.800000e+01 4.999971e-01 -2.400000e+01
    endloop
  endfacet
  facet normal -1.000000e+00 0.000000e+00 1.102686e-06
    outer loop
      vertex   -1.850000e+01 9.999992e+00 -2.300000e+01
      vertex   -1.850000e+01 9.999992e+00 -2.350000e+01
      vertex   -1.850000e+01 4.999971e-01 -2.300000e+01
    endloop
  endfacet
  facet normal -1.000000e+00 0.000000e+00 1.102686e-06
    outer loop
      vertex   -1.850000e+01 4.999971e-01 -2.300000e+01
      vertex   -1.850000e+01 9.999992e+00 -2.350000e+01
      vertex   -1.850000e+01 4.999971e-01 -2.350000e+01
    endloop
  endfacet
  facet normal -7.071070e-01 0.000000e+00 7.071066e-01
    outer loop
      vertex   -1.650000e+01 9.999992e+00 -2.100000e+01
      vertex   -1.850000e+01 9.999992e+00 -2.300000e+01
      vertex   -1.650000e+01 4.999971e-01 -2.100000e+01
    endloop
  endfacet
  facet normal -7.071070e-01 0.000000e+00 7.071066e-01
    outer loop
      vertex   -1.650000e+01 4.999971e-01 -2.100000e+01
      vertex   -1.850000e+01 9.999992e+00 -2.300000e+01
      vertex   -1.850000e+01 4.999971e-01 -2.300000e+01
    endloop
  endfacet
  facet normal -1.000000e+00 -0.000000e+00 -0.000000e+00
    outer loop
      vertex   -1.650000e+01 9.999992e+00 -1.900000e+01
      vertex   -1.650000e+01 9.999992e+00 -2.100000e+01
      vertex   -1.650000e+01 4.999971e-01 -1.900000e+01
    endloop
  endfacet
  facet normal -1.000000e+00 -0.000000e+00 -0.000000e+00
    outer loop
      vertex   -1.650000e+01 4.999971e-01 -1.900000e+01
      vertex   -1.650000e+01 9.999992e+00 -2.100000e+01
      vertex   -1.650000e+01 4.999971e-01 -2.100000e+01
    endloop
  endfacet
  facet normal 7.071068e-01 -7.071068e-01 0.000000e+00
    outer loop
      vertex   1.650000e+01 4.999971e-01 -1.900000e+01
      vertex   1.600000e+01 -2.861023e-06 -1.900000e+01
      vertex   1.650000e+01 4.999971e-01 -2.100000e+01
    endloop
  endfacet
  facet normal 7.071068e-01 -7.071068e-01 0.000000e+00
    outer loop
      vertex   1.650000e+01 4.999971e-01 -2.100000e+01
      vertex   1.600000e+01 -2.861023e-06 -1.900000e+01
      vertex   1.600000e+01 -2.861023e-06 -2.120711e+01
    endloop
  endfacet
  facet normal 5.000000e-01 -7.071068e-01 5.000000e-01
    outer loop
      vertex   1.850000e+01 4.999971e-01 -2.300000e+01
      vertex   1.650000e+01 4.999971e-01 -2.100000e+01
      vertex   1.800000e+01 -2.861023e-06 -2.320711e+01
    endloop
  endfacet
  facet normal 5.000000e-01 -7.071068e-01 5.000000e-01
    outer loop
      vertex   1.800000e+01 -2.861023e-06 -2.320711e+01
      vertex   1.650000e+01 4.999971e-01 -2.100000e+01
      vertex   1.600000e+01 -2.861023e-06 -2.120711e+01
    endloop
  endfacet
  facet normal 7.071068e-01 -7.071068e-01 0.000000e+00
    outer loop
      vertex   1.850000e+01 4.999971e-01 -2.350000e+01
      vertex   1.850000e+01 4.999971e-01 -2.300000e+01
      vertex   1.800000e+01 -2.861023e-06 -2.329289e+01
    endloop
  endfacet
  facet normal 7.071068e-01 -7.071068e-01 0.000000e+00
    outer loop
      vertex   1.800000e+01 -2.861023e-06 -2.329289e+01
      vertex   1.850000e+01 4.999971e-01 -2.300000e+01
      vertex   1.800000e+01 -2.861023e-06 -2.320711e+01
    endloop
  endfacet
  facet normal 5.000000e-01 -7.071068e-01 -5.000000e-01
    outer loop
      vertex   1.800000e+01 4.999971e-01 -2.400000e+01
      vertex   1.850000e+01 4.999971e-01 -2.350000e+01
      vertex   1.779289e+01 -2.861023e-06 -2.350000e+01
    endloop
  endfacet
  facet normal 5.000000e-01 -7.071068e-01 -5.000000e-01
    outer loop
      vertex   1.779289e+01 -2.861023e-06 -2.350000e+01
      vertex   1.850000e+01 4.999971e-01 -2.350000e+01
      vertex   1.800000e+01 -2.861023e-06 -2.329289e+01
    endloop
  endfacet
  facet normal -5.709427e-16 -7.071068e-01 -7.071068e-01
    outer loop
      vertex   7.000000e+00 4.999971e-01 -2.400000e+01
      vertex   1.800000e+01 4.999971e-01 -2.400000e+01
      vertex   7.207107e+00 -2.861023e-06 -2.350000e+01
    endloop
  endfacet
  facet normal 0.000000e+00 -7.071068e-01 -7.071068e-01
    outer loop
      vertex   7.207107e+00 -2.861023e-06 -2.350000e+01
      vertex   1.800000e+01 4.999971e-01 -2.400000e+01
      vertex   1.779289e+01 -2.861023e-06 -2.350000e+01
    endloop
  endfacet
  facet normal -5.000003e-01 -7.071068e-01 -4.999997e-01
    outer loop
      vertex   6.500001e+00 4.999971e-01 -2.350000e+01
      vertex   7.000000e+00 4.999971e-01 -2.400000e+01
      vertex   7.000001e+00 -2.861023e-06 -2.329289e+01
    endloop
  endfacet
  facet normal -5.000003e-01 -7.071068e-01 -4.999997e-01
    outer loop
      vertex   7.000001e+00 -2.861023e-06 -2.329289e+01
      vertex   7.000000e+00 4.999971e-01 -2.400000e+01
      vertex   7.207107e+00 -2.861023e-06 -2.350000e+01
    endloop
  endfacet
  facet normal -7.071068e-01 -7.071068e-01 7.797167e-07
    outer loop
      vertex   6.500001e+00 4.999971e-01 -2.350000e+01
      vertex   7.000001e+00 -2.861023e-06 -2.329289e+01
      vertex   6.500001e+00 4.999971e-01 -2.300000e+01
    endloop
  endfacet
  facet normal -7.071068e-01 -7.071068e-01 7.797167e-07
    outer loop
      vertex   6.500001e+00 4.999971e-01 -2.300000e+01
      vertex   7.000001e+00 -2.861023e-06 -2.329289e+01
      vertex   7.000001e+00 -2.861023e-06 -2.320711e+01
    endloop
  endfacet
  facet normal -5.000001e-01 -7.071068e-01 4.999999e-01
    outer loop
      vertex   6.500001e+00 4.999971e-01 -2.300000e+01
      vertex   7.000001e+00 -2.861023e-06 -2.320711e+01
      vertex   8.500000e+00 4.999971e-01 -2.100000e+01
    endloop
  endfacet
  facet normal -5.000001e-01 -7.071068e-01 4.999999e-01
    outer loop
      vertex   8.500000e+00 4.999971e-01 -2.100000e+01
      vertex   7.000001e+00 -2.861023e-06 -2.320711e+01
      vertex   9.000000e+00 -2.861023e-06 -2.120711e+01
    endloop
  endfacet
  facet normal -7.071068e-01 -7.071068e-01 0.000000e+00
    outer loop
      vertex   9.000000e+00 -2.861023e-06 -2.120711e+01
      vertex   9.000000e+00 -2.861023e-06 -1.900000e+01
      vertex   8.500000e+00 4.999971e-01 -2.100000e+01
    endloop
  endfacet
  facet normal -7.071068e-01 -7.071068e-01 0.000000e+00
    outer loop
      vertex   8.500000e+00 4.999971e-01 -2.100000e+01
      vertex   9.000000e+00 -2.861023e-06 -1.900000e+01
      vertex   8.500000e+00 4.999971e-01 -1.900000e+01
    endloop
  endfacet
  facet normal 1.000000e+00 0.000000e+00 -0.000000e+00
    outer loop
      vertex   1.650000e+01 9.999992e+00 -2.100000e+01
      vertex   1.650000e+01 9.999992e+00 -1.900000e+01
      vertex   1.650000e+01 4.999971e-01 -2.100000e+01
    endloop
  endfacet
  facet normal 1.000000e+00 0.000000e+00 -0.000000e+00
    outer loop
      vertex   1.650000e+01 4.999971e-01 -2.100000e+01
      vertex   1.650000e+01 9.999992e+00 -1.900000e+01
      vertex   1.650000e+01 4.999971e-01 -1.900000e+01
    endloop
  endfacet
  facet normal 7.071068e-01 0.000000e+00 -7.071068e-01
    outer loop
      vertex   1.900000e+01 9.999992e+00 -1.900000e+01
      vertex   2.000000e+01 9.999992e+00 -1.800000e+01
      vertex   1.900000e+01 -2.861023e-06 -1.900000e+01
    endloop
  endfacet
  facet normal 7.071068e-01 0.000000e+00 -7.071068e-01
    outer loop
      vertex   1.900000e+01 -2.861023e-06 -1.900000e+01
      vertex   2.000000e+01 9.999992e+00 -1.800000e+01
      vertex   2.000000e+01 -2.861023e-06 -1.800000e+01
    endloop
  endfacet
  facet normal 1.000000e+00 0.000000e+00 -0.000000e+00
    outer loop
      vertex   2.000000e+01 -2.861023e-06 -1.800000e+01
      vertex   2.000000e+01 9.999992e+00 -1.800000e+01
      vertex   2.000000e+01 -7.629395e-06 -1.750000e+01
    endloop
  endfacet
  facet normal 1.000000e+00 -0.000000e+00 0.000000e+00
    outer loop
      vertex   2.000000e+01 -7.629395e-06 -1.750000e+01
      vertex   2.000000e+01 9.999992e+00 -1.800000e+01
      vertex   2.000000e+01 9.999992e+00 -1.450000e+01
    endloop
  endfacet
  facet normal 1.000000e+00 -0.000000e+00 0.000000e+00
    outer loop
      vertex   2.000000e+01 -7.629395e-06 -1.450000e+01
      vertex   2.000000e+01 -7.629395e-06 -1.750000e+01
      vertex   2.000000e+01 9.999992e+00 -1.450000e+01
    endloop
  endfacet
  facet normal -7.071068e-01 0.000000e+00 -7.071068e-01
    outer loop
      vertex   -2.000000e+01 9.999992e+00 -1.800000e+01
      vertex   -1.900000e+01 9.999992e+00 -1.900000e+01
      vertex   -2.000000e+01 -2.861023e-06 -1.800000e+01
    endloop
  endfacet
  facet normal -7.071068e-01 -0.000000e+00 -7.071068e-01
    outer loop
      vertex   -2.000000e+01 -2.861023e-06 -1.800000e+01
      vertex   -1.900000e+01 9.999992e+00 -1.900000e+01
      vertex   -1.900000e+01 -2.861023e-06 -1.900000e+01
    endloop
  endfacet
  facet normal -1.000000e+00 0.000000e+00 -0.000000e+00
    outer loop
      vertex   -2.000000e+01 -7.629395e-06 -1.450000e+01
      vertex   -2.000000e+01 9.999992e+00 -1.450000e+01
      vertex   -2.000000e+01 -2.861023e-06 -1.750000e+01
    endloop
  endfacet
  facet normal -1.000000e+00 0.000000e+00 0.000000e+00
    outer loop
      vertex   -2.000000e+01 -2.861023e-06 -1.750000e+01
      vertex   -2.000000e+01 9.999992e+00 -1.450000e+01
      vertex   -2.000000e+01 9.999992e+00 -1.800000e+01
    endloop
  endfacet
  facet normal -1.000000e+00 0.000000e+00 0.000000e+00
    outer loop
      vertex   -2.000000e+01 -2.861023e-06 -1.800000e+01
      vertex   -2.000000e+01 -2.861023e-06 -1.750000e+01
      vertex   -2.000000e+01 9.999992e+00 -1.800000e+01
    endloop
  endfacet
  facet normal 0.000000e+00 -0.000000e+00 -1.000000e+00
    outer loop
      vertex   1.650000e+01 9.999992e+00 -1.900000e+01
      vertex   1.900000e+01 9.999992e+00 -1.900000e+01
      vertex   1.650000e+01 4.999971e-01 -1.900000e+01
    endloop
  endfacet
  facet normal 0.000000e+00 0.000000e+00 -1.000000e+00
    outer loop
      vertex   1.650000e+01 4.999971e-01 -1.900000e+01
      vertex   1.900000e+01 9.999992e+00 -1.900000e+01
      vertex   1.900000e+01 -2.861023e-06 -1.900000e+01
    endloop
  endfacet
  facet normal 0.000000e+00 0.000000e+00 -1.000000e+00
    outer loop
      vertex   1.600000e+01 -2.861023e-06 -1.900000e+01
      vertex   1.650000e+01 4.999971e-01 -1.900000e+01
      vertex   1.900000e+01 -2.861023e-06 -1.900000e+01
    endloop
  endfacet
  facet normal 4.768372e-08 4.768372e-08 1.000000e+00
    outer loop
      vertex   2.000000e+01 9.999992e+00 -1.450000e+01
      vertex   1.000000e+01 9.999992e+00 -1.450000e+01
      vertex   2.000000e+01 -7.629395e-06 -1.450000e+01
    endloop
  endfacet
  facet normal 0.000000e+00 0.000000e+00 1.000000e+00
    outer loop
      vertex   2.000000e+01 -7.629395e-06 -1.450000e+01
      vertex   1.000000e+01 9.999992e+00 -1.450000e+01
      vertex   1.000000e+01 -7.629395e-06 -1.450000e+01
    endloop
  endfacet
  facet normal 0.000000e+00 -0.000000e+00 1.000000e+00
    outer loop
      vertex   1.000000e+01 -7.629395e-06 -1.450000e+01
      vertex   1.000000e+01 9.999992e+00 -1.450000e+01
      vertex   0.000000e+00 9.999992e+00 -1.450000e+01
    endloop
  endfacet
  facet normal 0.000000e+00 -0.000000e+00 1.000000e+00
    outer loop
      vertex   0.000000e+00 -7.629395e-06 -1.450000e+01
      vertex   0.000000e+00 9.999992e+00 -1.450000e+01
      vertex   -1.000000e+01 9.999992e+00 -1.450000e+01
    endloop
  endfacet
  facet normal -4.768372e-08 0.000000e+00 1.000000e+00
    outer loop
      vertex   -1.000000e+01 -7.629395e-06 -1.450000e+01
      vertex   -1.000000e+01 9.999992e+00 -1.450000e+01
      vertex   -2.000000e+01 9.999992e+00 -1.450000e+01
    endloop
  endfacet
  facet normal -0.000000e+00 4.768372e-08 1.000000e+00
    outer loop
      vertex   -2.000000e+01 -7.629395e-06 -1.450000e+01
      vertex   -1.000000e+01 -7.629395e-06 -1.450000e+01
      vertex   -2.000000e+01 9.999992e+00 -1.450000e+01
    endloop
  endfacet
  facet normal 0.000000e+00 0.000000e+00 1.000000e+00
    outer loop
      vertex   1.000000e+01 -7.629395e-06 -1.450000e+01
      vertex   0.000000e+00 9.999992e+00 -1.450000e+01
      vertex   0.000000e+00 -7.629395e-06 -1.450000e+01
    endloop
  endfacet
  facet normal 0.000000e+00 0.000000e+00 1.000000e+00
    outer loop
      vertex   0.000000e+00 -7.629395e-06 -1.450000e+01
      vertex   -1.000000e+01 9.999992e+00 -1.450000e+01
      vertex   -1.000000e+01 -7.629395e-06 -1.450000e+01
    endloop
  endfacet
  facet normal -0.000000e+00 -0.000000e+00 -1.000000e+00
    outer loop
      vertex   -1.650000e+01 9.999992e+00 -1.900000e+01
      vertex   -1.650000e+01 4.999971e-01 -1.900000e+01
      vertex   -1.900000e+01 9.999992e+00 -1.900000e+01
    endloop
  endfacet
  facet normal 0.000000e+00 -0.000000e+00 -1.000000e+00
    outer loop
      vertex   -1.900000e+01 9.999992e+00 -1.900000e+01
      vertex   -1.650000e+01 4.999971e-01 -1.900000e+01
      vertex   -1.900000e+01 -2.861023e-06 -1.900000e+01
    endloop
  endfacet
  facet normal 0.000000e+00 0.000000e+00 -1.000000e+00
    outer loop
      vertex   -1.900000e+01 -2.861023e-06 -1.900000e+01
      vertex   -1.650000e+01 4.999971e-01 -1.900000e+01
      vertex   -1.600000e+01 -2.861023e-06 -1.900000e+01
    endloop
  endfacet
  facet normal -0.000000e+00 -1.000000e+00 0.000000e+00
    outer loop
      vertex   -6.000000e+00 -2.861023e-06 -1.900000e+01
      vertex   -5.000000e+00 -2.861023e-06 -1.750000e+01
      vertex   -9.000000e+00 -2.861023e-06 -1.900000e+01
    endloop
  endfacet
  facet normal 0.000000e+00 -1.000000e+00 0.000000e+00
    outer loop
      vertex   -6.000000e+00 -2.861023e-06 -1.900000e+01
      vertex   -5.000000e+00 -2.861023e-06 -1.800000e+01
      vertex   -5.000000e+00 -2.861023e-06 -1.750000e+01
    endloop
  endfacet
  facet normal 0.000000e+00 -1.000000e+00 -1.589457e-06
    outer loop
      vertex   5.000000e+00 -2.861023e-06 -1.750000e+01
      vertex   0.000000e+00 -7.629395e-06 -1.450000e+01
      vertex   -5.000000e+00 -2.861023e-06 -1.750000e+01
    endloop
  endfacet
  facet normal -0.000000e+00 -1.000000e+00 -1.589457e-06
    outer loop
      vertex   5.000000e+00 -2.861023e-06 -1.750000e+01
      vertex   1.000000e+01 -7.629395e-06 -1.450000e+01
      vertex   0.000000e+00 -7.629395e-06 -1.450000e+01
    endloop
  endfacet
  facet normal -3.667978e-07 -1.000000e+00 -9.781275e-07
    outer loop
      vertex   5.000000e+00 -2.861023e-06 -1.750000e+01
      vertex   9.000000e+00 -2.861023e-06 -1.900000e+01
      vertex   1.000000e+01 -7.629395e-06 -1.450000e+01
    endloop
  endfacet
  facet normal 0.000000e+00 -1.000000e+00 0.000000e+00
    outer loop
      vertex   5.000000e+00 -2.861023e-06 -1.750000e+01
      vertex   6.000000e+00 -2.861023e-06 -1.900000e+01
      vertex   9.000000e+00 -2.861023e-06 -1.900000e+01
    endloop
  endfacet
  facet normal 0.000000e+00 -1.000000e+00 0.000000e+00
    outer loop
      vertex   5.000000e+00 -2.861023e-06 -1.750000e+01
      vertex   5.000000e+00 -2.861023e-06 -1.800000e+01
      vertex   6.000000e+00 -2.861023e-06 -1.900000e+01
    endloop
  endfacet
  facet normal 0.000000e+00 -1.000000e+00 -1.059638e-06
    outer loop
      vertex   1.000000e+01 -7.629395e-06 -1.450000e+01
      vertex   9.000000e+00 -2.861023e-06 -1.900000e+01
      vertex   1.600000e+01 -2.861023e-06 -1.900000e+01
    endloop
  endfacet
  facet normal -1.192093e-06 -1.000000e+00 0.000000e+00
    outer loop
      vertex   2.000000e+01 -7.629395e-06 -1.450000e+01
      vertex   1.600000e+01 -2.861023e-06 -1.900000e+01
      vertex   2.000000e+01 -7.629395e-06 -1.750000e+01
    endloop
  endfacet
  facet normal -0.000000e+00 -1.000000e+00 -1.059638e-06
    outer loop
      vertex   2.000000e+01 -7.629395e-06 -1.450000e+01
      vertex   1.000000e+01 -7.629395e-06 -1.450000e+01
      vertex   1.600000e+01 -2.861023e-06 -1.900000e+01
    endloop
  endfacet
  facet normal 0.000000e+00 -1.000000e+00 0.000000e+00
    outer loop
      vertex   7.000001e+00 -2.861023e-06 -2.320711e+01
      vertex   7.207107e+00 -2.861023e-06 -2.350000e+01
      vertex   9.000000e+00 -2.861023e-06 -2.120711e+01
    endloop
  endfacet
  facet normal 0.000000e+00 -1.000000e+00 -0.000000e+00
    outer loop
      vertex   7.000001e+00 -2.861023e-06 -2.320711e+01
      vertex   7.000001e+00 -2.861023e-06 -2.329289e+01
      vertex   7.207107e+00 -2.861023e-06 -2.350000e+01
    endloop
  endfacet
  facet normal 0.000000e+00 -1.000000e+00 -0.000000e+00
    outer loop
      vertex   9.000000e+00 -2.861023e-06 -2.120711e+01
      vertex   7.207107e+00 -2.861023e-06 -2.350000e+01
      vertex   1.600000e+01 -2.861023e-06 -2.120711e+01
    endloop
  endfacet
  facet normal 0.000000e+00 -1.000000e+00 -0.000000e+00
    outer loop
      vertex   1.600000e+01 -2.861023e-06 -1.900000e+01
      vertex   9.000000e+00 -2.861023e-06 -2.120711e+01
      vertex   1.600000e+01 -2.861023e-06 -2.120711e+01
    endloop
  endfacet
  facet normal -0.000000e+00 -1.000000e+00 -0.000000e+00
    outer loop
      vertex   1.600000e+01 -2.861023e-06 -1.900000e+01
      vertex   9.000000e+00 -2.861023e-06 -1.900000e+01
      vertex   9.000000e+00 -2.861023e-06 -2.120711e+01
    endloop
  endfacet
  facet normal -0.000000e+00 -1.000000e+00 0.000000e+00
    outer loop
      vertex   1.800000e+01 -2.861023e-06 -2.329289e+01
      vertex   1.800000e+01 -2.861023e-06 -2.320711e+01
      vertex   1.779289e+01 -2.861023e-06 -2.350000e+01
    endloop
  endfacet
  facet normal 0.000000e+00 -1.000000e+00 0.000000e+00
    outer loop
      vertex   1.779289e+01 -2.861023e-06 -2.350000e+01
      vertex   1.800000e+01 -2.861023e-06 -2.320711e+01
      vertex   1.600000e+01 -2.861023e-06 -2.120711e+01
    endloop
  endfacet
  facet normal 0.000000e+00 -1.000000e+00 0.000000e+00
    outer loop
      vertex   7.207107e+00 -2.861023e-06 -2.350000e+01
      vertex   1.779289e+01 -2.861023e-06 -2.350000e+01
      vertex   1.600000e+01 -2.861023e-06 -2.120711e+01
    endloop
  endfacet
  facet normal 0.000000e+00 -1.000000e+00 -3.178914e-06
    outer loop
      vertex   1.600000e+01 -2.861023e-06 -1.900000e+01
      vertex   1.900000e+01 -2.861023e-06 -1.900000e+01
      vertex   2.000000e+01 -7.629395e-06 -1.750000e+01
    endloop
  endfacet
  facet normal 9.536743e-06 -1.000000e+00 -9.536743e-06
    outer loop
      vertex   2.000000e+01 -7.629395e-06 -1.750000e+01
      vertex   1.900000e+01 -2.861023e-06 -1.900000e+01
      vertex   2.000000e+01 -2.861023e-06 -1.800000e+01
    endloop
  endfacet
  facet normal -0.000000e+00 -1.000000e+00 -1.589457e-06
    outer loop
      vertex   0.000000e+00 -7.629395e-06 -1.450000e+01
      vertex   -1.000000e+01 -7.629395e-06 -1.450000e+01
      vertex   -5.000000e+00 -2.861023e-06 -1.750000e+01
    endloop
  endfacet
  facet normal 3.667978e-07 -1.000000e+00 -9.781275e-07
    outer loop
      vertex   -5.000000e+00 -2.861023e-06 -1.750000e+01
      vertex   -1.000000e+01 -7.629395e-06 -1.450000e+01
      vertex   -9.000000e+00 -2.861023e-06 -1.900000e+01
    endloop
  endfacet
  facet normal 0.000000e+00 -1.000000e+00 -1.059638e-06
    outer loop
      vertex   -9.000000e+00 -2.861023e-06 -1.900000e+01
      vertex   -1.000000e+01 -7.629395e-06 -1.450000e+01
      vertex   -1.600000e+01 -2.861023e-06 -1.900000e+01
    endloop
  endfacet
  facet normal 0.000000e+00 -1.000000e+00 0.000000e+00
    outer loop
      vertex   -1.600000e+01 -2.861023e-06 -2.120711e+01
      vertex   -9.000000e+00 -2.861023e-06 -1.900000e+01
      vertex   -1.600000e+01 -2.861023e-06 -1.900000e+01
    endloop
  endfacet
  facet normal 0.000000e+00 -1.000000e+00 0.000000e+00
    outer loop
      vertex   -1.600000e+01 -2.861023e-06 -2.120711e+01
      vertex   -9.000000e+00 -2.861023e-06 -2.120711e+01
      vertex   -9.000000e+00 -2.861023e-06 -1.900000e+01
    endloop
  endfacet
  facet normal 0.000000e+00 -1.000000e+00 -0.000000e+00
    outer loop
      vertex   -1.600000e+01 -2.861023e-06 -2.120711e+01
      vertex   -1.779289e+01 -2.861023e-06 -2.350000e+01
      vertex   -9.000000e+00 -2.861023e-06 -2.120711e+01
    endloop
  endfacet
  facet normal 0.000000e+00 -1.000000e+00 -0.000000e+00
    outer loop
      vertex   -1.600000e+01 -2.861023e-06 -2.120711e+01
      vertex   -1.800000e+01 -2.861023e-06 -2.320711e+01
      vertex   -1.779289e+01 -2.861023e-06 -2.350000e+01
    endloop
  endfacet
  facet normal -0.000000e+00 -1.000000e+00 0.000000e+00
    outer loop
      vertex   -1.779289e+01 -2.861023e-06 -2.350000e+01
      vertex   -1.800000e+01 -2.861023e-06 -2.320711e+01
      vertex   -1.800000e+01 -2.861023e-06 -2.329289e+01
    endloop
  endfacet
  facet normal -0.000000e+00 -1.000000e+00 -1.059638e-06
    outer loop
      vertex   -1.000000e+01 -7.629395e-06 -1.450000e+01
      vertex   -2.000000e+01 -7.629395e-06 -1.450000e+01
      vertex   -1.600000e+01 -2.861023e-06 -1.900000e+01
    endloop
  endfacet
  facet normal -5.960464e-07 -1.000000e+00 -1.589457e-06
    outer loop
      vertex   -1.600000e+01 -2.861023e-06 -1.900000e+01
      vertex   -2.000000e+01 -7.629395e-06 -1.450000e+01
      vertex   -2.000000e+01 -2.861023e-06 -1.750000e+01
    endloop
  endfacet
  facet normal -0.000000e+00 -1.000000e+00 -0.000000e+00
    outer loop
      vertex   -1.900000e+01 -2.861023e-06 -1.900000e+01
      vertex   -2.000000e+01 -2.861023e-06 -1.750000e+01
      vertex   -2.000000e+01 -2.861023e-06 -1.800000e+01
    endloop
  endfacet
  facet normal 0.000000e+00 -1.000000e+00 0.000000e+00
    outer loop
      vertex   -1.900000e+01 -2.861023e-06 -1.900000e+01
      vertex   -1.600000e+01 -2.861023e-06 -1.900000e+01
      vertex   -2.000000e+01 -2.861023e-06 -1.750000e+01
    endloop
  endfacet
  facet normal 0.000000e+00 -1.000000e+00 0.000000e+00
    outer loop
      vertex   -1.779289e+01 -2.861023e-06 -2.350000e+01
      vertex   -7.207107e+00 -2.861023e-06 -2.350000e+01
      vertex   -9.000000e+00 -2.861023e-06 -2.120711e+01
    endloop
  endfacet
  facet normal 0.000000e+00 -1.000000e+00 0.000000e+00
    outer loop
      vertex   -9.000000e+00 -2.861023e-06 -2.120711e+01
      vertex   -7.207107e+00 -2.861023e-06 -2.350000e+01
      vertex   -7.000000e+00 -2.861023e-06 -2.320711e+01
    endloop
  endfacet
  facet normal 0.000000e+00 -1.000000e+00 -0.000000e+00
    outer loop
      vertex   -7.000000e+00 -2.861023e-06 -2.320711e+01
      vertex   -7.207107e+00 -2.861023e-06 -2.350000e+01
      vertex   -7.000000e+00 -2.861023e-06 -2.329289e+01
    endloop
  endfacet
endsolid
