solid OpenSCAD_Model
  facet normal 0 0 -1
    outer loop
      vertex -10 0 5.5
      vertex -9.78148 2.07912 5.5
      vertex -9.78148 -2.07912 5.5
    endloop
  endfacet
  facet normal 0 0 -1
    outer loop
      vertex -9.78148 -2.07912 5.5
      vertex -9.78148 2.07912 5.5
      vertex -9.13546 4.06737 5.5
    endloop
  endfacet
  facet normal 0 0 -1
    outer loop
      vertex -9.78148 -2.07912 5.5
      vertex -9.13546 4.06737 5.5
      vertex -8.09017 5.87785 5.5
    endloop
  endfacet
  facet normal 0 0 -1
    outer loop
      vertex -9.78148 -2.07912 5.5
      vertex -8.09017 5.87785 5.5
      vertex -6.69131 7.43145 5.5
    endloop
  endfacet
  facet normal 0 0 -1
    outer loop
      vertex -9.78148 -2.07912 5.5
      vertex -6.69131 7.43145 5.5
      vertex -5 8.66025 5.5
    endloop
  endfacet
  facet normal 0 0 -1
    outer loop
      vertex -9.78148 -2.07912 5.5
      vertex -5 8.66025 5.5
      vertex -3.09017 9.51056 5.5
    endloop
  endfacet
  facet normal 0 0 -1
    outer loop
      vertex -9.78148 -2.07912 5.5
      vertex -3.09017 9.51056 5.5
      vertex -1.04529 9.94522 5.5
    endloop
  endfacet
  facet normal 0 0 -1
    outer loop
      vertex -9.78148 -2.07912 5.5
      vertex -1.04529 9.94522 5.5
      vertex 1.04529 9.94522 5.5
    endloop
  endfacet
  facet normal 0 0 -1
    outer loop
      vertex -9.78148 -2.07912 5.5
      vertex 1.04529 9.94522 5.5
      vertex 3.09017 9.51056 5.5
    endloop
  endfacet
  facet normal 0 0 -1
    outer loop
      vertex -9.78148 -2.07912 5.5
      vertex 3.09017 9.51056 5.5
      vertex 5 8.66025 5.5
    endloop
  endfacet
  facet normal 0 0 -1
    outer loop
      vertex -9.78148 -2.07912 5.5
      vertex 5 8.66025 5.5
      vertex 6.69131 7.43145 5.5
    endloop
  endfacet
  facet normal 0 0 -1
    outer loop
      vertex -2.19455 1.65 5.5
      vertex 6.69131 7.43145 5.5
      vertex 8.09017 5.87785 5.5
    endloop
  endfacet
  facet normal 0 0 -1
    outer loop
      vertex 2.51225 1.11853 5.5
      vertex 9.13546 4.06737 5.5
      vertex 9.78148 2.07912 5.5
    endloop
  endfacet
  facet normal 0 0 -1
    outer loop
      vertex 2.68991 -0.571757 5.5
      vertex 9.78148 2.07912 5.5
      vertex 10 0 5.5
    endloop
  endfacet
  facet normal 0 0 -1
    outer loop
      vertex 2.19455 -1.65 5.5
      vertex 10 0 5.5
      vertex 9.78148 -2.07912 5.5
    endloop
  endfacet
  facet normal 0 0 -1
    outer loop
      vertex -9.78148 -2.07912 5.5
      vertex 9.78148 -2.07912 5.5
      vertex 9.13546 -4.06737 5.5
    endloop
  endfacet
  facet normal 0 0 -1
    outer loop
      vertex -9.78148 -2.07912 5.5
      vertex 9.13546 -4.06737 5.5
      vertex 8.09017 -5.87785 5.5
    endloop
  endfacet
  facet normal 0 0 -1
    outer loop
      vertex -9.78148 -2.07912 5.5
      vertex 8.09017 -5.87785 5.5
      vertex 6.69131 -7.43145 5.5
    endloop
  endfacet
  facet normal 0 0 -1
    outer loop
      vertex -9.78148 -2.07912 5.5
      vertex 6.69131 -7.43145 5.5
      vertex 5 -8.66025 5.5
    endloop
  endfacet
  facet normal 0 0 -1
    outer loop
      vertex -9.78148 -2.07912 5.5
      vertex 5 -8.66025 5.5
      vertex 3.09017 -9.51056 5.5
    endloop
  endfacet
  facet normal 0 0 -1
    outer loop
      vertex -9.78148 -2.07912 5.5
      vertex 3.09017 -9.51056 5.5
      vertex 1.04529 -9.94522 5.5
    endloop
  endfacet
  facet normal 0 0 -1
    outer loop
      vertex -9.78148 -2.07912 5.5
      vertex 1.04529 -9.94522 5.5
      vertex -1.04529 -9.94522 5.5
    endloop
  endfacet
  facet normal 0 0 -1
    outer loop
      vertex -9.78148 -2.07912 5.5
      vertex -1.04529 -9.94522 5.5
      vertex -3.09017 -9.51056 5.5
    endloop
  endfacet
  facet normal 0 0 -1
    outer loop
      vertex -9.78148 -2.07912 5.5
      vertex -3.09017 -9.51056 5.5
      vertex -5 -8.66025 5.5
    endloop
  endfacet
  facet normal 0 0 -1
    outer loop
      vertex -9.78148 -2.07912 5.5
      vertex -5 -8.66025 5.5
      vertex -6.69131 -7.43145 5.5
    endloop
  endfacet
  facet normal 0 0 -1
    outer loop
      vertex -9.78148 -2.07912 5.5
      vertex -6.69131 -7.43145 5.5
      vertex -8.09017 -5.87785 5.5
    endloop
  endfacet
  facet normal 0 0 -1
    outer loop
      vertex -9.78148 -2.07912 5.5
      vertex -8.09017 -5.87785 5.5
      vertex -9.13546 -4.06737 5.5
    endloop
  endfacet
  facet normal 0 0 -1
    outer loop
      vertex -2.51225 -1.11853 5.5
      vertex -9.78148 -2.07912 5.5
      vertex -2.68991 -0.571757 5.5
    endloop
  endfacet
  facet normal 0 0 -1
    outer loop
      vertex -2.19455 1.65 5.5
      vertex 9.13546 4.06737 5.5
      vertex 2.19455 1.65 5.5
    endloop
  endfacet
  facet normal 0 0 -1
    outer loop
      vertex -9.78148 -2.07912 5.5
      vertex -2.75 0 5.5
      vertex -2.68991 -0.571757 5.5
    endloop
  endfacet
  facet normal 0 0 -1
    outer loop
      vertex 2.51225 1.11853 5.5
      vertex 9.78148 2.07912 5.5
      vertex 2.68991 0.571757 5.5
    endloop
  endfacet
  facet normal 0 0 -1
    outer loop
      vertex 2.19455 -1.65 5.5
      vertex 9.78148 -2.07912 5.5
      vertex -2.19455 -1.65 5.5
    endloop
  endfacet
  facet normal 0 0 -1
    outer loop
      vertex -9.78148 -2.07912 5.5
      vertex -2.2248 -1.61641 5.5
      vertex -2.19455 -1.65 5.5
    endloop
  endfacet
  facet normal 0 0 -1
    outer loop
      vertex -9.78148 -2.07912 5.5
      vertex -2.19455 -1.65 5.5
      vertex 9.78148 -2.07912 5.5
    endloop
  endfacet
  facet normal 0 0 -1
    outer loop
      vertex 2.2248 -1.61641 5.5
      vertex 10 0 5.5
      vertex 2.19455 -1.65 5.5
    endloop
  endfacet
  facet normal 0 0 -1
    outer loop
      vertex 2.68991 -0.571757 5.5
      vertex 10 0 5.5
      vertex 2.51225 -1.11853 5.5
    endloop
  endfacet
  facet normal 0 0 -1
    outer loop
      vertex 2.51225 -1.11853 5.5
      vertex 10 0 5.5
      vertex 2.2248 -1.61641 5.5
    endloop
  endfacet
  facet normal 0 0 -1
    outer loop
      vertex 2.75 0 5.5
      vertex 9.78148 2.07912 5.5
      vertex 2.68991 -0.571757 5.5
    endloop
  endfacet
  facet normal 0 0 -1
    outer loop
      vertex 2.68991 0.571757 5.5
      vertex 9.78148 2.07912 5.5
      vertex 2.75 0 5.5
    endloop
  endfacet
  facet normal 0 0 -1
    outer loop
      vertex -2.2248 -1.61641 5.5
      vertex -9.78148 -2.07912 5.5
      vertex -2.51225 -1.11853 5.5
    endloop
  endfacet
  facet normal 0 0 -1
    outer loop
      vertex 2.2248 1.61641 5.5
      vertex 9.13546 4.06737 5.5
      vertex 2.51225 1.11853 5.5
    endloop
  endfacet
  facet normal 0 0 -1
    outer loop
      vertex -2.19455 1.65 5.5
      vertex 8.09017 5.87785 5.5
      vertex 9.13546 4.06737 5.5
    endloop
  endfacet
  facet normal 0 0 -1
    outer loop
      vertex 2.19455 1.65 5.5
      vertex 9.13546 4.06737 5.5
      vertex 2.2248 1.61641 5.5
    endloop
  endfacet
  facet normal 0 0 -1
    outer loop
      vertex -9.78148 -2.07912 5.5
      vertex 6.69131 7.43145 5.5
      vertex -2.19455 1.65 5.5
    endloop
  endfacet
  facet normal 0 0 -1
    outer loop
      vertex -9.78148 -2.07912 5.5
      vertex -2.19455 1.65 5.5
      vertex -2.2248 1.61641 5.5
    endloop
  endfacet
  facet normal 0 0 -1
    outer loop
      vertex -9.78148 -2.07912 5.5
      vertex -2.51225 1.11853 5.5
      vertex -2.68991 0.571757 5.5
    endloop
  endfacet
  facet normal 0 0 -1
    outer loop
      vertex -2.75 0 5.5
      vertex -9.78148 -2.07912 5.5
      vertex -2.68991 0.571757 5.5
    endloop
  endfacet
  facet normal 0 0 -1
    outer loop
      vertex -2.51225 1.11853 5.5
      vertex -9.78148 -2.07912 5.5
      vertex -2.2248 1.61641 5.5
    endloop
  endfacet
  facet normal -0.994522 0.104528 0
    outer loop
      vertex -10 0 5.5
      vertex -10 0 20.5
      vertex -9.78148 2.07912 5.5
    endloop
  endfacet
  facet normal -0.994522 0.104528 0
    outer loop
      vertex -9.78148 2.07912 5.5
      vertex -10 0 20.5
      vertex -9.78148 2.07912 20.5
    endloop
  endfacet
  facet normal -0.994522 -0.104528 0
    outer loop
      vertex -10 0 5.5
      vertex -9.78148 -2.07912 5.5
      vertex -10 0 20.5
    endloop
  endfacet
  facet normal -0.994522 -0.104528 0
    outer loop
      vertex -10 0 20.5
      vertex -9.78148 -2.07912 5.5
      vertex -9.78148 -2.07912 20.5
    endloop
  endfacet
  facet normal -0.951057 -0.309017 0
    outer loop
      vertex -9.78148 -2.07912 5.5
      vertex -9.13546 -4.06737 5.5
      vertex -9.78148 -2.07912 20.5
    endloop
  endfacet
  facet normal -0.951057 -0.309017 0
    outer loop
      vertex -9.78148 -2.07912 20.5
      vertex -9.13546 -4.06737 5.5
      vertex -9.13546 -4.06737 20.5
    endloop
  endfacet
  facet normal -0.866025 -0.5 0
    outer loop
      vertex -9.13546 -4.06737 5.5
      vertex -8.09017 -5.87785 5.5
      vertex -9.13546 -4.06737 20.5
    endloop
  endfacet
  facet normal -0.866025 -0.5 0
    outer loop
      vertex -9.13546 -4.06737 20.5
      vertex -8.09017 -5.87785 5.5
      vertex -8.09017 -5.87785 20.5
    endloop
  endfacet
  facet normal -0.743145 -0.669131 0
    outer loop
      vertex -8.09017 -5.87785 5.5
      vertex -6.69131 -7.43145 5.5
      vertex -8.09017 -5.87785 20.5
    endloop
  endfacet
  facet normal -0.743145 -0.669131 0
    outer loop
      vertex -8.09017 -5.87785 20.5
      vertex -6.69131 -7.43145 5.5
      vertex -6.69131 -7.43145 20.5
    endloop
  endfacet
  facet normal -0.587785 -0.809017 0
    outer loop
      vertex -6.69131 -7.43145 20.5
      vertex -6.69131 -7.43145 5.5
      vertex -5 -8.66025 5.5
    endloop
  endfacet
  facet normal -0.587785 -0.809017 0
    outer loop
      vertex -5 -8.66025 20.5
      vertex -6.69131 -7.43145 20.5
      vertex -5 -8.66025 5.5
    endloop
  endfacet
  facet normal -0.406737 -0.913545 0
    outer loop
      vertex -5 -8.66025 20.5
      vertex -5 -8.66025 5.5
      vertex -3.09017 -9.51056 5.5
    endloop
  endfacet
  facet normal -0.406737 -0.913545 0
    outer loop
      vertex -3.09017 -9.51056 20.5
      vertex -5 -8.66025 20.5
      vertex -3.09017 -9.51056 5.5
    endloop
  endfacet
  facet normal -0.207912 -0.978148 0
    outer loop
      vertex -3.09017 -9.51056 20.5
      vertex -3.09017 -9.51056 5.5
      vertex -1.04529 -9.94522 5.5
    endloop
  endfacet
  facet normal -0.207912 -0.978148 0
    outer loop
      vertex -1.04529 -9.94522 20.5
      vertex -3.09017 -9.51056 20.5
      vertex -1.04529 -9.94522 5.5
    endloop
  endfacet
  facet normal 0 -1 0
    outer loop
      vertex -1.04529 -9.94522 20.5
      vertex -1.04529 -9.94522 5.5
      vertex 1.04529 -9.94522 5.5
    endloop
  endfacet
  facet normal 0 -1 0
    outer loop
      vertex 1.04529 -9.94522 20.5
      vertex -1.04529 -9.94522 20.5
      vertex 1.04529 -9.94522 5.5
    endloop
  endfacet
  facet normal 0.207912 -0.978148 0
    outer loop
      vertex 1.04529 -9.94522 20.5
      vertex 1.04529 -9.94522 5.5
      vertex 3.09017 -9.51056 5.5
    endloop
  endfacet
  facet normal 0.207912 -0.978148 0
    outer loop
      vertex 3.09017 -9.51056 20.5
      vertex 1.04529 -9.94522 20.5
      vertex 3.09017 -9.51056 5.5
    endloop
  endfacet
  facet normal 0.406737 -0.913545 0
    outer loop
      vertex 3.09017 -9.51056 20.5
      vertex 3.09017 -9.51056 5.5
      vertex 5 -8.66025 5.5
    endloop
  endfacet
  facet normal 0.406737 -0.913545 0
    outer loop
      vertex 5 -8.66025 20.5
      vertex 3.09017 -9.51056 20.5
      vertex 5 -8.66025 5.5
    endloop
  endfacet
  facet normal 0.587785 -0.809017 0
    outer loop
      vertex 5 -8.66025 20.5
      vertex 5 -8.66025 5.5
      vertex 6.69131 -7.43145 5.5
    endloop
  endfacet
  facet normal 0.587785 -0.809017 0
    outer loop
      vertex 6.69131 -7.43145 20.5
      vertex 5 -8.66025 20.5
      vertex 6.69131 -7.43145 5.5
    endloop
  endfacet
  facet normal 0.743145 -0.669131 0
    outer loop
      vertex 6.69131 -7.43145 20.5
      vertex 6.69131 -7.43145 5.5
      vertex 8.09017 -5.87785 5.5
    endloop
  endfacet
  facet normal 0.743145 -0.669131 0
    outer loop
      vertex 8.09017 -5.87785 20.5
      vertex 6.69131 -7.43145 20.5
      vertex 8.09017 -5.87785 5.5
    endloop
  endfacet
  facet normal 0.866025 -0.5 0
    outer loop
      vertex 8.09017 -5.87785 20.5
      vertex 8.09017 -5.87785 5.5
      vertex 9.13546 -4.06737 5.5
    endloop
  endfacet
  facet normal 0.866025 -0.5 0
    outer loop
      vertex 9.13546 -4.06737 20.5
      vertex 8.09017 -5.87785 20.5
      vertex 9.13546 -4.06737 5.5
    endloop
  endfacet
  facet normal 0.951057 -0.309017 0
    outer loop
      vertex 9.13546 -4.06737 20.5
      vertex 9.13546 -4.06737 5.5
      vertex 9.78148 -2.07912 5.5
    endloop
  endfacet
  facet normal 0.951057 -0.309017 0
    outer loop
      vertex 9.78148 -2.07912 20.5
      vertex 9.13546 -4.06737 20.5
      vertex 9.78148 -2.07912 5.5
    endloop
  endfacet
  facet normal 0.994522 -0.104528 0
    outer loop
      vertex 9.78148 -2.07912 20.5
      vertex 9.78148 -2.07912 5.5
      vertex 10 0 5.5
    endloop
  endfacet
  facet normal 0.994522 -0.104528 0
    outer loop
      vertex 10 0 20.5
      vertex 9.78148 -2.07912 20.5
      vertex 10 0 5.5
    endloop
  endfacet
  facet normal 0.994522 0.104528 0
    outer loop
      vertex 10 0 5.5
      vertex 9.78148 2.07912 5.5
      vertex 9.78148 2.07912 20.5
    endloop
  endfacet
  facet normal 0.994522 0.104528 0
    outer loop
      vertex 10 0 20.5
      vertex 10 0 5.5
      vertex 9.78148 2.07912 20.5
    endloop
  endfacet
  facet normal 0.951057 0.309017 0
    outer loop
      vertex 9.78148 2.07912 5.5
      vertex 9.13546 4.06737 5.5
      vertex 9.13546 4.06737 20.5
    endloop
  endfacet
  facet normal 0.951057 0.309017 0
    outer loop
      vertex 9.78148 2.07912 20.5
      vertex 9.78148 2.07912 5.5
      vertex 9.13546 4.06737 20.5
    endloop
  endfacet
  facet normal 0.866025 0.5 0
    outer loop
      vertex 9.13546 4.06737 5.5
      vertex 8.09017 5.87785 5.5
      vertex 8.09017 5.87785 20.5
    endloop
  endfacet
  facet normal 0.866025 0.5 0
    outer loop
      vertex 9.13546 4.06737 20.5
      vertex 9.13546 4.06737 5.5
      vertex 8.09017 5.87785 20.5
    endloop
  endfacet
  facet normal 0.743145 0.669131 0
    outer loop
      vertex 8.09017 5.87785 5.5
      vertex 6.69131 7.43145 5.5
      vertex 6.69131 7.43145 20.5
    endloop
  endfacet
  facet normal 0.743145 0.669131 0
    outer loop
      vertex 8.09017 5.87785 20.5
      vertex 8.09017 5.87785 5.5
      vertex 6.69131 7.43145 20.5
    endloop
  endfacet
  facet normal 0.587785 0.809017 0
    outer loop
      vertex 5 8.66025 5.5
      vertex 5 8.66025 20.5
      vertex 6.69131 7.43145 5.5
    endloop
  endfacet
  facet normal 0.587785 0.809017 0
    outer loop
      vertex 6.69131 7.43145 5.5
      vertex 5 8.66025 20.5
      vertex 6.69131 7.43145 20.5
    endloop
  endfacet
  facet normal 0.406737 0.913545 0
    outer loop
      vertex 3.09017 9.51056 5.5
      vertex 3.09017 9.51056 20.5
      vertex 5 8.66025 5.5
    endloop
  endfacet
  facet normal 0.406737 0.913545 0
    outer loop
      vertex 5 8.66025 5.5
      vertex 3.09017 9.51056 20.5
      vertex 5 8.66025 20.5
    endloop
  endfacet
  facet normal 0.207912 0.978148 0
    outer loop
      vertex 1.04529 9.94522 5.5
      vertex 1.04529 9.94522 20.5
      vertex 3.09017 9.51056 5.5
    endloop
  endfacet
  facet normal 0.207912 0.978148 0
    outer loop
      vertex 3.09017 9.51056 5.5
      vertex 1.04529 9.94522 20.5
      vertex 3.09017 9.51056 20.5
    endloop
  endfacet
  facet normal 0 1 0
    outer loop
      vertex -1.04529 9.94522 5.5
      vertex -1.04529 9.94522 20.5
      vertex 1.04529 9.94522 5.5
    endloop
  endfacet
  facet normal 0 1 0
    outer loop
      vertex 1.04529 9.94522 5.5
      vertex -1.04529 9.94522 20.5
      vertex 1.04529 9.94522 20.5
    endloop
  endfacet
  facet normal -0.207912 0.978148 0
    outer loop
      vertex -3.09017 9.51056 5.5
      vertex -3.09017 9.51056 20.5
      vertex -1.04529 9.94522 5.5
    endloop
  endfacet
  facet normal -0.207912 0.978148 0
    outer loop
      vertex -1.04529 9.94522 5.5
      vertex -3.09017 9.51056 20.5
      vertex -1.04529 9.94522 20.5
    endloop
  endfacet
  facet normal -0.406737 0.913545 0
    outer loop
      vertex -5 8.66025 5.5
      vertex -5 8.66025 20.5
      vertex -3.09017 9.51056 5.5
    endloop
  endfacet
  facet normal -0.406737 0.913545 0
    outer loop
      vertex -3.09017 9.51056 5.5
      vertex -5 8.66025 20.5
      vertex -3.09017 9.51056 20.5
    endloop
  endfacet
  facet normal -0.587785 0.809017 0
    outer loop
      vertex -6.69131 7.43145 5.5
      vertex -6.69131 7.43145 20.5
      vertex -5 8.66025 5.5
    endloop
  endfacet
  facet normal -0.587785 0.809017 0
    outer loop
      vertex -5 8.66025 5.5
      vertex -6.69131 7.43145 20.5
      vertex -5 8.66025 20.5
    endloop
  endfacet
  facet normal -0.743145 0.669131 0
    outer loop
      vertex -8.09017 5.87785 5.5
      vertex -8.09017 5.87785 20.5
      vertex -6.69131 7.43145 5.5
    endloop
  endfacet
  facet normal -0.743145 0.669131 0
    outer loop
      vertex -6.69131 7.43145 5.5
      vertex -8.09017 5.87785 20.5
      vertex -6.69131 7.43145 20.5
    endloop
  endfacet
  facet normal -0.866025 0.5 0
    outer loop
      vertex -9.13546 4.06737 5.5
      vertex -9.13546 4.06737 20.5
      vertex -8.09017 5.87785 5.5
    endloop
  endfacet
  facet normal -0.866025 0.5 0
    outer loop
      vertex -8.09017 5.87785 5.5
      vertex -9.13546 4.06737 20.5
      vertex -8.09017 5.87785 20.5
    endloop
  endfacet
  facet normal -0.951057 0.309017 0
    outer loop
      vertex -9.78148 2.07912 5.5
      vertex -9.78148 2.07912 20.5
      vertex -9.13546 4.06737 5.5
    endloop
  endfacet
  facet normal -0.951057 0.309017 0
    outer loop
      vertex -9.13546 4.06737 5.5
      vertex -9.78148 2.07912 20.5
      vertex -9.13546 4.06737 20.5
    endloop
  endfacet
  facet normal 0.994522 0.104528 0
    outer loop
      vertex -2.75 0 10.5
      vertex -2.68991 -0.571757 10.5
      vertex -2.68991 -0.571757 5.5
    endloop
  endfacet
  facet normal 0.994522 0.104528 0
    outer loop
      vertex -2.75 0 5.5
      vertex -2.75 0 10.5
      vertex -2.68991 -0.571757 5.5
    endloop
  endfacet
  facet normal 0.994522 -0.104528 0
    outer loop
      vertex -2.68991 0.571757 5.5
      vertex -2.68991 0.571757 10.5
      vertex -2.75 0 10.5
    endloop
  endfacet
  facet normal 0.994522 -0.104528 0
    outer loop
      vertex -2.75 0 5.5
      vertex -2.68991 0.571757 5.5
      vertex -2.75 0 10.5
    endloop
  endfacet
  facet normal 0.951057 -0.309017 0
    outer loop
      vertex -2.51225 1.11853 5.5
      vertex -2.51225 1.11853 10.5
      vertex -2.68991 0.571757 10.5
    endloop
  endfacet
  facet normal 0.951057 -0.309017 0
    outer loop
      vertex -2.68991 0.571757 5.5
      vertex -2.51225 1.11853 5.5
      vertex -2.68991 0.571757 10.5
    endloop
  endfacet
  facet normal 0.866025 -0.5 0
    outer loop
      vertex -2.2248 1.61641 5.5
      vertex -2.2248 1.61641 10.5
      vertex -2.51225 1.11853 10.5
    endloop
  endfacet
  facet normal 0.866025 -0.5 0
    outer loop
      vertex -2.51225 1.11853 5.5
      vertex -2.2248 1.61641 5.5
      vertex -2.51225 1.11853 10.5
    endloop
  endfacet
  facet normal 0.743145 -0.669131 0
    outer loop
      vertex -2.19455 1.65 5.5
      vertex -2.19455 1.65 10.5
      vertex -2.2248 1.61641 10.5
    endloop
  endfacet
  facet normal 0.743145 -0.669131 0
    outer loop
      vertex -2.2248 1.61641 5.5
      vertex -2.19455 1.65 5.5
      vertex -2.2248 1.61641 10.5
    endloop
  endfacet
  facet normal 0 -1 0
    outer loop
      vertex 2.19455 1.65 5.5
      vertex 2.19455 1.65 10.5
      vertex -2.19455 1.65 10.5
    endloop
  endfacet
  facet normal 0 -1 0
    outer loop
      vertex -2.19455 1.65 5.5
      vertex 2.19455 1.65 5.5
      vertex -2.19455 1.65 10.5
    endloop
  endfacet
  facet normal -0.743145 -0.669131 0
    outer loop
      vertex 2.2248 1.61641 10.5
      vertex 2.19455 1.65 10.5
      vertex 2.2248 1.61641 5.5
    endloop
  endfacet
  facet normal -0.743145 -0.669131 0
    outer loop
      vertex 2.2248 1.61641 5.5
      vertex 2.19455 1.65 10.5
      vertex 2.19455 1.65 5.5
    endloop
  endfacet
  facet normal -0.866025 -0.5 0
    outer loop
      vertex 2.51225 1.11853 10.5
      vertex 2.2248 1.61641 10.5
      vertex 2.51225 1.11853 5.5
    endloop
  endfacet
  facet normal -0.866025 -0.5 0
    outer loop
      vertex 2.51225 1.11853 5.5
      vertex 2.2248 1.61641 10.5
      vertex 2.2248 1.61641 5.5
    endloop
  endfacet
  facet normal -0.951057 -0.309017 0
    outer loop
      vertex 2.68991 0.571757 10.5
      vertex 2.51225 1.11853 10.5
      vertex 2.68991 0.571757 5.5
    endloop
  endfacet
  facet normal -0.951057 -0.309017 0
    outer loop
      vertex 2.68991 0.571757 5.5
      vertex 2.51225 1.11853 10.5
      vertex 2.51225 1.11853 5.5
    endloop
  endfacet
  facet normal -0.994522 -0.104528 0
    outer loop
      vertex 2.75 0 10.5
      vertex 2.68991 0.571757 10.5
      vertex 2.75 0 5.5
    endloop
  endfacet
  facet normal -0.994522 -0.104528 0
    outer loop
      vertex 2.75 0 5.5
      vertex 2.68991 0.571757 10.5
      vertex 2.68991 0.571757 5.5
    endloop
  endfacet
  facet normal -0.994522 0.104528 0
    outer loop
      vertex 2.75 0 10.5
      vertex 2.75 0 5.5
      vertex 2.68991 -0.571757 10.5
    endloop
  endfacet
  facet normal -0.994522 0.104528 0
    outer loop
      vertex 2.68991 -0.571757 10.5
      vertex 2.75 0 5.5
      vertex 2.68991 -0.571757 5.5
    endloop
  endfacet
  facet normal -0.951057 0.309017 0
    outer loop
      vertex 2.68991 -0.571757 10.5
      vertex 2.68991 -0.571757 5.5
      vertex 2.51225 -1.11853 10.5
    endloop
  endfacet
  facet normal -0.951057 0.309017 0
    outer loop
      vertex 2.51225 -1.11853 10.5
      vertex 2.68991 -0.571757 5.5
      vertex 2.51225 -1.11853 5.5
    endloop
  endfacet
  facet normal -0.866025 0.5 0
    outer loop
      vertex 2.51225 -1.11853 10.5
      vertex 2.51225 -1.11853 5.5
      vertex 2.2248 -1.61641 10.5
    endloop
  endfacet
  facet normal -0.866025 0.5 0
    outer loop
      vertex 2.2248 -1.61641 10.5
      vertex 2.51225 -1.11853 5.5
      vertex 2.2248 -1.61641 5.5
    endloop
  endfacet
  facet normal -0.743145 0.669131 0
    outer loop
      vertex 2.2248 -1.61641 10.5
      vertex 2.2248 -1.61641 5.5
      vertex 2.19455 -1.65 10.5
    endloop
  endfacet
  facet normal -0.743145 0.669131 0
    outer loop
      vertex 2.19455 -1.65 10.5
      vertex 2.2248 -1.61641 5.5
      vertex 2.19455 -1.65 5.5
    endloop
  endfacet
  facet normal 0 1 0
    outer loop
      vertex 2.19455 -1.65 10.5
      vertex 2.19455 -1.65 5.5
      vertex -2.19455 -1.65 10.5
    endloop
  endfacet
  facet normal 0 1 0
    outer loop
      vertex -2.19455 -1.65 10.5
      vertex 2.19455 -1.65 5.5
      vertex -2.19455 -1.65 5.5
    endloop
  endfacet
  facet normal 0.743145 0.669131 0
    outer loop
      vertex -2.2248 -1.61641 10.5
      vertex -2.19455 -1.65 10.5
      vertex -2.19455 -1.65 5.5
    endloop
  endfacet
  facet normal 0.743145 0.669131 0
    outer loop
      vertex -2.2248 -1.61641 5.5
      vertex -2.2248 -1.61641 10.5
      vertex -2.19455 -1.65 5.5
    endloop
  endfacet
  facet normal 0.866025 0.5 0
    outer loop
      vertex -2.51225 -1.11853 10.5
      vertex -2.2248 -1.61641 10.5
      vertex -2.2248 -1.61641 5.5
    endloop
  endfacet
  facet normal 0.866025 0.5 0
    outer loop
      vertex -2.51225 -1.11853 5.5
      vertex -2.51225 -1.11853 10.5
      vertex -2.2248 -1.61641 5.5
    endloop
  endfacet
  facet normal 0.951057 0.309017 0
    outer loop
      vertex -2.68991 -0.571757 10.5
      vertex -2.51225 -1.11853 10.5
      vertex -2.51225 -1.11853 5.5
    endloop
  endfacet
  facet normal 0.951057 0.309017 0
    outer loop
      vertex -2.68991 -0.571757 5.5
      vertex -2.68991 -0.571757 10.5
      vertex -2.51225 -1.11853 5.5
    endloop
  endfacet
  facet normal 0 0 1
    outer loop
      vertex -9.78148 2.07912 20.5
      vertex -10 0 20.5
      vertex -9.78148 -2.07912 20.5
    endloop
  endfacet
  facet normal 0 0 1
    outer loop
      vertex -8.09017 -5.87785 20.5
      vertex -9.78148 2.07912 20.5
      vertex -9.13546 -4.06737 20.5
    endloop
  endfacet
  facet normal 0 0 1
    outer loop
      vertex -9.13546 -4.06737 20.5
      vertex -9.78148 2.07912 20.5
      vertex -9.78148 -2.07912 20.5
    endloop
  endfacet
  facet normal 0 0 1
    outer loop
      vertex -6.69131 -7.43145 20.5
      vertex -9.78148 2.07912 20.5
      vertex -8.09017 -5.87785 20.5
    endloop
  endfacet
  facet normal 0 0 1
    outer loop
      vertex -5 -8.66025 20.5
      vertex -9.78148 2.07912 20.5
      vertex -6.69131 -7.43145 20.5
    endloop
  endfacet
  facet normal 0 0 1
    outer loop
      vertex -6.49519 -3.75 20.5
      vertex -9.78148 2.07912 20.5
      vertex -5 -8.66025 20.5
    endloop
  endfacet
  facet normal 0 0 1
    outer loop
      vertex 7.24444 1.94114 20.5
      vertex 7.5 0 20.5
      vertex 10 0 20.5
    endloop
  endfacet
  facet normal 0 0 1
    outer loop
      vertex 5.3033 5.3033 20.5
      vertex 9.13546 4.06737 20.5
      vertex 8.09017 5.87785 20.5
    endloop
  endfacet
  facet normal 0 0 1
    outer loop
      vertex 3.75 6.49519 20.5
      vertex 5.3033 5.3033 20.5
      vertex 6.69131 7.43145 20.5
    endloop
  endfacet
  facet normal 0 0 1
    outer loop
      vertex 0 7.5 20.5
      vertex 1.94114 7.24444 20.5
      vertex 5 8.66025 20.5
    endloop
  endfacet
  facet normal 0 0 1
    outer loop
      vertex -3.09017 9.51056 20.5
      vertex -9.78148 2.07912 20.5
      vertex -1.04529 9.94522 20.5
    endloop
  endfacet
  facet normal 0 0 1
    outer loop
      vertex -5 8.66025 20.5
      vertex -9.78148 2.07912 20.5
      vertex -3.09017 9.51056 20.5
    endloop
  endfacet
  facet normal 0 0 1
    outer loop
      vertex -6.69131 7.43145 20.5
      vertex -9.78148 2.07912 20.5
      vertex -5 8.66025 20.5
    endloop
  endfacet
  facet normal 0 0 1
    outer loop
      vertex -8.09017 5.87785 20.5
      vertex -9.78148 2.07912 20.5
      vertex -6.69131 7.43145 20.5
    endloop
  endfacet
  facet normal 0 0 1
    outer loop
      vertex -9.13546 4.06737 20.5
      vertex -9.78148 2.07912 20.5
      vertex -8.09017 5.87785 20.5
    endloop
  endfacet
  facet normal 0 0 1
    outer loop
      vertex 6.49519 -3.75 20.5
      vertex 5.3033 -5.3033 20.5
      vertex 8.09017 -5.87785 20.5
    endloop
  endfacet
  facet normal 0 0 1
    outer loop
      vertex 7.5 0 20.5
      vertex 7.24444 -1.94114 20.5
      vertex 9.78148 -2.07912 20.5
    endloop
  endfacet
  facet normal 0 0 1
    outer loop
      vertex 5.3033 5.3033 20.5
      vertex 6.49519 3.75 20.5
      vertex 9.13546 4.06737 20.5
    endloop
  endfacet
  facet normal 0 0 1
    outer loop
      vertex -5.3033 5.3033 20.5
      vertex -3.75 6.49519 20.5
      vertex -9.78148 2.07912 20.5
    endloop
  endfacet
  facet normal 0 0 1
    outer loop
      vertex 6.49519 3.75 20.5
      vertex 7.24444 1.94114 20.5
      vertex 9.78148 2.07912 20.5
    endloop
  endfacet
  facet normal 0 0 1
    outer loop
      vertex -3.75 6.49519 20.5
      vertex -1.94114 7.24444 20.5
      vertex 1.04529 9.94522 20.5
    endloop
  endfacet
  facet normal 0 0 1
    outer loop
      vertex -1.04529 9.94522 20.5
      vertex -3.75 6.49519 20.5
      vertex 1.04529 9.94522 20.5
    endloop
  endfacet
  facet normal 0 0 1
    outer loop
      vertex -1.04529 9.94522 20.5
      vertex -9.78148 2.07912 20.5
      vertex -3.75 6.49519 20.5
    endloop
  endfacet
  facet normal 0 0 1
    outer loop
      vertex 1.04529 9.94522 20.5
      vertex -1.94114 7.24444 20.5
      vertex 3.09017 9.51056 20.5
    endloop
  endfacet
  facet normal 0 0 1
    outer loop
      vertex 3.09017 9.51056 20.5
      vertex 0 7.5 20.5
      vertex 5 8.66025 20.5
    endloop
  endfacet
  facet normal 0 0 1
    outer loop
      vertex 5 8.66025 20.5
      vertex 1.94114 7.24444 20.5
      vertex 6.69131 7.43145 20.5
    endloop
  endfacet
  facet normal 0 0 1
    outer loop
      vertex -6.49519 3.75 20.5
      vertex -5.3033 5.3033 20.5
      vertex -9.78148 2.07912 20.5
    endloop
  endfacet
  facet normal 0 0 1
    outer loop
      vertex 1.94114 7.24444 20.5
      vertex 3.75 6.49519 20.5
      vertex 6.69131 7.43145 20.5
    endloop
  endfacet
  facet normal 0 0 1
    outer loop
      vertex -1.94114 7.24444 20.5
      vertex 0 7.5 20.5
      vertex 3.09017 9.51056 20.5
    endloop
  endfacet
  facet normal 0 0 1
    outer loop
      vertex 6.69131 7.43145 20.5
      vertex 5.3033 5.3033 20.5
      vertex 8.09017 5.87785 20.5
    endloop
  endfacet
  facet normal 0 0 1
    outer loop
      vertex 9.13546 4.06737 20.5
      vertex 6.49519 3.75 20.5
      vertex 9.78148 2.07912 20.5
    endloop
  endfacet
  facet normal 0 0 1
    outer loop
      vertex 9.78148 2.07912 20.5
      vertex 7.24444 1.94114 20.5
      vertex 10 0 20.5
    endloop
  endfacet
  facet normal 0 0 1
    outer loop
      vertex 10 0 20.5
      vertex 7.5 0 20.5
      vertex 9.78148 -2.07912 20.5
    endloop
  endfacet
  facet normal 0 0 1
    outer loop
      vertex 9.78148 -2.07912 20.5
      vertex 7.24444 -1.94114 20.5
      vertex 9.13546 -4.06737 20.5
    endloop
  endfacet
  facet normal 0 0 1
    outer loop
      vertex 9.13546 -4.06737 20.5
      vertex 6.49519 -3.75 20.5
      vertex 8.09017 -5.87785 20.5
    endloop
  endfacet
  facet normal 0 0 1
    outer loop
      vertex 8.09017 -5.87785 20.5
      vertex 5.3033 -5.3033 20.5
      vertex 6.69131 -7.43145 20.5
    endloop
  endfacet
  facet normal 0 0 1
    outer loop
      vertex 1.94114 -7.24444 20.5
      vertex 0 -7.5 20.5
      vertex 3.09017 -9.51056 20.5
    endloop
  endfacet
  facet normal 0 0 1
    outer loop
      vertex 6.69131 -7.43145 20.5
      vertex 3.75 -6.49519 20.5
      vertex 5 -8.66025 20.5
    endloop
  endfacet
  facet normal 0 0 1
    outer loop
      vertex -7.24444 1.94114 20.5
      vertex -6.49519 3.75 20.5
      vertex -9.78148 2.07912 20.5
    endloop
  endfacet
  facet normal 0 0 1
    outer loop
      vertex 5 -8.66025 20.5
      vertex 1.94114 -7.24444 20.5
      vertex 3.09017 -9.51056 20.5
    endloop
  endfacet
  facet normal 0 0 1
    outer loop
      vertex 3.09017 -9.51056 20.5
      vertex 0 -7.5 20.5
      vertex 1.04529 -9.94522 20.5
    endloop
  endfacet
  facet normal 0 0 1
    outer loop
      vertex 1.04529 -9.94522 20.5
      vertex -1.94114 -7.24444 20.5
      vertex -1.04529 -9.94522 20.5
    endloop
  endfacet
  facet normal 0 0 1
    outer loop
      vertex 7.24444 -1.94114 20.5
      vertex 6.49519 -3.75 20.5
      vertex 9.13546 -4.06737 20.5
    endloop
  endfacet
  facet normal 0 0 1
    outer loop
      vertex -1.04529 -9.94522 20.5
      vertex -3.75 -6.49519 20.5
      vertex -3.09017 -9.51056 20.5
    endloop
  endfacet
  facet normal 0 0 1
    outer loop
      vertex -3.75 -6.49519 20.5
      vertex -5.3033 -5.3033 20.5
      vertex -3.09017 -9.51056 20.5
    endloop
  endfacet
  facet normal 0 0 1
    outer loop
      vertex -3.09017 -9.51056 20.5
      vertex -6.49519 -3.75 20.5
      vertex -5 -8.66025 20.5
    endloop
  endfacet
  facet normal 0 0 1
    outer loop
      vertex -6.49519 -3.75 20.5
      vertex -7.24444 -1.94114 20.5
      vertex -9.78148 2.07912 20.5
    endloop
  endfacet
  facet normal 0 0 1
    outer loop
      vertex -5.3033 -5.3033 20.5
      vertex -6.49519 -3.75 20.5
      vertex -3.09017 -9.51056 20.5
    endloop
  endfacet
  facet normal 0 0 1
    outer loop
      vertex -7.24444 -1.94114 20.5
      vertex -7.5 0 20.5
      vertex -9.78148 2.07912 20.5
    endloop
  endfacet
  facet normal 0 0 1
    outer loop
      vertex 5.3033 -5.3033 20.5
      vertex 3.75 -6.49519 20.5
      vertex 6.69131 -7.43145 20.5
    endloop
  endfacet
  facet normal 0 0 1
    outer loop
      vertex 3.75 -6.49519 20.5
      vertex 1.94114 -7.24444 20.5
      vertex 5 -8.66025 20.5
    endloop
  endfacet
  facet normal 0 0 1
    outer loop
      vertex -1.94114 -7.24444 20.5
      vertex -3.75 -6.49519 20.5
      vertex -1.04529 -9.94522 20.5
    endloop
  endfacet
  facet normal 0 0 1
    outer loop
      vertex 0 -7.5 20.5
      vertex -1.94114 -7.24444 20.5
      vertex 1.04529 -9.94522 20.5
    endloop
  endfacet
  facet normal 0 0 1
    outer loop
      vertex -7.5 0 20.5
      vertex -7.24444 1.94114 20.5
      vertex -9.78148 2.07912 20.5
    endloop
  endfacet
  facet normal 0 0 1
    outer loop
      vertex -7.24444 -1.94114 10.5
      vertex -6.49519 -3.75 10.5
      vertex -5.3033 -5.3033 10.5
    endloop
  endfacet
  facet normal 0 0 1
    outer loop
      vertex -1.94114 -7.24444 10.5
      vertex -7.24444 -1.94114 10.5
      vertex -3.75 -6.49519 10.5
    endloop
  endfacet
  facet normal 0 0 1
    outer loop
      vertex -3.75 -6.49519 10.5
      vertex -7.24444 -1.94114 10.5
      vertex -5.3033 -5.3033 10.5
    endloop
  endfacet
  facet normal 0 0 1
    outer loop
      vertex 0 -7.5 10.5
      vertex -7.24444 -1.94114 10.5
      vertex -1.94114 -7.24444 10.5
    endloop
  endfacet
  facet normal 0 0 1
    outer loop
      vertex 1.94114 -7.24444 10.5
      vertex -7.24444 -1.94114 10.5
      vertex 0 -7.5 10.5
    endloop
  endfacet
  facet normal 0 0 1
    outer loop
      vertex 3.75 -6.49519 10.5
      vertex -7.24444 -1.94114 10.5
      vertex 1.94114 -7.24444 10.5
    endloop
  endfacet
  facet normal 0 0 1
    outer loop
      vertex 5.3033 -5.3033 10.5
      vertex -7.24444 -1.94114 10.5
      vertex 3.75 -6.49519 10.5
    endloop
  endfacet
  facet normal 0 0 1
    outer loop
      vertex 6.49519 -3.75 10.5
      vertex -7.24444 -1.94114 10.5
      vertex 5.3033 -5.3033 10.5
    endloop
  endfacet
  facet normal 0 0 1
    outer loop
      vertex 7.24444 -1.94114 10.5
      vertex -7.24444 -1.94114 10.5
      vertex 6.49519 -3.75 10.5
    endloop
  endfacet
  facet normal 0 0 1
    outer loop
      vertex 2.19455 -1.65 10.5
      vertex -7.24444 -1.94114 10.5
      vertex 7.24444 -1.94114 10.5
    endloop
  endfacet
  facet normal 0 0 1
    outer loop
      vertex 2.19455 -1.65 10.5
      vertex -2.19455 -1.65 10.5
      vertex -7.24444 -1.94114 10.5
    endloop
  endfacet
  facet normal 0 0 1
    outer loop
      vertex 2.68991 -0.571757 10.5
      vertex 2.51225 -1.11853 10.5
      vertex 7.5 0 10.5
    endloop
  endfacet
  facet normal 0 0 1
    outer loop
      vertex 1.94114 7.24444 10.5
      vertex -7.24444 -1.94114 10.5
      vertex 3.75 6.49519 10.5
    endloop
  endfacet
  facet normal 0 0 1
    outer loop
      vertex 0 7.5 10.5
      vertex -7.24444 -1.94114 10.5
      vertex 1.94114 7.24444 10.5
    endloop
  endfacet
  facet normal 0 0 1
    outer loop
      vertex -1.94114 7.24444 10.5
      vertex -7.24444 -1.94114 10.5
      vertex 0 7.5 10.5
    endloop
  endfacet
  facet normal 0 0 1
    outer loop
      vertex -3.75 6.49519 10.5
      vertex -7.24444 -1.94114 10.5
      vertex -1.94114 7.24444 10.5
    endloop
  endfacet
  facet normal 0 0 1
    outer loop
      vertex -5.3033 5.3033 10.5
      vertex -7.24444 -1.94114 10.5
      vertex -3.75 6.49519 10.5
    endloop
  endfacet
  facet normal 0 0 1
    outer loop
      vertex -6.49519 3.75 10.5
      vertex -7.24444 -1.94114 10.5
      vertex -5.3033 5.3033 10.5
    endloop
  endfacet
  facet normal 0 0 1
    outer loop
      vertex -7.24444 1.94114 10.5
      vertex -7.24444 -1.94114 10.5
      vertex -6.49519 3.75 10.5
    endloop
  endfacet
  facet normal 0 0 1
    outer loop
      vertex -7.5 0 10.5
      vertex -7.24444 -1.94114 10.5
      vertex -7.24444 1.94114 10.5
    endloop
  endfacet
  facet normal 0 0 1
    outer loop
      vertex -2.68991 0.571757 10.5
      vertex -7.24444 -1.94114 10.5
      vertex -2.75 0 10.5
    endloop
  endfacet
  facet normal 0 0 1
    outer loop
      vertex 2.51225 1.11853 10.5
      vertex 2.68991 0.571757 10.5
      vertex 7.24444 1.94114 10.5
    endloop
  endfacet
  facet normal 0 0 1
    outer loop
      vertex -2.2248 1.61641 10.5
      vertex -7.24444 -1.94114 10.5
      vertex -2.51225 1.11853 10.5
    endloop
  endfacet
  facet normal 0 0 1
    outer loop
      vertex -2.19455 1.65 10.5
      vertex -7.24444 -1.94114 10.5
      vertex -2.2248 1.61641 10.5
    endloop
  endfacet
  facet normal 0 0 1
    outer loop
      vertex 3.75 6.49519 10.5
      vertex -7.24444 -1.94114 10.5
      vertex -2.19455 1.65 10.5
    endloop
  endfacet
  facet normal 0 0 1
    outer loop
      vertex 6.49519 3.75 10.5
      vertex 2.19455 1.65 10.5
      vertex 7.24444 1.94114 10.5
    endloop
  endfacet
  facet normal 0 0 1
    outer loop
      vertex -2.68991 0.571757 10.5
      vertex -2.51225 1.11853 10.5
      vertex -7.24444 -1.94114 10.5
    endloop
  endfacet
  facet normal 0 0 1
    outer loop
      vertex 2.19455 1.65 10.5
      vertex 2.2248 1.61641 10.5
      vertex 7.24444 1.94114 10.5
    endloop
  endfacet
  facet normal 0 0 1
    outer loop
      vertex 2.2248 1.61641 10.5
      vertex 2.51225 1.11853 10.5
      vertex 7.24444 1.94114 10.5
    endloop
  endfacet
  facet normal 0 0 1
    outer loop
      vertex 7.24444 1.94114 10.5
      vertex 2.68991 0.571757 10.5
      vertex 7.5 0 10.5
    endloop
  endfacet
  facet normal 0 0 1
    outer loop
      vertex 2.68991 0.571757 10.5
      vertex 2.75 0 10.5
      vertex 7.5 0 10.5
    endloop
  endfacet
  facet normal 0 0 1
    outer loop
      vertex 2.75 0 10.5
      vertex 2.68991 -0.571757 10.5
      vertex 7.5 0 10.5
    endloop
  endfacet
  facet normal 0 0 1
    outer loop
      vertex 7.5 0 10.5
      vertex 2.51225 -1.11853 10.5
      vertex 7.24444 -1.94114 10.5
    endloop
  endfacet
  facet normal 0 0 1
    outer loop
      vertex 2.51225 -1.11853 10.5
      vertex 2.2248 -1.61641 10.5
      vertex 7.24444 -1.94114 10.5
    endloop
  endfacet
  facet normal 0 0 1
    outer loop
      vertex 2.2248 -1.61641 10.5
      vertex 2.19455 -1.65 10.5
      vertex 7.24444 -1.94114 10.5
    endloop
  endfacet
  facet normal 0 0 1
    outer loop
      vertex -2.2248 -1.61641 10.5
      vertex -7.24444 -1.94114 10.5
      vertex -2.19455 -1.65 10.5
    endloop
  endfacet
  facet normal 0 0 1
    outer loop
      vertex -2.51225 -1.11853 10.5
      vertex -2.68991 -0.571757 10.5
      vertex -7.24444 -1.94114 10.5
    endloop
  endfacet
  facet normal 0 0 1
    outer loop
      vertex -2.2248 -1.61641 10.5
      vertex -2.51225 -1.11853 10.5
      vertex -7.24444 -1.94114 10.5
    endloop
  endfacet
  facet normal 0 0 1
    outer loop
      vertex -2.19455 1.65 10.5
      vertex 5.3033 5.3033 10.5
      vertex 3.75 6.49519 10.5
    endloop
  endfacet
  facet normal 0 0 1
    outer loop
      vertex -2.68991 -0.571757 10.5
      vertex -2.75 0 10.5
      vertex -7.24444 -1.94114 10.5
    endloop
  endfacet
  facet normal 0 0 1
    outer loop
      vertex -2.19455 1.65 10.5
      vertex 6.49519 3.75 10.5
      vertex 5.3033 5.3033 10.5
    endloop
  endfacet
  facet normal 0 0 1
    outer loop
      vertex -2.19455 1.65 10.5
      vertex 2.19455 1.65 10.5
      vertex 6.49519 3.75 10.5
    endloop
  endfacet
  facet normal 0.991445 0.130526 0
    outer loop
      vertex -7.5 0 20.5
      vertex -7.24444 -1.94114 20.5
      vertex -7.24444 -1.94114 10.5
    endloop
  endfacet
  facet normal 0.991445 0.130526 0
    outer loop
      vertex -7.5 0 10.5
      vertex -7.5 0 20.5
      vertex -7.24444 -1.94114 10.5
    endloop
  endfacet
  facet normal 0.92388 0.382683 0
    outer loop
      vertex -7.24444 -1.94114 20.5
      vertex -6.49519 -3.75 20.5
      vertex -6.49519 -3.75 10.5
    endloop
  endfacet
  facet normal 0.92388 0.382683 0
    outer loop
      vertex -7.24444 -1.94114 10.5
      vertex -7.24444 -1.94114 20.5
      vertex -6.49519 -3.75 10.5
    endloop
  endfacet
  facet normal 0.793353 0.608762 0
    outer loop
      vertex -6.49519 -3.75 20.5
      vertex -5.3033 -5.3033 20.5
      vertex -5.3033 -5.3033 10.5
    endloop
  endfacet
  facet normal 0.793353 0.608762 0
    outer loop
      vertex -6.49519 -3.75 10.5
      vertex -6.49519 -3.75 20.5
      vertex -5.3033 -5.3033 10.5
    endloop
  endfacet
  facet normal 0.608762 0.793353 0
    outer loop
      vertex -3.75 -6.49519 20.5
      vertex -3.75 -6.49519 10.5
      vertex -5.3033 -5.3033 20.5
    endloop
  endfacet
  facet normal 0.608762 0.793353 0
    outer loop
      vertex -5.3033 -5.3033 20.5
      vertex -3.75 -6.49519 10.5
      vertex -5.3033 -5.3033 10.5
    endloop
  endfacet
  facet normal 0.382683 0.92388 0
    outer loop
      vertex -1.94114 -7.24444 20.5
      vertex -1.94114 -7.24444 10.5
      vertex -3.75 -6.49519 20.5
    endloop
  endfacet
  facet normal 0.382683 0.92388 0
    outer loop
      vertex -3.75 -6.49519 20.5
      vertex -1.94114 -7.24444 10.5
      vertex -3.75 -6.49519 10.5
    endloop
  endfacet
  facet normal 0.130526 0.991445 0
    outer loop
      vertex 0 -7.5 20.5
      vertex 0 -7.5 10.5
      vertex -1.94114 -7.24444 20.5
    endloop
  endfacet
  facet normal 0.130526 0.991445 0
    outer loop
      vertex -1.94114 -7.24444 20.5
      vertex 0 -7.5 10.5
      vertex -1.94114 -7.24444 10.5
    endloop
  endfacet
  facet normal -0.130526 0.991445 0
    outer loop
      vertex 1.94114 -7.24444 20.5
      vertex 1.94114 -7.24444 10.5
      vertex 0 -7.5 20.5
    endloop
  endfacet
  facet normal -0.130526 0.991445 0
    outer loop
      vertex 0 -7.5 20.5
      vertex 1.94114 -7.24444 10.5
      vertex 0 -7.5 10.5
    endloop
  endfacet
  facet normal -0.382683 0.92388 0
    outer loop
      vertex 3.75 -6.49519 20.5
      vertex 3.75 -6.49519 10.5
      vertex 1.94114 -7.24444 20.5
    endloop
  endfacet
  facet normal -0.382683 0.92388 0
    outer loop
      vertex 1.94114 -7.24444 20.5
      vertex 3.75 -6.49519 10.5
      vertex 1.94114 -7.24444 10.5
    endloop
  endfacet
  facet normal -0.608762 0.793353 0
    outer loop
      vertex 5.3033 -5.3033 20.5
      vertex 5.3033 -5.3033 10.5
      vertex 3.75 -6.49519 20.5
    endloop
  endfacet
  facet normal -0.608762 0.793353 0
    outer loop
      vertex 3.75 -6.49519 20.5
      vertex 5.3033 -5.3033 10.5
      vertex 3.75 -6.49519 10.5
    endloop
  endfacet
  facet normal -0.793353 0.608762 0
    outer loop
      vertex 6.49519 -3.75 20.5
      vertex 6.49519 -3.75 10.5
      vertex 5.3033 -5.3033 20.5
    endloop
  endfacet
  facet normal -0.793353 0.608762 0
    outer loop
      vertex 5.3033 -5.3033 20.5
      vertex 6.49519 -3.75 10.5
      vertex 5.3033 -5.3033 10.5
    endloop
  endfacet
  facet normal -0.92388 0.382683 0
    outer loop
      vertex 7.24444 -1.94114 20.5
      vertex 7.24444 -1.94114 10.5
      vertex 6.49519 -3.75 20.5
    endloop
  endfacet
  facet normal -0.92388 0.382683 0
    outer loop
      vertex 6.49519 -3.75 20.5
      vertex 7.24444 -1.94114 10.5
      vertex 6.49519 -3.75 10.5
    endloop
  endfacet
  facet normal -0.991445 0.130526 0
    outer loop
      vertex 7.5 0 20.5
      vertex 7.5 0 10.5
      vertex 7.24444 -1.94114 20.5
    endloop
  endfacet
  facet normal -0.991445 0.130526 0
    outer loop
      vertex 7.24444 -1.94114 20.5
      vertex 7.5 0 10.5
      vertex 7.24444 -1.94114 10.5
    endloop
  endfacet
  facet normal -0.991445 -0.130526 0
    outer loop
      vertex 7.5 0 20.5
      vertex 7.24444 1.94114 20.5
      vertex 7.5 0 10.5
    endloop
  endfacet
  facet normal -0.991445 -0.130526 0
    outer loop
      vertex 7.5 0 10.5
      vertex 7.24444 1.94114 20.5
      vertex 7.24444 1.94114 10.5
    endloop
  endfacet
  facet normal -0.92388 -0.382683 0
    outer loop
      vertex 7.24444 1.94114 20.5
      vertex 6.49519 3.75 20.5
      vertex 7.24444 1.94114 10.5
    endloop
  endfacet
  facet normal -0.92388 -0.382683 0
    outer loop
      vertex 7.24444 1.94114 10.5
      vertex 6.49519 3.75 20.5
      vertex 6.49519 3.75 10.5
    endloop
  endfacet
  facet normal -0.793353 -0.608762 0
    outer loop
      vertex 6.49519 3.75 20.5
      vertex 5.3033 5.3033 20.5
      vertex 6.49519 3.75 10.5
    endloop
  endfacet
  facet normal -0.793353 -0.608762 0
    outer loop
      vertex 6.49519 3.75 10.5
      vertex 5.3033 5.3033 20.5
      vertex 5.3033 5.3033 10.5
    endloop
  endfacet
  facet normal -0.608762 -0.793353 0
    outer loop
      vertex 5.3033 5.3033 10.5
      vertex 5.3033 5.3033 20.5
      vertex 3.75 6.49519 20.5
    endloop
  endfacet
  facet normal -0.608762 -0.793353 0
    outer loop
      vertex 3.75 6.49519 10.5
      vertex 5.3033 5.3033 10.5
      vertex 3.75 6.49519 20.5
    endloop
  endfacet
  facet normal -0.382683 -0.92388 0
    outer loop
      vertex 3.75 6.49519 10.5
      vertex 3.75 6.49519 20.5
      vertex 1.94114 7.24444 20.5
    endloop
  endfacet
  facet normal -0.382683 -0.92388 0
    outer loop
      vertex 1.94114 7.24444 10.5
      vertex 3.75 6.49519 10.5
      vertex 1.94114 7.24444 20.5
    endloop
  endfacet
  facet normal -0.130526 -0.991445 0
    outer loop
      vertex 1.94114 7.24444 10.5
      vertex 1.94114 7.24444 20.5
      vertex 0 7.5 20.5
    endloop
  endfacet
  facet normal -0.130526 -0.991445 0
    outer loop
      vertex 0 7.5 10.5
      vertex 1.94114 7.24444 10.5
      vertex 0 7.5 20.5
    endloop
  endfacet
  facet normal 0.130526 -0.991445 0
    outer loop
      vertex 0 7.5 10.5
      vertex 0 7.5 20.5
      vertex -1.94114 7.24444 20.5
    endloop
  endfacet
  facet normal 0.130526 -0.991445 0
    outer loop
      vertex -1.94114 7.24444 10.5
      vertex 0 7.5 10.5
      vertex -1.94114 7.24444 20.5
    endloop
  endfacet
  facet normal 0.382683 -0.92388 0
    outer loop
      vertex -1.94114 7.24444 10.5
      vertex -1.94114 7.24444 20.5
      vertex -3.75 6.49519 20.5
    endloop
  endfacet
  facet normal 0.382683 -0.92388 0
    outer loop
      vertex -3.75 6.49519 10.5
      vertex -1.94114 7.24444 10.5
      vertex -3.75 6.49519 20.5
    endloop
  endfacet
  facet normal 0.608762 -0.793353 0
    outer loop
      vertex -3.75 6.49519 10.5
      vertex -3.75 6.49519 20.5
      vertex -5.3033 5.3033 20.5
    endloop
  endfacet
  facet normal 0.608762 -0.793353 0
    outer loop
      vertex -5.3033 5.3033 10.5
      vertex -3.75 6.49519 10.5
      vertex -5.3033 5.3033 20.5
    endloop
  endfacet
  facet normal 0.793353 -0.608762 0
    outer loop
      vertex -5.3033 5.3033 10.5
      vertex -5.3033 5.3033 20.5
      vertex -6.49519 3.75 20.5
    endloop
  endfacet
  facet normal 0.793353 -0.608762 0
    outer loop
      vertex -6.49519 3.75 10.5
      vertex -5.3033 5.3033 10.5
      vertex -6.49519 3.75 20.5
    endloop
  endfacet
  facet normal 0.92388 -0.382683 0
    outer loop
      vertex -6.49519 3.75 10.5
      vertex -6.49519 3.75 20.5
      vertex -7.24444 1.94114 20.5
    endloop
  endfacet
  facet normal 0.92388 -0.382683 0
    outer loop
      vertex -7.24444 1.94114 10.5
      vertex -6.49519 3.75 10.5
      vertex -7.24444 1.94114 20.5
    endloop
  endfacet
  facet normal 0.991445 -0.130526 0
    outer loop
      vertex -7.24444 1.94114 10.5
      vertex -7.24444 1.94114 20.5
      vertex -7.5 0 20.5
    endloop
  endfacet
  facet normal 0.991445 -0.130526 0
    outer loop
      vertex -7.5 0 10.5
      vertex -7.24444 1.94114 10.5
      vertex -7.5 0 20.5
    endloop
  endfacet
endsolid OpenSCAD_Model
